<mxfile host="Electron" modified="2025-03-09T12:02:21.901Z" agent="Mozilla/5.0 (Macintosh; Intel Mac OS X 10_15_7) AppleWebKit/537.36 (KHTML, like Gecko) draw.io/24.5.3 Chrome/124.0.6367.207 Electron/30.0.6 Safari/537.36" etag="RCjgtzwUHWR4CoO3jy8K" version="24.5.3" type="device" pages="6">
  <diagram name="NEW ARCHITECTURE" id="nKIxj3yk9rAbpeGfvkcN">
    <mxGraphModel dx="1207" dy="874" grid="1" gridSize="10" guides="1" tooltips="1" connect="1" arrows="1" fold="1" page="1" pageScale="1" pageWidth="1169" pageHeight="827" math="0" shadow="0">
      <root>
        <mxCell id="rcTnWR7vJVmOpkNNzQWF-0" />
        <mxCell id="rcTnWR7vJVmOpkNNzQWF-1" parent="rcTnWR7vJVmOpkNNzQWF-0" />
        <mxCell id="rcTnWR7vJVmOpkNNzQWF-7" style="rounded=0;orthogonalLoop=1;jettySize=auto;html=1;entryX=0;entryY=0.5;entryDx=0;entryDy=0;exitX=0.987;exitY=0.555;exitDx=0;exitDy=0;exitPerimeter=0;dashed=1;dashPattern=1 2;endArrow=openThin;endFill=0;" parent="rcTnWR7vJVmOpkNNzQWF-1" source="rcTnWR7vJVmOpkNNzQWF-9" target="rcTnWR7vJVmOpkNNzQWF-52" edge="1">
          <mxGeometry relative="1" as="geometry" />
        </mxCell>
        <mxCell id="rcTnWR7vJVmOpkNNzQWF-8" value="&lt;font style=&quot;font-size: 9px;&quot;&gt;gRPC&lt;/font&gt;" style="edgeLabel;html=1;align=center;verticalAlign=middle;resizable=0;points=[];" parent="rcTnWR7vJVmOpkNNzQWF-7" vertex="1" connectable="0">
          <mxGeometry x="-0.0367" y="1" relative="1" as="geometry">
            <mxPoint as="offset" />
          </mxGeometry>
        </mxCell>
        <mxCell id="rcTnWR7vJVmOpkNNzQWF-9" value="Gateway" style="rounded=1;whiteSpace=wrap;html=1;" parent="rcTnWR7vJVmOpkNNzQWF-1" vertex="1">
          <mxGeometry x="117" y="266" width="110" height="455" as="geometry" />
        </mxCell>
        <mxCell id="rcTnWR7vJVmOpkNNzQWF-22" value="&lt;b style=&quot;font-size: 11px;&quot;&gt;&lt;font style=&quot;font-size: 11px;&quot;&gt;Users &amp;amp;&lt;/font&gt;&lt;/b&gt;&lt;div style=&quot;font-size: 11px;&quot;&gt;&lt;b&gt;&lt;font style=&quot;font-size: 11px;&quot;&gt;Groups&lt;/font&gt;&lt;/b&gt;&lt;/div&gt;" style="shape=hexagon;perimeter=hexagonPerimeter2;whiteSpace=wrap;html=1;fixedSize=1;fillColor=#E8EDFC;strokeColor=#99A7BF;size=30;" parent="rcTnWR7vJVmOpkNNzQWF-1" vertex="1">
          <mxGeometry x="679" y="486.5" width="140" height="120" as="geometry" />
        </mxCell>
        <mxCell id="rcTnWR7vJVmOpkNNzQWF-23" value="" style="ellipse;whiteSpace=wrap;html=1;align=center;aspect=fixed;fillColor=none;strokeColor=none;resizable=0;perimeter=centerPerimeter;rotatable=0;allowArrows=0;points=[];outlineConnect=1;" parent="rcTnWR7vJVmOpkNNzQWF-1" vertex="1">
          <mxGeometry x="659" y="509" width="10" height="10" as="geometry" />
        </mxCell>
        <mxCell id="rcTnWR7vJVmOpkNNzQWF-24" value="" style="ellipse;whiteSpace=wrap;html=1;align=center;aspect=fixed;fillColor=none;strokeColor=none;resizable=0;perimeter=centerPerimeter;rotatable=0;allowArrows=0;points=[];outlineConnect=1;" parent="rcTnWR7vJVmOpkNNzQWF-1" vertex="1">
          <mxGeometry x="568" y="190.00000000000006" width="10" height="10" as="geometry" />
        </mxCell>
        <mxCell id="rcTnWR7vJVmOpkNNzQWF-25" style="rounded=0;orthogonalLoop=1;jettySize=auto;html=1;entryX=0.5;entryY=1;entryDx=0;entryDy=0;endArrow=block;endFill=0;exitX=0.5;exitY=0;exitDx=0;exitDy=0;dashed=1;" parent="rcTnWR7vJVmOpkNNzQWF-1" source="rcTnWR7vJVmOpkNNzQWF-27" target="rcTnWR7vJVmOpkNNzQWF-29" edge="1">
          <mxGeometry relative="1" as="geometry">
            <mxPoint x="748.89" y="668" as="sourcePoint" />
            <mxPoint x="749" y="640.5" as="targetPoint" />
          </mxGeometry>
        </mxCell>
        <mxCell id="rcTnWR7vJVmOpkNNzQWF-27" value="&lt;div style=&quot;line-height: 110%; font-size: 9px;&quot;&gt;RabbitMQ Adapter&lt;/div&gt;" style="rounded=0;whiteSpace=wrap;html=1;align=center;" parent="rcTnWR7vJVmOpkNNzQWF-1" vertex="1">
          <mxGeometry x="654" y="622" width="60" height="25" as="geometry" />
        </mxCell>
        <mxCell id="rcTnWR7vJVmOpkNNzQWF-28" value="&lt;div style=&quot;line-height: 90%; font-size: 9px;&quot;&gt;Groups&lt;/div&gt;&lt;div style=&quot;line-height: 90%; font-size: 9px;&quot;&gt;Service&lt;/div&gt;&lt;div style=&quot;line-height: 90%;&quot;&gt;&lt;i style=&quot;&quot;&gt;&lt;font style=&quot;font-size: 7px;&quot;&gt;&amp;lt;&amp;lt;In port&amp;gt;&amp;gt;&lt;/font&gt;&lt;/i&gt;&lt;/div&gt;" style="rounded=0;whiteSpace=wrap;html=1;align=center;" parent="rcTnWR7vJVmOpkNNzQWF-1" vertex="1">
          <mxGeometry x="669" y="505.5" width="50" height="30" as="geometry" />
        </mxCell>
        <mxCell id="rcTnWR7vJVmOpkNNzQWF-29" value="&lt;div style=&quot;line-height: 90%; font-size: 9px;&quot;&gt;GroupsEvents&lt;/div&gt;&lt;div style=&quot;line-height: 90%; font-size: 9px;&quot;&gt;Observer&lt;/div&gt;&lt;div style=&quot;line-height: 90%;&quot;&gt;&lt;i style=&quot;&quot;&gt;&lt;font style=&quot;font-size: 7px;&quot;&gt;&amp;lt;&amp;lt;Out port&amp;gt;&amp;gt;&lt;/font&gt;&lt;/i&gt;&lt;/div&gt;" style="rounded=0;whiteSpace=wrap;html=1;align=center;" parent="rcTnWR7vJVmOpkNNzQWF-1" vertex="1">
          <mxGeometry x="649" y="567.5" width="70" height="30" as="geometry" />
        </mxCell>
        <mxCell id="rcTnWR7vJVmOpkNNzQWF-30" value="&lt;span style=&quot;font-size: 11px;&quot;&gt;&lt;b&gt;Notifications&lt;/b&gt;&lt;/span&gt;" style="shape=hexagon;perimeter=hexagonPerimeter2;whiteSpace=wrap;html=1;fixedSize=1;fillColor=#E8EDFC;strokeColor=#99A7BF;size=30;" parent="rcTnWR7vJVmOpkNNzQWF-1" vertex="1">
          <mxGeometry x="477" y="308" width="140" height="120" as="geometry" />
        </mxCell>
        <mxCell id="rcTnWR7vJVmOpkNNzQWF-32" value="&lt;font style=&quot;font-size: 9px;&quot;&gt;UserID&amp;nbsp;&lt;/font&gt;&lt;div style=&quot;line-height: 70%;&quot;&gt;&lt;font style=&quot;font-size: 9px;&quot;&gt;in&amp;nbsp;&lt;/font&gt;&lt;span style=&quot;font-size: 9px; background-color: initial;&quot;&gt;Groups&lt;/span&gt;&lt;/div&gt;" style="shape=cylinder3;whiteSpace=wrap;html=1;boundedLbl=1;backgroundOutline=1;size=5.774193548387103;" parent="rcTnWR7vJVmOpkNNzQWF-1" vertex="1">
          <mxGeometry x="521" y="469" width="52" height="40" as="geometry" />
        </mxCell>
        <mxCell id="b9qrI1uqka641rMFUCyQ-6" style="edgeStyle=orthogonalEdgeStyle;rounded=0;orthogonalLoop=1;jettySize=auto;html=1;exitX=0.5;exitY=0;exitDx=0;exitDy=0;dashed=1;endArrow=block;endFill=0;exitPerimeter=0;entryX=0.5;entryY=1;entryDx=0;entryDy=0;" parent="rcTnWR7vJVmOpkNNzQWF-1" source="rcTnWR7vJVmOpkNNzQWF-32" target="rcTnWR7vJVmOpkNNzQWF-33" edge="1">
          <mxGeometry relative="1" as="geometry">
            <mxPoint x="546.893636363636" y="318" as="targetPoint" />
            <mxPoint x="546.53" y="469" as="sourcePoint" />
          </mxGeometry>
        </mxCell>
        <mxCell id="rcTnWR7vJVmOpkNNzQWF-33" value="&lt;div style=&quot;line-height: 90%; font-size: 9px;&quot;&gt;GroupsStore&lt;br&gt;&lt;i style=&quot;background-color: initial; font-size: 12px;&quot;&gt;&lt;font style=&quot;font-size: 7px;&quot;&gt;&amp;lt;&amp;lt;Out port&amp;gt;&amp;gt;&lt;/font&gt;&lt;/i&gt;&lt;/div&gt;" style="rounded=0;whiteSpace=wrap;html=1;align=center;" parent="rcTnWR7vJVmOpkNNzQWF-1" vertex="1">
          <mxGeometry x="517" y="420" width="60" height="30" as="geometry" />
        </mxCell>
        <mxCell id="rcTnWR7vJVmOpkNNzQWF-36" value="&lt;div style=&quot;line-height: 90%; font-size: 9px;&quot;&gt;Notifications&lt;/div&gt;&lt;div style=&quot;line-height: 90%; font-size: 9px;&quot;&gt;Service&lt;br&gt;&lt;i style=&quot;background-color: initial; font-size: 12px;&quot;&gt;&lt;font style=&quot;font-size: 7px;&quot;&gt;&amp;lt;&amp;lt;In port&amp;gt;&amp;gt;&lt;/font&gt;&lt;/i&gt;&lt;/div&gt;" style="rounded=0;whiteSpace=wrap;html=1;align=center;" parent="rcTnWR7vJVmOpkNNzQWF-1" vertex="1">
          <mxGeometry x="573" y="384.5" width="60" height="30" as="geometry" />
        </mxCell>
        <mxCell id="rcTnWR7vJVmOpkNNzQWF-38" value="&lt;div style=&quot;line-height: 110%; font-size: 9px;&quot;&gt;RabbitMQ Adapter&lt;/div&gt;" style="rounded=0;whiteSpace=wrap;html=1;align=center;" parent="rcTnWR7vJVmOpkNNzQWF-1" vertex="1">
          <mxGeometry x="637" y="714.5" width="60" height="25" as="geometry" />
        </mxCell>
        <mxCell id="rcTnWR7vJVmOpkNNzQWF-40" value="&lt;div style=&quot;line-height: 90%; font-size: 9px;&quot;&gt;Mail Service&lt;/div&gt;&lt;div style=&quot;line-height: 90%; font-size: 9px;&quot;&gt;&lt;i style=&quot;background-color: initial; font-size: 12px;&quot;&gt;&lt;font style=&quot;font-size: 7px;&quot;&gt;&amp;lt;&amp;lt;Out port&amp;gt;&amp;gt;&lt;/font&gt;&lt;/i&gt;&lt;/div&gt;" style="rounded=0;whiteSpace=wrap;html=1;align=center;" parent="rcTnWR7vJVmOpkNNzQWF-1" vertex="1">
          <mxGeometry x="451" y="323" width="60" height="30" as="geometry" />
        </mxCell>
        <mxCell id="rcTnWR7vJVmOpkNNzQWF-41" value="&lt;div style=&quot;line-height: 90%; font-size: 9px;&quot;&gt;Push Service&lt;/div&gt;&lt;div style=&quot;line-height: 90%; font-size: 9px;&quot;&gt;&lt;i style=&quot;background-color: initial; font-size: 12px;&quot;&gt;&lt;font style=&quot;font-size: 7px;&quot;&gt;&amp;lt;&amp;lt;Out port&amp;gt;&amp;gt;&lt;/font&gt;&lt;/i&gt;&lt;/div&gt;" style="rounded=0;whiteSpace=wrap;html=1;align=center;" parent="rcTnWR7vJVmOpkNNzQWF-1" vertex="1">
          <mxGeometry x="451" y="383" width="60" height="30" as="geometry" />
        </mxCell>
        <mxCell id="rcTnWR7vJVmOpkNNzQWF-42" value="&lt;span style=&quot;font-size: 11px;&quot;&gt;&lt;b&gt;Location&lt;br&gt;Service&lt;/b&gt;&lt;/span&gt;" style="shape=hexagon;perimeter=hexagonPerimeter2;whiteSpace=wrap;html=1;fixedSize=1;fillColor=#E8EDFC;strokeColor=#99A7BF;size=30;" parent="rcTnWR7vJVmOpkNNzQWF-1" vertex="1">
          <mxGeometry x="523.0499999999998" y="125.99999999999999" width="140" height="120" as="geometry" />
        </mxCell>
        <mxCell id="rcTnWR7vJVmOpkNNzQWF-44" value="&lt;div style=&quot;line-height: 90%; font-size: 9px;&quot;&gt;RealTimeTracking Service&lt;/div&gt;&lt;div style=&quot;line-height: 90%; font-size: 9px;&quot;&gt;&lt;i style=&quot;background-color: initial; font-size: 12px;&quot;&gt;&lt;font style=&quot;font-size: 7px;&quot;&gt;&amp;lt;&amp;lt;In port&amp;gt;&amp;gt;&lt;/font&gt;&lt;/i&gt;&lt;/div&gt;" style="rounded=0;whiteSpace=wrap;html=1;align=center;" parent="rcTnWR7vJVmOpkNNzQWF-1" vertex="1">
          <mxGeometry x="506.9999999999999" y="137.87" width="79" height="30" as="geometry" />
        </mxCell>
        <mxCell id="rcTnWR7vJVmOpkNNzQWF-45" value="&lt;div style=&quot;line-height: 90%; font-size: 9px;&quot;&gt;UserTrackingInfo Service&lt;/div&gt;&lt;div style=&quot;line-height: 90%; font-size: 9px;&quot;&gt;&lt;i style=&quot;background-color: initial; font-size: 12px;&quot;&gt;&lt;font style=&quot;font-size: 7px;&quot;&gt;&amp;lt;&amp;lt;In port&amp;gt;&amp;gt;&lt;/font&gt;&lt;/i&gt;&lt;/div&gt;" style="rounded=0;whiteSpace=wrap;html=1;align=center;" parent="rcTnWR7vJVmOpkNNzQWF-1" vertex="1">
          <mxGeometry x="553.5499999999998" y="234.00000000000006" width="79" height="30" as="geometry" />
        </mxCell>
        <mxCell id="rcTnWR7vJVmOpkNNzQWF-46" value="&lt;div style=&quot;line-height: 110%; font-size: 9px;&quot;&gt;gRPC&lt;/div&gt;&lt;div style=&quot;line-height: 110%; font-size: 9px;&quot;&gt;Adapter&lt;/div&gt;" style="rounded=0;whiteSpace=wrap;html=1;align=center;" parent="rcTnWR7vJVmOpkNNzQWF-1" vertex="1">
          <mxGeometry x="462.9999999999999" y="236.50000000000003" width="60" height="25" as="geometry" />
        </mxCell>
        <mxCell id="rcTnWR7vJVmOpkNNzQWF-47" style="rounded=0;orthogonalLoop=1;jettySize=auto;html=1;exitX=1;exitY=0.5;exitDx=0;exitDy=0;entryX=0;entryY=0.5;entryDx=0;entryDy=0;endArrow=openThin;endFill=0;dashed=1;" parent="rcTnWR7vJVmOpkNNzQWF-1" source="rcTnWR7vJVmOpkNNzQWF-46" target="rcTnWR7vJVmOpkNNzQWF-45" edge="1">
          <mxGeometry relative="1" as="geometry" />
        </mxCell>
        <mxCell id="rcTnWR7vJVmOpkNNzQWF-50" value="&lt;div style=&quot;line-height: 110%; font-size: 9px;&quot;&gt;WebSocket&lt;/div&gt;&lt;div style=&quot;line-height: 110%; font-size: 9px;&quot;&gt;Service&lt;br&gt;&lt;/div&gt;" style="rounded=0;whiteSpace=wrap;html=1;align=center;" parent="rcTnWR7vJVmOpkNNzQWF-1" vertex="1">
          <mxGeometry x="387" y="134.06" width="69" height="37.63" as="geometry" />
        </mxCell>
        <mxCell id="rcTnWR7vJVmOpkNNzQWF-51" style="rounded=0;orthogonalLoop=1;jettySize=auto;html=1;exitX=1;exitY=0.5;exitDx=0;exitDy=0;entryX=0;entryY=0.5;entryDx=0;entryDy=0;endArrow=openThin;endFill=0;dashed=1;" parent="rcTnWR7vJVmOpkNNzQWF-1" source="rcTnWR7vJVmOpkNNzQWF-50" target="rcTnWR7vJVmOpkNNzQWF-44" edge="1">
          <mxGeometry relative="1" as="geometry">
            <mxPoint x="446.04999999999984" y="237.00000000000006" as="sourcePoint" />
            <mxPoint x="448.04999999999984" y="216.00000000000003" as="targetPoint" />
          </mxGeometry>
        </mxCell>
        <mxCell id="rcTnWR7vJVmOpkNNzQWF-52" value="&lt;div style=&quot;line-height: 110%; font-size: 9px;&quot;&gt;gRPC&lt;/div&gt;&lt;div style=&quot;line-height: 110%; font-size: 9px;&quot;&gt;Adapter&lt;/div&gt;" style="rounded=0;whiteSpace=wrap;html=1;align=center;" parent="rcTnWR7vJVmOpkNNzQWF-1" vertex="1">
          <mxGeometry x="585" y="508" width="60" height="25" as="geometry" />
        </mxCell>
        <mxCell id="rcTnWR7vJVmOpkNNzQWF-53" style="edgeStyle=orthogonalEdgeStyle;rounded=0;orthogonalLoop=1;jettySize=auto;html=1;exitX=1;exitY=0.5;exitDx=0;exitDy=0;entryX=0;entryY=0.5;entryDx=0;entryDy=0;endArrow=openThin;endFill=0;dashed=1;" parent="rcTnWR7vJVmOpkNNzQWF-1" source="rcTnWR7vJVmOpkNNzQWF-52" target="rcTnWR7vJVmOpkNNzQWF-28" edge="1">
          <mxGeometry relative="1" as="geometry">
            <mxPoint x="626" y="486.5" as="targetPoint" />
          </mxGeometry>
        </mxCell>
        <mxCell id="rcTnWR7vJVmOpkNNzQWF-84" value="&lt;div style=&quot;line-height: 90%; font-size: 9px;&quot;&gt;Notifications Service&lt;/div&gt;&lt;div style=&quot;line-height: 90%; font-size: 9px;&quot;&gt;&lt;i style=&quot;background-color: initial; font-size: 12px;&quot;&gt;&lt;font style=&quot;font-size: 7px;&quot;&gt;&amp;lt;&amp;lt;Out port&amp;gt;&amp;gt;&lt;/font&gt;&lt;/i&gt;&lt;/div&gt;" style="rounded=0;whiteSpace=wrap;html=1;align=center;" parent="rcTnWR7vJVmOpkNNzQWF-1" vertex="1">
          <mxGeometry x="639.0499999999998" y="180.00000000000006" width="70" height="30" as="geometry" />
        </mxCell>
        <mxCell id="rcTnWR7vJVmOpkNNzQWF-86" value="&lt;div style=&quot;line-height: 110%; font-size: 9px;&quot;&gt;RabbitMQ Adapter&lt;/div&gt;" style="rounded=0;whiteSpace=wrap;html=1;align=center;" parent="rcTnWR7vJVmOpkNNzQWF-1" vertex="1">
          <mxGeometry x="669.0499999999998" y="236.50000000000006" width="60" height="25" as="geometry" />
        </mxCell>
        <mxCell id="rcTnWR7vJVmOpkNNzQWF-87" style="rounded=0;orthogonalLoop=1;jettySize=auto;html=1;endArrow=block;endFill=0;exitX=0.5;exitY=0;exitDx=0;exitDy=0;dashed=1;entryX=0.5;entryY=1;entryDx=0;entryDy=0;" parent="rcTnWR7vJVmOpkNNzQWF-1" source="rcTnWR7vJVmOpkNNzQWF-86" target="rcTnWR7vJVmOpkNNzQWF-84" edge="1">
          <mxGeometry relative="1" as="geometry">
            <mxPoint x="558.0499999999998" y="463.00000000000006" as="sourcePoint" />
            <mxPoint x="678.0499999999998" y="209.00000000000003" as="targetPoint" />
          </mxGeometry>
        </mxCell>
        <mxCell id="rcTnWR7vJVmOpkNNzQWF-88" value="&lt;span style=&quot;font-size: 11px;&quot;&gt;&lt;b&gt;Chat&lt;/b&gt;&lt;/span&gt;" style="shape=hexagon;perimeter=hexagonPerimeter2;whiteSpace=wrap;html=1;fixedSize=1;fillColor=#E8EDFC;strokeColor=#99A7BF;size=30;" parent="rcTnWR7vJVmOpkNNzQWF-1" vertex="1">
          <mxGeometry x="404" y="606.5" width="140" height="120" as="geometry" />
        </mxCell>
        <mxCell id="rcTnWR7vJVmOpkNNzQWF-89" value="&lt;div style=&quot;line-height: 90%; font-size: 9px;&quot;&gt;Notifications Service&lt;/div&gt;&lt;div style=&quot;line-height: 90%; font-size: 9px;&quot;&gt;&lt;i style=&quot;background-color: initial; font-size: 12px;&quot;&gt;&lt;font style=&quot;font-size: 7px;&quot;&gt;&amp;lt;&amp;lt;Out port&amp;gt;&amp;gt;&lt;/font&gt;&lt;/i&gt;&lt;/div&gt;" style="rounded=0;whiteSpace=wrap;html=1;align=center;" parent="rcTnWR7vJVmOpkNNzQWF-1" vertex="1">
          <mxGeometry x="492.5" y="678.98" width="70" height="30" as="geometry" />
        </mxCell>
        <mxCell id="rcTnWR7vJVmOpkNNzQWF-91" value="&lt;div style=&quot;line-height: 110%; font-size: 9px;&quot;&gt;RabbitMQ Adapter&lt;/div&gt;" style="rounded=0;whiteSpace=wrap;html=1;align=center;" parent="rcTnWR7vJVmOpkNNzQWF-1" vertex="1">
          <mxGeometry x="594" y="681.98" width="60" height="25" as="geometry" />
        </mxCell>
        <mxCell id="rcTnWR7vJVmOpkNNzQWF-92" style="rounded=0;orthogonalLoop=1;jettySize=auto;html=1;endArrow=block;endFill=0;exitX=0;exitY=0.5;exitDx=0;exitDy=0;dashed=1;entryX=1;entryY=0.5;entryDx=0;entryDy=0;" parent="rcTnWR7vJVmOpkNNzQWF-1" source="rcTnWR7vJVmOpkNNzQWF-91" target="rcTnWR7vJVmOpkNNzQWF-89" edge="1">
          <mxGeometry relative="1" as="geometry">
            <mxPoint x="411.5" y="961.98" as="sourcePoint" />
            <mxPoint x="531.5" y="707.98" as="targetPoint" />
          </mxGeometry>
        </mxCell>
        <mxCell id="rcTnWR7vJVmOpkNNzQWF-95" style="rounded=0;orthogonalLoop=1;jettySize=auto;html=1;exitX=0.5;exitY=0;exitDx=0;exitDy=0;entryX=0.5;entryY=1;entryDx=0;entryDy=0;endArrow=block;endFill=0;dashed=1;" parent="rcTnWR7vJVmOpkNNzQWF-1" source="rcTnWR7vJVmOpkNNzQWF-96" target="rcTnWR7vJVmOpkNNzQWF-41" edge="1">
          <mxGeometry relative="1" as="geometry">
            <mxPoint x="451" y="398.5" as="targetPoint" />
          </mxGeometry>
        </mxCell>
        <mxCell id="rcTnWR7vJVmOpkNNzQWF-96" value="&lt;div style=&quot;line-height: 90%; font-size: 9px;&quot;&gt;??? Adapter&lt;/div&gt;" style="rounded=0;whiteSpace=wrap;html=1;align=center;" parent="rcTnWR7vJVmOpkNNzQWF-1" vertex="1">
          <mxGeometry x="430" y="439" width="60" height="30" as="geometry" />
        </mxCell>
        <mxCell id="rcTnWR7vJVmOpkNNzQWF-97" value="" style="sketch=0;pointerEvents=1;shadow=0;dashed=0;html=1;strokeColor=none;labelPosition=center;verticalLabelPosition=bottom;verticalAlign=top;align=center;fillColor=#505050;shape=mxgraph.mscae.intune.intune_mobile_application_management" parent="rcTnWR7vJVmOpkNNzQWF-1" vertex="1">
          <mxGeometry x="30" y="458" width="49" height="50" as="geometry" />
        </mxCell>
        <mxCell id="rcTnWR7vJVmOpkNNzQWF-98" style="edgeStyle=orthogonalEdgeStyle;rounded=0;orthogonalLoop=1;jettySize=auto;html=1;entryX=-0.011;entryY=0.477;entryDx=0;entryDy=0;entryPerimeter=0;startArrow=block;startFill=1;" parent="rcTnWR7vJVmOpkNNzQWF-1" source="rcTnWR7vJVmOpkNNzQWF-97" target="rcTnWR7vJVmOpkNNzQWF-9" edge="1">
          <mxGeometry relative="1" as="geometry" />
        </mxCell>
        <mxCell id="JZOAptiUc46S-EjtdqYT-0" value="&lt;font style=&quot;font-size: 10px;&quot;&gt;Users, Groups&lt;/font&gt;" style="shape=cylinder3;whiteSpace=wrap;html=1;boundedLbl=1;backgroundOutline=1;size=5.774193548387103;" parent="rcTnWR7vJVmOpkNNzQWF-1" vertex="1">
          <mxGeometry x="845" y="585" width="52" height="40" as="geometry" />
        </mxCell>
        <mxCell id="JZOAptiUc46S-EjtdqYT-2" value="&lt;div style=&quot;line-height: 90%; font-size: 9px;&quot;&gt;Users&amp;amp;Groups&lt;/div&gt;&lt;div style=&quot;line-height: 90%; font-size: 9px;&quot;&gt;Store&lt;/div&gt;&lt;div style=&quot;line-height: 90%;&quot;&gt;&lt;i style=&quot;&quot;&gt;&lt;font style=&quot;font-size: 7px;&quot;&gt;&amp;lt;&amp;lt;Out port&amp;gt;&amp;gt;&lt;/font&gt;&lt;/i&gt;&lt;/div&gt;" style="rounded=0;whiteSpace=wrap;html=1;align=center;" parent="rcTnWR7vJVmOpkNNzQWF-1" vertex="1">
          <mxGeometry x="749" y="590" width="70" height="30" as="geometry" />
        </mxCell>
        <mxCell id="JZOAptiUc46S-EjtdqYT-4" value="&lt;font style=&quot;font-size: 9px;&quot;&gt;UserID&amp;nbsp;&lt;/font&gt;&lt;div style=&quot;line-height: 70%;&quot;&gt;&lt;font style=&quot;font-size: 9px;&quot;&gt;in&amp;nbsp;&lt;/font&gt;&lt;span style=&quot;font-size: 9px; background-color: initial;&quot;&gt;Groups&lt;/span&gt;&lt;/div&gt;" style="shape=cylinder3;whiteSpace=wrap;html=1;boundedLbl=1;backgroundOutline=1;size=5.774193548387103;" parent="rcTnWR7vJVmOpkNNzQWF-1" vertex="1">
          <mxGeometry x="729.05" y="137.87" width="52" height="40" as="geometry" />
        </mxCell>
        <mxCell id="JZOAptiUc46S-EjtdqYT-5" value="&lt;div style=&quot;line-height: 90%; font-size: 9px;&quot;&gt;Users&amp;amp;Groups&lt;/div&gt;&lt;div style=&quot;line-height: 90%; font-size: 9px;&quot;&gt;Store&lt;/div&gt;&lt;div style=&quot;line-height: 90%;&quot;&gt;&lt;i style=&quot;&quot;&gt;&lt;font style=&quot;font-size: 7px;&quot;&gt;&amp;lt;&amp;lt;Out port&amp;gt;&amp;gt;&lt;/font&gt;&lt;/i&gt;&lt;/div&gt;" style="rounded=0;whiteSpace=wrap;html=1;align=center;" parent="rcTnWR7vJVmOpkNNzQWF-1" vertex="1">
          <mxGeometry x="626.9999999999998" y="142.86999999999998" width="70" height="30" as="geometry" />
        </mxCell>
        <mxCell id="b9qrI1uqka641rMFUCyQ-0" value="&lt;font style=&quot;font-size: 9px;&quot;&gt;UserID&amp;nbsp;&lt;/font&gt;&lt;div style=&quot;line-height: 70%;&quot;&gt;&lt;font style=&quot;font-size: 9px;&quot;&gt;in&amp;nbsp;&lt;/font&gt;&lt;span style=&quot;font-size: 9px; background-color: initial;&quot;&gt;Groups&lt;/span&gt;&lt;/div&gt;" style="shape=cylinder3;whiteSpace=wrap;html=1;boundedLbl=1;backgroundOutline=1;size=5.774193548387103;" parent="rcTnWR7vJVmOpkNNzQWF-1" vertex="1">
          <mxGeometry x="392" y="733" width="52" height="40" as="geometry" />
        </mxCell>
        <mxCell id="b9qrI1uqka641rMFUCyQ-1" value="&lt;div style=&quot;line-height: 90%; font-size: 9px;&quot;&gt;Users&amp;amp;Groups&lt;/div&gt;&lt;div style=&quot;line-height: 90%; font-size: 9px;&quot;&gt;Store&lt;/div&gt;&lt;div style=&quot;line-height: 90%;&quot;&gt;&lt;i style=&quot;&quot;&gt;&lt;font style=&quot;font-size: 7px;&quot;&gt;&amp;lt;&amp;lt;Out port&amp;gt;&amp;gt;&lt;/font&gt;&lt;/i&gt;&lt;/div&gt;" style="rounded=0;whiteSpace=wrap;html=1;align=center;" parent="rcTnWR7vJVmOpkNNzQWF-1" vertex="1">
          <mxGeometry x="383" y="676.98" width="70" height="30" as="geometry" />
        </mxCell>
        <mxCell id="JZOAptiUc46S-EjtdqYT-6" style="rounded=0;orthogonalLoop=1;jettySize=auto;html=1;exitX=0;exitY=0.5;exitDx=0;exitDy=0;exitPerimeter=0;entryX=1;entryY=0.5;entryDx=0;entryDy=0;endArrow=block;endFill=0;dashed=1;" parent="rcTnWR7vJVmOpkNNzQWF-1" source="JZOAptiUc46S-EjtdqYT-4" target="JZOAptiUc46S-EjtdqYT-5" edge="1">
          <mxGeometry relative="1" as="geometry">
            <mxPoint x="209.05000000000007" y="565.5" as="sourcePoint" />
            <mxPoint x="209.05000000000007" y="606.5" as="targetPoint" />
          </mxGeometry>
        </mxCell>
        <mxCell id="b9qrI1uqka641rMFUCyQ-8" value="&lt;div style=&quot;line-height: 90%; font-size: 9px;&quot;&gt;Group Change&lt;/div&gt;&lt;div style=&quot;line-height: 90%; font-size: 9px;&quot;&gt;&lt;i style=&quot;background-color: initial; font-size: 12px;&quot;&gt;&lt;font style=&quot;font-size: 7px;&quot;&gt;&amp;lt;&amp;lt;In port&amp;gt;&amp;gt;&lt;/font&gt;&lt;/i&gt;&lt;/div&gt;" style="rounded=0;whiteSpace=wrap;html=1;align=center;" parent="rcTnWR7vJVmOpkNNzQWF-1" vertex="1">
          <mxGeometry x="585" y="333" width="60" height="30" as="geometry" />
        </mxCell>
        <mxCell id="JZOAptiUc46S-EjtdqYT-18" value="&lt;div style=&quot;line-height: 90%; font-size: 9px;&quot;&gt;Group Change&lt;/div&gt;&lt;div style=&quot;line-height: 90%; font-size: 9px;&quot;&gt;&lt;i style=&quot;background-color: initial; font-size: 12px;&quot;&gt;&lt;font style=&quot;font-size: 7px;&quot;&gt;&amp;lt;&amp;lt;In port&amp;gt;&amp;gt;&lt;/font&gt;&lt;/i&gt;&lt;/div&gt;" style="rounded=0;whiteSpace=wrap;html=1;align=center;" parent="rcTnWR7vJVmOpkNNzQWF-1" vertex="1">
          <mxGeometry x="495.5" y="190.5" width="60" height="30" as="geometry" />
        </mxCell>
        <mxCell id="b9qrI1uqka641rMFUCyQ-9" value="&lt;div style=&quot;line-height: 90%; font-size: 9px;&quot;&gt;Group Change&lt;/div&gt;&lt;div style=&quot;line-height: 90%; font-size: 9px;&quot;&gt;&lt;i style=&quot;background-color: initial; font-size: 12px;&quot;&gt;&lt;font style=&quot;font-size: 7px;&quot;&gt;&amp;lt;&amp;lt;In port&amp;gt;&amp;gt;&lt;/font&gt;&lt;/i&gt;&lt;/div&gt;" style="rounded=0;whiteSpace=wrap;html=1;align=center;" parent="rcTnWR7vJVmOpkNNzQWF-1" vertex="1">
          <mxGeometry x="374" y="616.5" width="60" height="30" as="geometry" />
        </mxCell>
        <mxCell id="k1tRHLwZ-OhnQ91EU8sy-1" style="rounded=0;orthogonalLoop=1;jettySize=auto;html=1;exitX=0.5;exitY=0;exitDx=0;exitDy=0;dashed=1;endArrow=block;endFill=0;exitPerimeter=0;entryX=0.5;entryY=1;entryDx=0;entryDy=0;" parent="rcTnWR7vJVmOpkNNzQWF-1" source="b9qrI1uqka641rMFUCyQ-0" target="b9qrI1uqka641rMFUCyQ-1" edge="1">
          <mxGeometry relative="1" as="geometry">
            <mxPoint x="394.89" y="706.98" as="targetPoint" />
            <mxPoint x="394.89" y="725.98" as="sourcePoint" />
          </mxGeometry>
        </mxCell>
        <mxCell id="k1tRHLwZ-OhnQ91EU8sy-2" style="edgeStyle=orthogonalEdgeStyle;rounded=0;orthogonalLoop=1;jettySize=auto;html=1;exitX=0;exitY=0.5;exitDx=0;exitDy=0;dashed=1;endArrow=block;endFill=0;exitPerimeter=0;entryX=1;entryY=0.5;entryDx=0;entryDy=0;" parent="rcTnWR7vJVmOpkNNzQWF-1" source="JZOAptiUc46S-EjtdqYT-0" target="JZOAptiUc46S-EjtdqYT-2" edge="1">
          <mxGeometry relative="1" as="geometry">
            <mxPoint x="819" y="629.5" as="targetPoint" />
            <mxPoint x="819" y="648.5" as="sourcePoint" />
          </mxGeometry>
        </mxCell>
        <mxCell id="wlJmWbNq9CCi5XHGVHEU-0" value="" style="group" parent="rcTnWR7vJVmOpkNNzQWF-1" vertex="1" connectable="0">
          <mxGeometry x="890" y="340" width="200" height="185.5" as="geometry" />
        </mxCell>
        <mxCell id="rcTnWR7vJVmOpkNNzQWF-4" value="" style="rounded=1;whiteSpace=wrap;html=1;fillColor=#f5f5f5;fontColor=#333333;strokeColor=#666666;" parent="wlJmWbNq9CCi5XHGVHEU-0" vertex="1">
          <mxGeometry width="200" height="185.5" as="geometry" />
        </mxCell>
        <mxCell id="rcTnWR7vJVmOpkNNzQWF-5" value="" style="rounded=1;whiteSpace=wrap;html=1;" parent="wlJmWbNq9CCi5XHGVHEU-0" vertex="1">
          <mxGeometry x="10" y="20" width="80" height="155.5" as="geometry" />
        </mxCell>
        <mxCell id="rcTnWR7vJVmOpkNNzQWF-6" value="" style="rounded=1;whiteSpace=wrap;html=1;" parent="wlJmWbNq9CCi5XHGVHEU-0" vertex="1">
          <mxGeometry x="110" y="20" width="80" height="155.5" as="geometry" />
        </mxCell>
        <mxCell id="rcTnWR7vJVmOpkNNzQWF-11" value="&lt;b&gt;&lt;font style=&quot;font-size: 11px;&quot;&gt;Message Broker&lt;/font&gt;&lt;/b&gt;" style="text;html=1;align=center;verticalAlign=middle;whiteSpace=wrap;rounded=0;" parent="wlJmWbNq9CCi5XHGVHEU-0" vertex="1">
          <mxGeometry x="15" y="2" width="170" height="15" as="geometry" />
        </mxCell>
        <mxCell id="rcTnWR7vJVmOpkNNzQWF-13" style="edgeStyle=orthogonalEdgeStyle;rounded=0;orthogonalLoop=1;jettySize=auto;html=1;exitX=0;exitY=0.5;exitDx=0;exitDy=0;elbow=vertical;curved=1;endArrow=open;endFill=0;" parent="wlJmWbNq9CCi5XHGVHEU-0" source="rcTnWR7vJVmOpkNNzQWF-14" target="rcTnWR7vJVmOpkNNzQWF-17" edge="1">
          <mxGeometry relative="1" as="geometry" />
        </mxCell>
        <mxCell id="rcTnWR7vJVmOpkNNzQWF-14" value="&lt;font size=&quot;1&quot; face=&quot;Tahoma&quot; style=&quot;&quot;&gt;&lt;b style=&quot;font-size: 9px;&quot;&gt;groups-events&lt;/b&gt;&lt;/font&gt;" style="rounded=1;whiteSpace=wrap;html=1;" parent="wlJmWbNq9CCi5XHGVHEU-0" vertex="1">
          <mxGeometry x="116.25" y="56" width="65.5" height="30" as="geometry" />
        </mxCell>
        <mxCell id="JZOAptiUc46S-EjtdqYT-12" style="edgeStyle=orthogonalEdgeStyle;rounded=0;orthogonalLoop=1;jettySize=auto;html=1;entryX=0;entryY=0.5;entryDx=0;entryDy=0;curved=1;endArrow=none;endFill=0;startArrow=open;startFill=0;" parent="wlJmWbNq9CCi5XHGVHEU-0" source="rcTnWR7vJVmOpkNNzQWF-15" target="rcTnWR7vJVmOpkNNzQWF-14" edge="1">
          <mxGeometry relative="1" as="geometry" />
        </mxCell>
        <mxCell id="rcTnWR7vJVmOpkNNzQWF-15" value="" style="sketch=0;outlineConnect=0;fontColor=#232F3E;gradientColor=none;strokeColor=#232F3E;fillColor=#ffffff;dashed=0;verticalLabelPosition=bottom;verticalAlign=top;align=center;html=1;fontSize=12;fontStyle=0;aspect=fixed;shape=mxgraph.aws4.resourceIcon;resIcon=mxgraph.aws4.queue;" parent="wlJmWbNq9CCi5XHGVHEU-0" vertex="1">
          <mxGeometry x="20" y="89" width="40" height="40" as="geometry" />
        </mxCell>
        <mxCell id="rcTnWR7vJVmOpkNNzQWF-16" value="&lt;font size=&quot;1&quot; style=&quot;&quot;&gt;&lt;i style=&quot;font-size: 8px;&quot;&gt;In&lt;/i&gt;&lt;/font&gt;" style="text;html=1;align=center;verticalAlign=middle;whiteSpace=wrap;rounded=0;" parent="wlJmWbNq9CCi5XHGVHEU-0" vertex="1">
          <mxGeometry x="129" y="162.5" width="40" height="10" as="geometry" />
        </mxCell>
        <mxCell id="rcTnWR7vJVmOpkNNzQWF-17" value="" style="sketch=0;outlineConnect=0;fontColor=#232F3E;gradientColor=none;strokeColor=#232F3E;fillColor=#ffffff;dashed=0;verticalLabelPosition=bottom;verticalAlign=top;align=center;html=1;fontSize=12;fontStyle=0;aspect=fixed;shape=mxgraph.aws4.resourceIcon;resIcon=mxgraph.aws4.queue;" parent="wlJmWbNq9CCi5XHGVHEU-0" vertex="1">
          <mxGeometry x="20" y="59" width="40" height="40" as="geometry" />
        </mxCell>
        <mxCell id="rcTnWR7vJVmOpkNNzQWF-18" style="edgeStyle=orthogonalEdgeStyle;rounded=0;orthogonalLoop=1;jettySize=auto;html=1;exitX=0;exitY=0.5;exitDx=0;exitDy=0;endArrow=open;endFill=0;" parent="wlJmWbNq9CCi5XHGVHEU-0" source="rcTnWR7vJVmOpkNNzQWF-19" target="rcTnWR7vJVmOpkNNzQWF-21" edge="1">
          <mxGeometry relative="1" as="geometry" />
        </mxCell>
        <mxCell id="rcTnWR7vJVmOpkNNzQWF-19" value="&lt;font size=&quot;1&quot; face=&quot;Tahoma&quot; style=&quot;&quot;&gt;&lt;b style=&quot;font-size: 9px;&quot;&gt;notifications&lt;/b&gt;&lt;/font&gt;" style="rounded=1;whiteSpace=wrap;html=1;" parent="wlJmWbNq9CCi5XHGVHEU-0" vertex="1">
          <mxGeometry x="117.25" y="125.5" width="65.5" height="30" as="geometry" />
        </mxCell>
        <mxCell id="rcTnWR7vJVmOpkNNzQWF-21" value="" style="sketch=0;outlineConnect=0;fontColor=#232F3E;gradientColor=none;strokeColor=#232F3E;fillColor=#ffffff;dashed=0;verticalLabelPosition=bottom;verticalAlign=top;align=center;html=1;fontSize=12;fontStyle=0;aspect=fixed;shape=mxgraph.aws4.resourceIcon;resIcon=mxgraph.aws4.queue;" parent="wlJmWbNq9CCi5XHGVHEU-0" vertex="1">
          <mxGeometry x="20" y="120.5" width="40" height="40" as="geometry" />
        </mxCell>
        <mxCell id="rcTnWR7vJVmOpkNNzQWF-35" value="&lt;font size=&quot;1&quot; style=&quot;&quot;&gt;&lt;i style=&quot;font-size: 8px;&quot;&gt;Out&lt;/i&gt;&lt;/font&gt;" style="text;html=1;align=center;verticalAlign=middle;whiteSpace=wrap;rounded=0;" parent="wlJmWbNq9CCi5XHGVHEU-0" vertex="1">
          <mxGeometry x="30" y="162.5" width="40" height="10" as="geometry" />
        </mxCell>
        <mxCell id="JZOAptiUc46S-EjtdqYT-10" value="" style="sketch=0;outlineConnect=0;fontColor=#232F3E;gradientColor=none;strokeColor=#232F3E;fillColor=#ffffff;dashed=0;verticalLabelPosition=bottom;verticalAlign=top;align=center;html=1;fontSize=12;fontStyle=0;aspect=fixed;shape=mxgraph.aws4.resourceIcon;resIcon=mxgraph.aws4.queue;" parent="wlJmWbNq9CCi5XHGVHEU-0" vertex="1">
          <mxGeometry x="20" y="29" width="40" height="40" as="geometry" />
        </mxCell>
        <mxCell id="JZOAptiUc46S-EjtdqYT-13" style="edgeStyle=orthogonalEdgeStyle;rounded=0;orthogonalLoop=1;jettySize=auto;html=1;entryX=0;entryY=0.5;entryDx=0;entryDy=0;curved=1;endArrow=none;endFill=0;startArrow=open;startFill=0;" parent="wlJmWbNq9CCi5XHGVHEU-0" source="JZOAptiUc46S-EjtdqYT-10" target="rcTnWR7vJVmOpkNNzQWF-14" edge="1">
          <mxGeometry relative="1" as="geometry">
            <mxPoint x="70" y="119" as="sourcePoint" />
            <mxPoint x="126" y="81" as="targetPoint" />
          </mxGeometry>
        </mxCell>
        <mxCell id="wlJmWbNq9CCi5XHGVHEU-1" style="rounded=0;orthogonalLoop=1;jettySize=auto;html=1;entryX=0;entryY=0.5;entryDx=0;entryDy=0;exitX=1;exitY=0.5;exitDx=0;exitDy=0;dashed=1;dashPattern=1 2;endArrow=openThin;endFill=0;" parent="rcTnWR7vJVmOpkNNzQWF-1" source="rcTnWR7vJVmOpkNNzQWF-9" target="rcTnWR7vJVmOpkNNzQWF-46" edge="1">
          <mxGeometry relative="1" as="geometry">
            <mxPoint x="236" y="529" as="sourcePoint" />
            <mxPoint x="815" y="531" as="targetPoint" />
          </mxGeometry>
        </mxCell>
        <mxCell id="wlJmWbNq9CCi5XHGVHEU-2" value="&lt;font style=&quot;font-size: 9px;&quot;&gt;gRPC&lt;/font&gt;" style="edgeLabel;html=1;align=center;verticalAlign=middle;resizable=0;points=[];" parent="wlJmWbNq9CCi5XHGVHEU-1" vertex="1" connectable="0">
          <mxGeometry x="-0.0367" y="1" relative="1" as="geometry">
            <mxPoint as="offset" />
          </mxGeometry>
        </mxCell>
        <mxCell id="EEsxTB76VpD6UccGH9Ay-0" value="Notification" style="ellipse;whiteSpace=wrap;html=1;aspect=fixed;" parent="rcTnWR7vJVmOpkNNzQWF-1" vertex="1">
          <mxGeometry x="420" y="930" width="80" height="80" as="geometry" />
        </mxCell>
        <mxCell id="EEsxTB76VpD6UccGH9Ay-1" value="User" style="ellipse;whiteSpace=wrap;html=1;aspect=fixed;" parent="rcTnWR7vJVmOpkNNzQWF-1" vertex="1">
          <mxGeometry x="599" y="1100" width="80" height="80" as="geometry" />
        </mxCell>
        <mxCell id="EEsxTB76VpD6UccGH9Ay-7" style="rounded=0;orthogonalLoop=1;jettySize=auto;html=1;entryX=0.5;entryY=1;entryDx=0;entryDy=0;startArrow=none;startFill=0;endArrow=none;endFill=0;" parent="rcTnWR7vJVmOpkNNzQWF-1" source="EEsxTB76VpD6UccGH9Ay-2" target="EEsxTB76VpD6UccGH9Ay-5" edge="1">
          <mxGeometry relative="1" as="geometry" />
        </mxCell>
        <mxCell id="EEsxTB76VpD6UccGH9Ay-2" value="Groups" style="ellipse;whiteSpace=wrap;html=1;aspect=fixed;" parent="rcTnWR7vJVmOpkNNzQWF-1" vertex="1">
          <mxGeometry x="456" y="1150" width="80" height="80" as="geometry" />
        </mxCell>
        <mxCell id="EEsxTB76VpD6UccGH9Ay-3" value="Chat" style="ellipse;whiteSpace=wrap;html=1;aspect=fixed;" parent="rcTnWR7vJVmOpkNNzQWF-1" vertex="1">
          <mxGeometry x="589.05" y="960" width="80" height="80" as="geometry" />
        </mxCell>
        <mxCell id="EEsxTB76VpD6UccGH9Ay-6" style="rounded=0;orthogonalLoop=1;jettySize=auto;html=1;entryX=0;entryY=0.5;entryDx=0;entryDy=0;endArrow=none;endFill=0;" parent="rcTnWR7vJVmOpkNNzQWF-1" source="EEsxTB76VpD6UccGH9Ay-4" target="EEsxTB76VpD6UccGH9Ay-5" edge="1">
          <mxGeometry relative="1" as="geometry" />
        </mxCell>
        <mxCell id="EEsxTB76VpD6UccGH9Ay-4" value="Location" style="ellipse;whiteSpace=wrap;html=1;aspect=fixed;" parent="rcTnWR7vJVmOpkNNzQWF-1" vertex="1">
          <mxGeometry x="354" y="1050" width="80" height="80" as="geometry" />
        </mxCell>
        <mxCell id="EEsxTB76VpD6UccGH9Ay-5" value="Shared Kernel" style="rounded=1;whiteSpace=wrap;html=1;" parent="rcTnWR7vJVmOpkNNzQWF-1" vertex="1">
          <mxGeometry x="486" y="1070" width="91" height="30" as="geometry" />
        </mxCell>
      </root>
    </mxGraphModel>
  </diagram>
  <diagram id="1jOay7dbN9XTBuHlDzDv" name="Location Service">
    <mxGraphModel dx="821" dy="594" grid="1" gridSize="10" guides="1" tooltips="1" connect="1" arrows="1" fold="1" page="1" pageScale="1" pageWidth="1169" pageHeight="827" math="0" shadow="0">
      <root>
        <mxCell id="0" />
        <mxCell id="1" parent="0" />
        <mxCell id="f-dwd3AxqJhTK_1-yqeD-45" value="&lt;div style=&quot;line-height: 70%;&quot;&gt;&lt;br&gt;&lt;/div&gt;&lt;div style=&quot;line-height: 70%;&quot;&gt;&lt;br&gt;&lt;/div&gt;&lt;div style=&quot;line-height: 70%;&quot;&gt;&lt;br&gt;&lt;/div&gt;&lt;div style=&quot;line-height: 70%;&quot;&gt;&lt;br&gt;&lt;/div&gt;&lt;div style=&quot;line-height: 70%;&quot;&gt;&lt;br&gt;&lt;/div&gt;&lt;div style=&quot;line-height: 70%;&quot;&gt;&lt;br&gt;&lt;/div&gt;&lt;div style=&quot;line-height: 70%;&quot;&gt;&lt;br&gt;&lt;/div&gt;&lt;div style=&quot;line-height: 70%;&quot;&gt;&lt;br&gt;&lt;/div&gt;&lt;div style=&quot;line-height: 70%;&quot;&gt;&lt;br&gt;&lt;/div&gt;&lt;div style=&quot;line-height: 70%;&quot;&gt;&lt;br&gt;&lt;/div&gt;&lt;div style=&quot;line-height: 70%;&quot;&gt;&lt;span style=&quot;background-color: initial;&quot;&gt;&lt;br&gt;&lt;/span&gt;&lt;/div&gt;&lt;div style=&quot;line-height: 70%;&quot;&gt;&lt;span style=&quot;background-color: initial;&quot;&gt;&lt;font style=&quot;font-size: 8px;&quot;&gt;&lt;br&gt;&lt;/font&gt;&lt;/span&gt;&lt;/div&gt;&lt;div style=&quot;line-height: 70%;&quot;&gt;&lt;span style=&quot;background-color: initial;&quot;&gt;&lt;font style=&quot;font-size: 8px;&quot;&gt;&lt;br&gt;&lt;/font&gt;&lt;/span&gt;&lt;/div&gt;&lt;div style=&quot;line-height: 70%;&quot;&gt;&lt;span style=&quot;background-color: initial;&quot;&gt;&lt;font style=&quot;font-size: 8px;&quot;&gt;&lt;br&gt;&lt;/font&gt;&lt;/span&gt;&lt;/div&gt;&lt;div style=&quot;line-height: 70%;&quot;&gt;&lt;br&gt;&lt;/div&gt;&lt;div style=&quot;line-height: 70%;&quot;&gt;&lt;span style=&quot;background-color: initial;&quot;&gt;&lt;font style=&quot;font-size: 8px;&quot;&gt;&lt;br&gt;&lt;/font&gt;&lt;/span&gt;&lt;/div&gt;&lt;div style=&quot;line-height: 70%;&quot;&gt;&lt;span style=&quot;background-color: initial;&quot;&gt;&lt;font style=&quot;font-size: 8px;&quot;&gt;&lt;br&gt;&lt;/font&gt;&lt;/span&gt;&lt;/div&gt;&lt;div style=&quot;line-height: 70%;&quot;&gt;&lt;span style=&quot;background-color: initial;&quot;&gt;&lt;font style=&quot;font-size: 8px;&quot;&gt;&lt;br&gt;&lt;/font&gt;&lt;/span&gt;&lt;/div&gt;&lt;div style=&quot;line-height: 70%;&quot;&gt;&lt;span style=&quot;background-color: initial;&quot;&gt;&lt;font style=&quot;font-size: 8px;&quot;&gt;Akka Cluster Sharding:&lt;/font&gt;&lt;/span&gt;&lt;br&gt;&lt;/div&gt;&lt;div style=&quot;line-height: 70%;&quot;&gt;&lt;span style=&quot;background-color: initial;&quot;&gt;&lt;font style=&quot;font-size: 8px;&quot;&gt;- Akka manages trasparently (re-)allocation&lt;/font&gt;&lt;/span&gt;&lt;/div&gt;&lt;div style=&quot;line-height: 70%;&quot;&gt;&lt;span style=&quot;background-color: initial;&quot;&gt;&lt;font style=&quot;font-size: 8px;&quot;&gt;- Event sourcing for storage&lt;/font&gt;&lt;/span&gt;&lt;/div&gt;&lt;div style=&quot;line-height: 70%;&quot;&gt;&lt;span style=&quot;background-color: initial;&quot;&gt;&lt;font style=&quot;font-size: 8px;&quot;&gt;- One actor per user: no problem in terms of resources, since thousands of actors can be created per application instance, moreover automatic passivation turn off&amp;nbsp;&lt;/font&gt;&lt;/span&gt;&lt;/div&gt;&lt;div style=&quot;line-height: 70%;&quot;&gt;&lt;span style=&quot;background-color: initial;&quot;&gt;&lt;font style=&quot;font-size: 8px;&quot;&gt;(in a transparent way) reduces resource usage&lt;/font&gt;&lt;/span&gt;&lt;/div&gt;" style="rounded=1;whiteSpace=wrap;html=1;arcSize=10;" vertex="1" parent="1">
          <mxGeometry x="806.49" y="434" width="304.5" height="230" as="geometry" />
        </mxCell>
        <mxCell id="j3OCCeVIRaMCaLWhUBV3-1" value="&lt;span style=&quot;font-size: 9px;&quot;&gt;Location Service&lt;/span&gt;" style="shape=hexagon;perimeter=hexagonPerimeter2;whiteSpace=wrap;html=1;fixedSize=1;fillColor=#E8EDFC;strokeColor=#99A7BF;size=40.52999999999997;" vertex="1" parent="1">
          <mxGeometry x="105.46" y="184" width="167.64" height="137.38" as="geometry" />
        </mxCell>
        <mxCell id="j3OCCeVIRaMCaLWhUBV3-81" value="" style="shape=callout;whiteSpace=wrap;html=1;perimeter=calloutPerimeter;rotation=90;position2=0;size=56;position=0.08;base=31;" vertex="1" parent="1">
          <mxGeometry x="193.83" y="327.14" width="456.65" height="363.38" as="geometry" />
        </mxCell>
        <mxCell id="j3OCCeVIRaMCaLWhUBV3-78" style="edgeStyle=orthogonalEdgeStyle;rounded=0;orthogonalLoop=1;jettySize=auto;html=1;exitX=0.5;exitY=1;exitDx=0;exitDy=0;entryX=0.5;entryY=0;entryDx=0;entryDy=0;" edge="1" parent="1" source="j3OCCeVIRaMCaLWhUBV3-64" target="j3OCCeVIRaMCaLWhUBV3-72">
          <mxGeometry relative="1" as="geometry">
            <Array as="points">
              <mxPoint x="530.46" y="514" />
              <mxPoint x="452.46000000000004" y="514" />
            </Array>
          </mxGeometry>
        </mxCell>
        <mxCell id="nnRs16nGp2w-oWe0LOk7-3" style="edgeStyle=orthogonalEdgeStyle;rounded=0;orthogonalLoop=1;jettySize=auto;html=1;exitX=0.5;exitY=1;exitDx=0;exitDy=0;entryX=0.5;entryY=0;entryDx=0;entryDy=0;" edge="1" parent="1" source="c84NyB8cS1_ZuZeHqj6Z-23" target="c84NyB8cS1_ZuZeHqj6Z-67">
          <mxGeometry relative="1" as="geometry" />
        </mxCell>
        <mxCell id="c84NyB8cS1_ZuZeHqj6Z-23" value="Gateway" style="rounded=1;whiteSpace=wrap;html=1;" vertex="1" parent="1">
          <mxGeometry x="44.46" y="84" width="90" height="60" as="geometry" />
        </mxCell>
        <mxCell id="c84NyB8cS1_ZuZeHqj6Z-44" value="" style="sketch=0;pointerEvents=1;shadow=0;dashed=0;html=1;strokeColor=none;labelPosition=center;verticalLabelPosition=bottom;verticalAlign=top;align=center;fillColor=#505050;shape=mxgraph.mscae.intune.intune_mobile_application_management" vertex="1" parent="1">
          <mxGeometry x="65.46" y="4" width="49" height="50" as="geometry" />
        </mxCell>
        <mxCell id="c84NyB8cS1_ZuZeHqj6Z-45" style="edgeStyle=orthogonalEdgeStyle;rounded=0;orthogonalLoop=1;jettySize=auto;html=1;entryX=0.5;entryY=0;entryDx=0;entryDy=0;startArrow=block;startFill=1;" edge="1" parent="1" source="c84NyB8cS1_ZuZeHqj6Z-44" target="c84NyB8cS1_ZuZeHqj6Z-23">
          <mxGeometry relative="1" as="geometry" />
        </mxCell>
        <mxCell id="nnRs16nGp2w-oWe0LOk7-23" style="rounded=0;orthogonalLoop=1;jettySize=auto;html=1;exitX=0.5;exitY=1;exitDx=0;exitDy=0;entryX=0.5;entryY=0;entryDx=0;entryDy=0;" edge="1" parent="1" source="c84NyB8cS1_ZuZeHqj6Z-59" target="c84NyB8cS1_ZuZeHqj6Z-2">
          <mxGeometry relative="1" as="geometry" />
        </mxCell>
        <mxCell id="nnRs16nGp2w-oWe0LOk7-24" value="consume from" style="edgeLabel;html=1;align=center;verticalAlign=middle;resizable=0;points=[];" vertex="1" connectable="0" parent="nnRs16nGp2w-oWe0LOk7-23">
          <mxGeometry x="0.2071" y="1" relative="1" as="geometry">
            <mxPoint as="offset" />
          </mxGeometry>
        </mxCell>
        <mxCell id="c84NyB8cS1_ZuZeHqj6Z-59" value="&lt;div style=&quot;line-height: 110%; font-size: 9px;&quot;&gt;KafkaRealTime&lt;br&gt;Tracker&lt;/div&gt;" style="rounded=0;whiteSpace=wrap;html=1;align=center;" vertex="1" parent="1">
          <mxGeometry x="155.46" y="271.38" width="80" height="30" as="geometry" />
        </mxCell>
        <mxCell id="nnRs16nGp2w-oWe0LOk7-1" style="edgeStyle=orthogonalEdgeStyle;rounded=0;orthogonalLoop=1;jettySize=auto;html=1;exitX=0.354;exitY=1.004;exitDx=0;exitDy=0;entryX=0;entryY=0.5;entryDx=0;entryDy=0;exitPerimeter=0;" edge="1" parent="1" source="c84NyB8cS1_ZuZeHqj6Z-67" target="c84NyB8cS1_ZuZeHqj6Z-2">
          <mxGeometry relative="1" as="geometry" />
        </mxCell>
        <mxCell id="c84NyB8cS1_ZuZeHqj6Z-67" value="&lt;div style=&quot;line-height: 90%; font-size: 9px;&quot;&gt;&lt;span style=&quot;background-color: initial;&quot;&gt;WebSocketService&lt;/span&gt;&lt;br&gt;&lt;/div&gt;" style="rounded=0;whiteSpace=wrap;html=1;align=center;" vertex="1" parent="1">
          <mxGeometry x="44.46" y="204" width="90" height="29.5" as="geometry" />
        </mxCell>
        <mxCell id="nnRs16nGp2w-oWe0LOk7-15" value="&lt;span style=&quot;font-size: 10px;&quot;&gt;Websockets forward the event to the appropriate topic&lt;/span&gt;" style="text;html=1;align=center;verticalAlign=middle;whiteSpace=wrap;rounded=0;fillColor=default;" vertex="1" parent="1">
          <mxGeometry x="45.46" y="334" width="89" height="60" as="geometry" />
        </mxCell>
        <mxCell id="nnRs16nGp2w-oWe0LOk7-26" value="&lt;font style=&quot;font-size: 10px;&quot;&gt;Client send a&amp;nbsp;&lt;/font&gt;&lt;div&gt;&lt;font style=&quot;font-size: 10px;&quot;&gt;location update&lt;/font&gt;&lt;/div&gt;" style="text;html=1;align=center;verticalAlign=middle;whiteSpace=wrap;rounded=0;fillColor=default;" vertex="1" parent="1">
          <mxGeometry x="49.96" y="154" width="80" height="30" as="geometry" />
        </mxCell>
        <mxCell id="j3OCCeVIRaMCaLWhUBV3-2" value="" style="group" vertex="1" connectable="0" parent="1">
          <mxGeometry x="97.33999999999999" y="408" width="196.25" height="140" as="geometry" />
        </mxCell>
        <mxCell id="c84NyB8cS1_ZuZeHqj6Z-2" value="" style="rounded=1;whiteSpace=wrap;html=1;fillColor=#f5f5f5;fontColor=#333333;strokeColor=#666666;" vertex="1" parent="j3OCCeVIRaMCaLWhUBV3-2">
          <mxGeometry width="196.25" height="140" as="geometry" />
        </mxCell>
        <mxCell id="c84NyB8cS1_ZuZeHqj6Z-3" value="" style="rounded=1;whiteSpace=wrap;html=1;" vertex="1" parent="j3OCCeVIRaMCaLWhUBV3-2">
          <mxGeometry x="16.623529411764704" y="24" width="162.54117647058823" height="98" as="geometry" />
        </mxCell>
        <mxCell id="c84NyB8cS1_ZuZeHqj6Z-4" value="&lt;b&gt;&lt;font style=&quot;font-size: 11px;&quot;&gt;Kafka broker&lt;/font&gt;&lt;/b&gt;" style="text;html=1;align=center;verticalAlign=middle;whiteSpace=wrap;rounded=0;" vertex="1" parent="j3OCCeVIRaMCaLWhUBV3-2">
          <mxGeometry x="19.855882352941176" y="5" width="157" height="15" as="geometry" />
        </mxCell>
        <mxCell id="c84NyB8cS1_ZuZeHqj6Z-5" value="&lt;font size=&quot;1&quot; style=&quot;&quot;&gt;&lt;i style=&quot;font-size: 8px;&quot;&gt;Topics for groups&lt;/i&gt;&lt;/font&gt;" style="text;html=1;align=center;verticalAlign=middle;whiteSpace=wrap;rounded=0;" vertex="1" parent="j3OCCeVIRaMCaLWhUBV3-2">
          <mxGeometry x="66.49411764705881" y="109" width="63.72352941176471" height="10" as="geometry" />
        </mxCell>
        <mxCell id="c84NyB8cS1_ZuZeHqj6Z-6" value="" style="rounded=1;whiteSpace=wrap;html=1;arcSize=17;" vertex="1" parent="j3OCCeVIRaMCaLWhUBV3-2">
          <mxGeometry x="31.400000000000002" y="32" width="132.98823529411763" height="30" as="geometry" />
        </mxCell>
        <mxCell id="c84NyB8cS1_ZuZeHqj6Z-7" value="" style="rounded=1;whiteSpace=wrap;html=1;arcSize=17;" vertex="1" parent="j3OCCeVIRaMCaLWhUBV3-2">
          <mxGeometry x="31.400000000000002" y="66.5" width="132.98823529411763" height="30" as="geometry" />
        </mxCell>
        <mxCell id="c84NyB8cS1_ZuZeHqj6Z-8" value="" style="rounded=0;whiteSpace=wrap;html=1;strokeColor=#B3B3B3;" vertex="1" parent="j3OCCeVIRaMCaLWhUBV3-2">
          <mxGeometry x="37.86470588235294" y="36.5" width="120.05882352941177" height="5.5" as="geometry" />
        </mxCell>
        <mxCell id="c84NyB8cS1_ZuZeHqj6Z-9" value="" style="rounded=0;whiteSpace=wrap;html=1;strokeColor=#B3B3B3;" vertex="1" parent="j3OCCeVIRaMCaLWhUBV3-2">
          <mxGeometry x="37.86470588235294" y="44.25" width="120.05882352941177" height="5.5" as="geometry" />
        </mxCell>
        <mxCell id="c84NyB8cS1_ZuZeHqj6Z-10" value="" style="rounded=0;whiteSpace=wrap;html=1;strokeColor=#B3B3B3;" vertex="1" parent="j3OCCeVIRaMCaLWhUBV3-2">
          <mxGeometry x="37.86470588235294" y="52.75" width="120.05882352941177" height="5.5" as="geometry" />
        </mxCell>
        <mxCell id="c84NyB8cS1_ZuZeHqj6Z-11" value="" style="rounded=0;whiteSpace=wrap;html=1;strokeColor=#B3B3B3;" vertex="1" parent="j3OCCeVIRaMCaLWhUBV3-2">
          <mxGeometry x="37.86470588235294" y="70.62" width="120.05882352941177" height="5.5" as="geometry" />
        </mxCell>
        <mxCell id="c84NyB8cS1_ZuZeHqj6Z-12" value="" style="rounded=0;whiteSpace=wrap;html=1;strokeColor=#B3B3B3;" vertex="1" parent="j3OCCeVIRaMCaLWhUBV3-2">
          <mxGeometry x="37.86470588235294" y="78.37" width="120.05882352941177" height="5.5" as="geometry" />
        </mxCell>
        <mxCell id="c84NyB8cS1_ZuZeHqj6Z-13" value="" style="rounded=0;whiteSpace=wrap;html=1;strokeColor=#B3B3B3;" vertex="1" parent="j3OCCeVIRaMCaLWhUBV3-2">
          <mxGeometry x="37.86470588235294" y="86.87" width="120.05882352941177" height="5.5" as="geometry" />
        </mxCell>
        <mxCell id="c84NyB8cS1_ZuZeHqj6Z-14" value="" style="endArrow=none;dashed=1;html=1;dashPattern=1 3;strokeWidth=2;rounded=0;" edge="1" parent="j3OCCeVIRaMCaLWhUBV3-2">
          <mxGeometry width="50" height="50" relative="1" as="geometry">
            <mxPoint x="90.50588235294117" y="102" as="sourcePoint" />
            <mxPoint x="109.3551176470589" y="102" as="targetPoint" />
          </mxGeometry>
        </mxCell>
        <mxCell id="c84NyB8cS1_ZuZeHqj6Z-24" value="" style="ellipse;whiteSpace=wrap;html=1;align=center;aspect=fixed;fillColor=none;strokeColor=none;resizable=0;perimeter=centerPerimeter;rotatable=0;allowArrows=0;points=[];outlineConnect=1;" vertex="1" parent="j3OCCeVIRaMCaLWhUBV3-2">
          <mxGeometry x="112.67058823529412" y="120" width="10" height="10" as="geometry" />
        </mxCell>
        <mxCell id="j3OCCeVIRaMCaLWhUBV3-14" value="" style="rounded=0;whiteSpace=wrap;html=1;strokeColor=#B3B3B3;" vertex="1" parent="1">
          <mxGeometry x="44.46470588235294" y="772.62" width="120.05882352941177" height="5.5" as="geometry" />
        </mxCell>
        <mxCell id="j3OCCeVIRaMCaLWhUBV3-16" value="&lt;font style=&quot;font-size: 10px;&quot;&gt;Topic&lt;/font&gt;" style="text;html=1;align=center;verticalAlign=middle;whiteSpace=wrap;rounded=0;" vertex="1" parent="1">
          <mxGeometry x="170.99" y="734" width="60" height="30" as="geometry" />
        </mxCell>
        <mxCell id="j3OCCeVIRaMCaLWhUBV3-17" value="&lt;font style=&quot;font-size: 10px;&quot;&gt;Partition&lt;/font&gt;" style="text;html=1;align=center;verticalAlign=middle;whiteSpace=wrap;rounded=0;" vertex="1" parent="1">
          <mxGeometry x="170.99" y="771.87" width="60" height="6.25" as="geometry" />
        </mxCell>
        <mxCell id="j3OCCeVIRaMCaLWhUBV3-19" value="" style="group" vertex="1" connectable="0" parent="1">
          <mxGeometry x="37.999999999999964" y="734" width="132.98823529411763" height="30" as="geometry" />
        </mxCell>
        <mxCell id="j3OCCeVIRaMCaLWhUBV3-10" value="" style="rounded=1;whiteSpace=wrap;html=1;arcSize=17;" vertex="1" parent="j3OCCeVIRaMCaLWhUBV3-19">
          <mxGeometry width="132.98823529411763" height="30" as="geometry" />
        </mxCell>
        <mxCell id="j3OCCeVIRaMCaLWhUBV3-11" value="" style="rounded=0;whiteSpace=wrap;html=1;strokeColor=#B3B3B3;" vertex="1" parent="j3OCCeVIRaMCaLWhUBV3-19">
          <mxGeometry x="6.464705882352973" y="4.5" width="120.05882352941177" height="5.5" as="geometry" />
        </mxCell>
        <mxCell id="j3OCCeVIRaMCaLWhUBV3-12" value="" style="rounded=0;whiteSpace=wrap;html=1;strokeColor=#B3B3B3;" vertex="1" parent="j3OCCeVIRaMCaLWhUBV3-19">
          <mxGeometry x="6.464705882352973" y="12.25" width="120.05882352941177" height="5.5" as="geometry" />
        </mxCell>
        <mxCell id="j3OCCeVIRaMCaLWhUBV3-13" value="" style="rounded=0;whiteSpace=wrap;html=1;strokeColor=#B3B3B3;" vertex="1" parent="j3OCCeVIRaMCaLWhUBV3-19">
          <mxGeometry x="6.464705882352973" y="20.75" width="120.05882352941177" height="5.5" as="geometry" />
        </mxCell>
        <mxCell id="j3OCCeVIRaMCaLWhUBV3-20" value="" style="group" vertex="1" connectable="0" parent="1">
          <mxGeometry x="315.46000000000004" y="344" width="132.98823529411763" height="60" as="geometry" />
        </mxCell>
        <mxCell id="j3OCCeVIRaMCaLWhUBV3-21" value="" style="rounded=1;whiteSpace=wrap;html=1;arcSize=17;" vertex="1" parent="j3OCCeVIRaMCaLWhUBV3-20">
          <mxGeometry width="132.98823529411763" height="30" as="geometry" />
        </mxCell>
        <mxCell id="j3OCCeVIRaMCaLWhUBV3-22" value="" style="rounded=0;whiteSpace=wrap;html=1;strokeColor=#B3B3B3;" vertex="1" parent="j3OCCeVIRaMCaLWhUBV3-20">
          <mxGeometry x="6.464705882352973" y="4.5" width="120.05882352941177" height="5.5" as="geometry" />
        </mxCell>
        <mxCell id="j3OCCeVIRaMCaLWhUBV3-23" value="" style="rounded=0;whiteSpace=wrap;html=1;strokeColor=#B3B3B3;" vertex="1" parent="j3OCCeVIRaMCaLWhUBV3-20">
          <mxGeometry x="6.464705882352973" y="12.25" width="120.05882352941177" height="5.5" as="geometry" />
        </mxCell>
        <mxCell id="j3OCCeVIRaMCaLWhUBV3-24" value="" style="rounded=0;whiteSpace=wrap;html=1;strokeColor=#B3B3B3;" vertex="1" parent="j3OCCeVIRaMCaLWhUBV3-20">
          <mxGeometry x="6.464705882352973" y="20.75" width="120.05882352941177" height="5.5" as="geometry" />
        </mxCell>
        <mxCell id="j3OCCeVIRaMCaLWhUBV3-41" value="&lt;i&gt;&lt;font style=&quot;font-size: 8px;&quot;&gt;KStream&lt;/font&gt;&lt;/i&gt;" style="text;html=1;align=center;verticalAlign=middle;whiteSpace=wrap;rounded=0;" vertex="1" parent="j3OCCeVIRaMCaLWhUBV3-20">
          <mxGeometry x="19.74" y="30" width="90.26" height="10" as="geometry" />
        </mxCell>
        <mxCell id="j3OCCeVIRaMCaLWhUBV3-25" value="&lt;font style=&quot;font-size: 8px;&quot;&gt;sampled_locations_&amp;lt;group_id&amp;gt;&lt;br&gt;&lt;/font&gt;&lt;div style=&quot;line-height: 40%;&quot;&gt;&lt;font style=&quot;font-size: 6px;&quot;&gt;(partitioned by user_id)&lt;/font&gt;&lt;/div&gt;" style="text;html=1;align=center;verticalAlign=middle;whiteSpace=wrap;rounded=0;" vertex="1" parent="1">
          <mxGeometry x="325.20000000000005" y="314" width="113.51" height="30" as="geometry" />
        </mxCell>
        <mxCell id="j3OCCeVIRaMCaLWhUBV3-26" value="" style="group" vertex="1" connectable="0" parent="1">
          <mxGeometry x="465.46000000000004" y="318" width="132.99" height="80" as="geometry" />
        </mxCell>
        <mxCell id="j3OCCeVIRaMCaLWhUBV3-27" value="" style="rounded=1;whiteSpace=wrap;html=1;arcSize=17;" vertex="1" parent="j3OCCeVIRaMCaLWhUBV3-26">
          <mxGeometry width="132.99" height="80" as="geometry" />
        </mxCell>
        <mxCell id="j3OCCeVIRaMCaLWhUBV3-31" value="" style="rounded=0;whiteSpace=wrap;html=1;strokeColor=#B3B3B3;" vertex="1" parent="j3OCCeVIRaMCaLWhUBV3-26">
          <mxGeometry x="6.464705882352938" y="7.8700000000000045" width="120.05882352941177" height="5.5" as="geometry" />
        </mxCell>
        <mxCell id="j3OCCeVIRaMCaLWhUBV3-32" value="" style="rounded=0;whiteSpace=wrap;html=1;strokeColor=#B3B3B3;" vertex="1" parent="j3OCCeVIRaMCaLWhUBV3-26">
          <mxGeometry x="6.464705882352938" y="15.620000000000005" width="120.05882352941177" height="5.5" as="geometry" />
        </mxCell>
        <mxCell id="j3OCCeVIRaMCaLWhUBV3-33" value="" style="rounded=0;whiteSpace=wrap;html=1;strokeColor=#B3B3B3;" vertex="1" parent="j3OCCeVIRaMCaLWhUBV3-26">
          <mxGeometry x="6.464705882352938" y="24.120000000000005" width="120.05882352941177" height="5.5" as="geometry" />
        </mxCell>
        <mxCell id="j3OCCeVIRaMCaLWhUBV3-34" value="" style="rounded=0;whiteSpace=wrap;html=1;strokeColor=#B3B3B3;" vertex="1" parent="j3OCCeVIRaMCaLWhUBV3-26">
          <mxGeometry x="6.464705882352938" y="33" width="120.05882352941177" height="5.5" as="geometry" />
        </mxCell>
        <mxCell id="j3OCCeVIRaMCaLWhUBV3-35" value="" style="rounded=0;whiteSpace=wrap;html=1;strokeColor=#B3B3B3;" vertex="1" parent="j3OCCeVIRaMCaLWhUBV3-26">
          <mxGeometry x="6.464705882352938" y="40.75" width="120.05882352941177" height="5.5" as="geometry" />
        </mxCell>
        <mxCell id="j3OCCeVIRaMCaLWhUBV3-36" value="" style="rounded=0;whiteSpace=wrap;html=1;strokeColor=#B3B3B3;" vertex="1" parent="j3OCCeVIRaMCaLWhUBV3-26">
          <mxGeometry x="6.464705882352938" y="49.25" width="120.05882352941177" height="5.5" as="geometry" />
        </mxCell>
        <mxCell id="j3OCCeVIRaMCaLWhUBV3-37" value="" style="rounded=0;whiteSpace=wrap;html=1;strokeColor=#B3B3B3;" vertex="1" parent="j3OCCeVIRaMCaLWhUBV3-26">
          <mxGeometry x="6.464705882352945" y="58.25" width="120.05882352941177" height="5.5" as="geometry" />
        </mxCell>
        <mxCell id="j3OCCeVIRaMCaLWhUBV3-38" value="" style="rounded=0;whiteSpace=wrap;html=1;strokeColor=#B3B3B3;" vertex="1" parent="j3OCCeVIRaMCaLWhUBV3-26">
          <mxGeometry x="6.464705882352945" y="66" width="120.05882352941177" height="5.5" as="geometry" />
        </mxCell>
        <mxCell id="j3OCCeVIRaMCaLWhUBV3-40" value="&lt;font style=&quot;font-size: 8px;&quot;&gt;users_states&lt;/font&gt;&lt;div style=&quot;line-height: 50%;&quot;&gt;&lt;font style=&quot;font-size: 6px;&quot;&gt;(partitioned by group_id)&lt;/font&gt;&lt;/div&gt;" style="text;html=1;align=center;verticalAlign=middle;whiteSpace=wrap;rounded=0;" vertex="1" parent="1">
          <mxGeometry x="490.20000000000005" y="294" width="83.51" height="20" as="geometry" />
        </mxCell>
        <mxCell id="j3OCCeVIRaMCaLWhUBV3-54" style="edgeStyle=orthogonalEdgeStyle;rounded=0;orthogonalLoop=1;jettySize=auto;html=1;entryX=0.5;entryY=0;entryDx=0;entryDy=0;" edge="1" parent="1" source="j3OCCeVIRaMCaLWhUBV3-42" target="j3OCCeVIRaMCaLWhUBV3-65">
          <mxGeometry relative="1" as="geometry">
            <mxPoint x="531.9541176470589" y="453.20000000000005" as="targetPoint" />
            <Array as="points" />
          </mxGeometry>
        </mxCell>
        <mxCell id="j3OCCeVIRaMCaLWhUBV3-76" value="&lt;font style=&quot;font-size: 8px;&quot;&gt;&lt;i&gt;&lt;b&gt;filter and repartitioning&lt;/b&gt;&lt;/i&gt;&lt;/font&gt;" style="edgeLabel;html=1;align=center;verticalAlign=middle;resizable=0;points=[];" vertex="1" connectable="0" parent="j3OCCeVIRaMCaLWhUBV3-54">
          <mxGeometry x="0.1914" relative="1" as="geometry">
            <mxPoint y="-3" as="offset" />
          </mxGeometry>
        </mxCell>
        <mxCell id="j3OCCeVIRaMCaLWhUBV3-42" value="&lt;i&gt;&lt;font style=&quot;font-size: 8px;&quot;&gt;KTable&lt;/font&gt;&lt;/i&gt;" style="text;html=1;align=center;verticalAlign=middle;whiteSpace=wrap;rounded=0;" vertex="1" parent="1">
          <mxGeometry x="501.95000000000005" y="398" width="60" height="12" as="geometry" />
        </mxCell>
        <mxCell id="j3OCCeVIRaMCaLWhUBV3-59" value="" style="group" vertex="1" connectable="0" parent="1">
          <mxGeometry x="465.46000000000004" y="464" width="132.98823529411763" height="60" as="geometry" />
        </mxCell>
        <mxCell id="j3OCCeVIRaMCaLWhUBV3-60" value="" style="rounded=1;whiteSpace=wrap;html=1;arcSize=17;" vertex="1" parent="j3OCCeVIRaMCaLWhUBV3-59">
          <mxGeometry width="132.98823529411763" height="30" as="geometry" />
        </mxCell>
        <mxCell id="j3OCCeVIRaMCaLWhUBV3-61" value="" style="rounded=0;whiteSpace=wrap;html=1;strokeColor=#B3B3B3;" vertex="1" parent="j3OCCeVIRaMCaLWhUBV3-59">
          <mxGeometry x="6.464705882352973" y="4.5" width="120.05882352941177" height="5.5" as="geometry" />
        </mxCell>
        <mxCell id="j3OCCeVIRaMCaLWhUBV3-62" value="" style="rounded=0;whiteSpace=wrap;html=1;strokeColor=#B3B3B3;" vertex="1" parent="j3OCCeVIRaMCaLWhUBV3-59">
          <mxGeometry x="6.464705882352973" y="12.25" width="120.05882352941177" height="5.5" as="geometry" />
        </mxCell>
        <mxCell id="j3OCCeVIRaMCaLWhUBV3-63" value="" style="rounded=0;whiteSpace=wrap;html=1;strokeColor=#B3B3B3;" vertex="1" parent="j3OCCeVIRaMCaLWhUBV3-59">
          <mxGeometry x="6.464705882352973" y="20.75" width="120.05882352941177" height="5.5" as="geometry" />
        </mxCell>
        <mxCell id="j3OCCeVIRaMCaLWhUBV3-64" value="&lt;i&gt;&lt;font style=&quot;font-size: 8px;&quot;&gt;KTable&lt;/font&gt;&lt;/i&gt;" style="text;html=1;align=center;verticalAlign=middle;whiteSpace=wrap;rounded=0;" vertex="1" parent="j3OCCeVIRaMCaLWhUBV3-59">
          <mxGeometry x="19.74" y="30" width="90.26" height="10" as="geometry" />
        </mxCell>
        <mxCell id="j3OCCeVIRaMCaLWhUBV3-65" value="&lt;font style=&quot;font-size: 8px;&quot;&gt;users_states_&amp;lt;group_id&amp;gt;&lt;/font&gt;" style="text;html=1;align=center;verticalAlign=middle;whiteSpace=wrap;rounded=0;" vertex="1" parent="j3OCCeVIRaMCaLWhUBV3-59">
          <mxGeometry x="24.740000000000038" y="-20" width="83.51" height="20" as="geometry" />
        </mxCell>
        <mxCell id="j3OCCeVIRaMCaLWhUBV3-66" value="" style="group" vertex="1" connectable="0" parent="1">
          <mxGeometry x="385.46000000000004" y="534" width="132.98823529411763" height="70" as="geometry" />
        </mxCell>
        <mxCell id="j3OCCeVIRaMCaLWhUBV3-67" value="" style="rounded=1;whiteSpace=wrap;html=1;arcSize=17;" vertex="1" parent="j3OCCeVIRaMCaLWhUBV3-66">
          <mxGeometry y="20" width="132.98823529411763" height="30" as="geometry" />
        </mxCell>
        <mxCell id="j3OCCeVIRaMCaLWhUBV3-68" value="" style="rounded=0;whiteSpace=wrap;html=1;strokeColor=#B3B3B3;" vertex="1" parent="j3OCCeVIRaMCaLWhUBV3-66">
          <mxGeometry x="6.464705882352973" y="24.5" width="120.05882352941177" height="5.5" as="geometry" />
        </mxCell>
        <mxCell id="j3OCCeVIRaMCaLWhUBV3-69" value="" style="rounded=0;whiteSpace=wrap;html=1;strokeColor=#B3B3B3;" vertex="1" parent="j3OCCeVIRaMCaLWhUBV3-66">
          <mxGeometry x="6.464705882352973" y="32.25" width="120.05882352941177" height="5.5" as="geometry" />
        </mxCell>
        <mxCell id="j3OCCeVIRaMCaLWhUBV3-70" value="" style="rounded=0;whiteSpace=wrap;html=1;strokeColor=#B3B3B3;" vertex="1" parent="j3OCCeVIRaMCaLWhUBV3-66">
          <mxGeometry x="6.464705882352973" y="40.75" width="120.05882352941177" height="5.5" as="geometry" />
        </mxCell>
        <mxCell id="j3OCCeVIRaMCaLWhUBV3-71" value="&lt;i&gt;&lt;font style=&quot;font-size: 8px;&quot;&gt;KStream -- (State, Location)&lt;/font&gt;&lt;/i&gt;" style="text;html=1;align=center;verticalAlign=middle;whiteSpace=wrap;rounded=0;" vertex="1" parent="j3OCCeVIRaMCaLWhUBV3-66">
          <mxGeometry x="11.36" y="50" width="110.26" height="20" as="geometry" />
        </mxCell>
        <mxCell id="j3OCCeVIRaMCaLWhUBV3-72" value="&lt;font style=&quot;font-size: 8px;&quot;&gt;users_state_locations_&amp;lt;group_id&amp;gt;&lt;/font&gt;" style="text;html=1;align=center;verticalAlign=middle;whiteSpace=wrap;rounded=0;" vertex="1" parent="j3OCCeVIRaMCaLWhUBV3-66">
          <mxGeometry x="25.740000000000038" width="83.51" height="20" as="geometry" />
        </mxCell>
        <mxCell id="j3OCCeVIRaMCaLWhUBV3-77" style="edgeStyle=orthogonalEdgeStyle;rounded=0;orthogonalLoop=1;jettySize=auto;html=1;exitX=0.5;exitY=1;exitDx=0;exitDy=0;entryX=0.5;entryY=0;entryDx=0;entryDy=0;" edge="1" parent="1" source="j3OCCeVIRaMCaLWhUBV3-41" target="j3OCCeVIRaMCaLWhUBV3-72">
          <mxGeometry relative="1" as="geometry">
            <Array as="points">
              <mxPoint x="380.46000000000004" y="514" />
              <mxPoint x="452.46000000000004" y="514" />
            </Array>
          </mxGeometry>
        </mxCell>
        <mxCell id="j3OCCeVIRaMCaLWhUBV3-79" value="&lt;font style=&quot;font-size: 8px;&quot;&gt;&lt;b&gt;&lt;i&gt;join&lt;/i&gt;&lt;/b&gt;&lt;/font&gt;" style="edgeLabel;html=1;align=center;verticalAlign=middle;resizable=0;points=[];" vertex="1" connectable="0" parent="j3OCCeVIRaMCaLWhUBV3-77">
          <mxGeometry x="0.7513" y="-1" relative="1" as="geometry">
            <mxPoint x="8" y="-2" as="offset" />
          </mxGeometry>
        </mxCell>
        <mxCell id="j3OCCeVIRaMCaLWhUBV3-82" value="" style="strokeWidth=1;html=1;shape=mxgraph.flowchart.database;whiteSpace=wrap;" vertex="1" parent="1">
          <mxGeometry x="319.2" y="547" width="35.79" height="44" as="geometry" />
        </mxCell>
        <mxCell id="j3OCCeVIRaMCaLWhUBV3-83" style="edgeStyle=orthogonalEdgeStyle;rounded=0;orthogonalLoop=1;jettySize=auto;html=1;exitX=0;exitY=0.5;exitDx=0;exitDy=0;" edge="1" parent="1" source="j3OCCeVIRaMCaLWhUBV3-67" target="j3OCCeVIRaMCaLWhUBV3-82">
          <mxGeometry relative="1" as="geometry" />
        </mxCell>
        <mxCell id="j3OCCeVIRaMCaLWhUBV3-84" value="&lt;i style=&quot;forced-color-adjust: none; color: rgb(0, 0, 0); font-family: Helvetica; font-size: 12px; font-variant-ligatures: normal; font-variant-caps: normal; font-weight: 400; letter-spacing: normal; orphans: 2; text-align: center; text-indent: 0px; text-transform: none; widows: 2; word-spacing: 0px; -webkit-text-stroke-width: 0px; white-space: normal; background-color: rgb(251, 251, 251); text-decoration-thickness: initial; text-decoration-style: initial; text-decoration-color: initial;&quot;&gt;&lt;font style=&quot;forced-color-adjust: none; font-size: 8px;&quot;&gt;State Store&lt;/font&gt;&lt;/i&gt;" style="text;whiteSpace=wrap;html=1;" vertex="1" parent="1">
          <mxGeometry x="315.46000000000004" y="586" width="50" height="20" as="geometry" />
        </mxCell>
        <mxCell id="j3OCCeVIRaMCaLWhUBV3-86" style="rounded=0;orthogonalLoop=1;jettySize=auto;html=1;exitX=1;exitY=0.5;exitDx=0;exitDy=0;entryX=0.5;entryY=1;entryDx=0;entryDy=0;" edge="1" parent="1" source="j3OCCeVIRaMCaLWhUBV3-85" target="j3OCCeVIRaMCaLWhUBV3-71">
          <mxGeometry relative="1" as="geometry" />
        </mxCell>
        <mxCell id="j3OCCeVIRaMCaLWhUBV3-99" style="edgeStyle=orthogonalEdgeStyle;rounded=0;orthogonalLoop=1;jettySize=auto;html=1;exitX=1;exitY=0.5;exitDx=0;exitDy=0;entryX=1;entryY=0.5;entryDx=0;entryDy=0;" edge="1" parent="1" source="j3OCCeVIRaMCaLWhUBV3-85" target="j3OCCeVIRaMCaLWhUBV3-27">
          <mxGeometry relative="1" as="geometry" />
        </mxCell>
        <mxCell id="j3OCCeVIRaMCaLWhUBV3-85" value="&lt;font style=&quot;font-size: 8px;&quot;&gt;Reactions&lt;/font&gt;&lt;div style=&quot;font-size: 8px;&quot;&gt;&lt;font style=&quot;font-size: 8px;&quot;&gt;Consumer&lt;/font&gt;&lt;/div&gt;" style="ellipse;whiteSpace=wrap;html=1;" vertex="1" parent="1">
          <mxGeometry x="542.02" y="604" width="56.43" height="40" as="geometry" />
        </mxCell>
        <mxCell id="j3OCCeVIRaMCaLWhUBV3-89" style="edgeStyle=orthogonalEdgeStyle;rounded=0;orthogonalLoop=1;jettySize=auto;html=1;exitX=0.5;exitY=1;exitDx=0;exitDy=0;entryX=0.5;entryY=0;entryDx=0;entryDy=0;" edge="1" parent="1" source="j3OCCeVIRaMCaLWhUBV3-71">
          <mxGeometry relative="1" as="geometry">
            <mxPoint x="451.95411764705887" y="634" as="targetPoint" />
          </mxGeometry>
        </mxCell>
        <mxCell id="j3OCCeVIRaMCaLWhUBV3-95" value="&lt;font style=&quot;font-size: 8px;&quot;&gt;Windowing&lt;/font&gt;" style="edgeLabel;html=1;align=center;verticalAlign=middle;resizable=0;points=[];" vertex="1" connectable="0" parent="j3OCCeVIRaMCaLWhUBV3-89">
          <mxGeometry x="-0.3294" y="-1" relative="1" as="geometry">
            <mxPoint y="1" as="offset" />
          </mxGeometry>
        </mxCell>
        <mxCell id="j3OCCeVIRaMCaLWhUBV3-90" value="" style="rounded=1;whiteSpace=wrap;html=1;arcSize=17;" vertex="1" parent="1">
          <mxGeometry x="385.46000000000004" y="634" width="132.98823529411763" height="30" as="geometry" />
        </mxCell>
        <mxCell id="j3OCCeVIRaMCaLWhUBV3-91" value="" style="rounded=0;whiteSpace=wrap;html=1;strokeColor=#B3B3B3;" vertex="1" parent="1">
          <mxGeometry x="391.924705882353" y="638.5" width="120.05882352941177" height="5.5" as="geometry" />
        </mxCell>
        <mxCell id="j3OCCeVIRaMCaLWhUBV3-92" value="" style="rounded=0;whiteSpace=wrap;html=1;strokeColor=#B3B3B3;" vertex="1" parent="1">
          <mxGeometry x="391.924705882353" y="646.25" width="120.05882352941177" height="5.5" as="geometry" />
        </mxCell>
        <mxCell id="j3OCCeVIRaMCaLWhUBV3-93" value="" style="rounded=0;whiteSpace=wrap;html=1;strokeColor=#B3B3B3;" vertex="1" parent="1">
          <mxGeometry x="391.924705882353" y="654.75" width="120.05882352941177" height="5.5" as="geometry" />
        </mxCell>
        <mxCell id="j3OCCeVIRaMCaLWhUBV3-102" style="edgeStyle=orthogonalEdgeStyle;rounded=0;orthogonalLoop=1;jettySize=auto;html=1;exitX=0.5;exitY=1;exitDx=0;exitDy=0;entryX=0.5;entryY=0;entryDx=0;entryDy=0;" edge="1" parent="1" source="j3OCCeVIRaMCaLWhUBV3-94" target="j3OCCeVIRaMCaLWhUBV3-100">
          <mxGeometry relative="1" as="geometry" />
        </mxCell>
        <mxCell id="j3OCCeVIRaMCaLWhUBV3-94" value="&lt;i&gt;&lt;font style=&quot;font-size: 8px;&quot;&gt;KStream&lt;/font&gt;&lt;/i&gt;" style="text;html=1;align=center;verticalAlign=middle;whiteSpace=wrap;rounded=0;" vertex="1" parent="1">
          <mxGeometry x="405.20000000000005" y="664" width="90.26" height="10" as="geometry" />
        </mxCell>
        <mxCell id="j3OCCeVIRaMCaLWhUBV3-97" style="rounded=0;orthogonalLoop=1;jettySize=auto;html=1;exitX=1;exitY=0.5;exitDx=0;exitDy=0;entryX=0.5;entryY=1;entryDx=0;entryDy=0;" edge="1" parent="1" source="j3OCCeVIRaMCaLWhUBV3-98" target="j3OCCeVIRaMCaLWhUBV3-71">
          <mxGeometry relative="1" as="geometry">
            <mxPoint x="365.4599999999996" y="641.25" as="sourcePoint" />
          </mxGeometry>
        </mxCell>
        <mxCell id="j3OCCeVIRaMCaLWhUBV3-98" value="&lt;font style=&quot;font-size: 8px;&quot;&gt;Clients&lt;/font&gt;&lt;div style=&quot;font-size: 8px;&quot;&gt;&lt;font style=&quot;font-size: 8px;&quot;&gt;Consumer&lt;/font&gt;&lt;/div&gt;" style="ellipse;whiteSpace=wrap;html=1;" vertex="1" parent="1">
          <mxGeometry x="308.88" y="614.75" width="56.43" height="40" as="geometry" />
        </mxCell>
        <mxCell id="j3OCCeVIRaMCaLWhUBV3-103" style="edgeStyle=orthogonalEdgeStyle;rounded=0;orthogonalLoop=1;jettySize=auto;html=1;exitX=1;exitY=0.5;exitDx=0;exitDy=0;entryX=1;entryY=0.5;entryDx=0;entryDy=0;" edge="1" parent="1" source="j3OCCeVIRaMCaLWhUBV3-100" target="j3OCCeVIRaMCaLWhUBV3-27">
          <mxGeometry relative="1" as="geometry" />
        </mxCell>
        <mxCell id="j3OCCeVIRaMCaLWhUBV3-100" value="" style="ellipse;whiteSpace=wrap;html=1;" vertex="1" parent="1">
          <mxGeometry x="422.12" y="687.38" width="56.43" height="40" as="geometry" />
        </mxCell>
        <mxCell id="j3OCCeVIRaMCaLWhUBV3-104" value="&lt;b&gt;PROs&lt;/b&gt;&lt;div&gt;- Scalability and resiliency&lt;/div&gt;&lt;div&gt;- Decoupling from the consumers&lt;/div&gt;&lt;div&gt;&lt;b&gt;CONs&lt;/b&gt;&lt;/div&gt;&lt;div&gt;- mixture of different technologies (with their pool of threads...)&lt;/div&gt;&lt;div&gt;- complex architecture for just one microservice consumer&lt;br&gt;&lt;/div&gt;" style="text;html=1;align=center;verticalAlign=middle;whiteSpace=wrap;rounded=0;fillColor=#FFFAE8;strokeColor=#d6b656;" vertex="1" parent="1">
          <mxGeometry x="212.01000000000002" y="24" width="349.94" height="120" as="geometry" />
        </mxCell>
        <mxCell id="j3OCCeVIRaMCaLWhUBV3-105" value="&lt;span style=&quot;font-size: 9px;&quot;&gt;Location Service&lt;/span&gt;" style="shape=hexagon;perimeter=hexagonPerimeter2;whiteSpace=wrap;html=1;fixedSize=1;fillColor=#E8EDFC;strokeColor=#99A7BF;size=40.52999999999997;" vertex="1" parent="1">
          <mxGeometry x="861.99" y="246" width="167.64" height="137.38" as="geometry" />
        </mxCell>
        <mxCell id="j3OCCeVIRaMCaLWhUBV3-106" style="edgeStyle=orthogonalEdgeStyle;rounded=0;orthogonalLoop=1;jettySize=auto;html=1;exitX=0.5;exitY=1;exitDx=0;exitDy=0;entryX=0.5;entryY=0;entryDx=0;entryDy=0;" edge="1" parent="1" source="j3OCCeVIRaMCaLWhUBV3-107" target="j3OCCeVIRaMCaLWhUBV3-114">
          <mxGeometry relative="1" as="geometry" />
        </mxCell>
        <mxCell id="j3OCCeVIRaMCaLWhUBV3-107" value="Gateway" style="rounded=1;whiteSpace=wrap;html=1;" vertex="1" parent="1">
          <mxGeometry x="800.99" y="146" width="90" height="60" as="geometry" />
        </mxCell>
        <mxCell id="j3OCCeVIRaMCaLWhUBV3-108" value="" style="sketch=0;pointerEvents=1;shadow=0;dashed=0;html=1;strokeColor=none;labelPosition=center;verticalLabelPosition=bottom;verticalAlign=top;align=center;fillColor=#505050;shape=mxgraph.mscae.intune.intune_mobile_application_management" vertex="1" parent="1">
          <mxGeometry x="821.99" y="66" width="49" height="50" as="geometry" />
        </mxCell>
        <mxCell id="j3OCCeVIRaMCaLWhUBV3-109" style="edgeStyle=orthogonalEdgeStyle;rounded=0;orthogonalLoop=1;jettySize=auto;html=1;entryX=0.5;entryY=0;entryDx=0;entryDy=0;startArrow=block;startFill=1;" edge="1" parent="1" source="j3OCCeVIRaMCaLWhUBV3-108" target="j3OCCeVIRaMCaLWhUBV3-107">
          <mxGeometry relative="1" as="geometry" />
        </mxCell>
        <mxCell id="f-dwd3AxqJhTK_1-yqeD-2" style="rounded=0;orthogonalLoop=1;jettySize=auto;html=1;exitX=0.5;exitY=1;exitDx=0;exitDy=0;entryX=0;entryY=0.5;entryDx=0;entryDy=0;edgeStyle=orthogonalEdgeStyle;" edge="1" parent="1" source="j3OCCeVIRaMCaLWhUBV3-114" target="f-dwd3AxqJhTK_1-yqeD-1">
          <mxGeometry relative="1" as="geometry" />
        </mxCell>
        <mxCell id="j3OCCeVIRaMCaLWhUBV3-114" value="&lt;div style=&quot;line-height: 90%; font-size: 9px;&quot;&gt;&lt;span style=&quot;background-color: initial;&quot;&gt;WebSocketService&lt;/span&gt;&lt;br&gt;&lt;/div&gt;" style="rounded=0;whiteSpace=wrap;html=1;align=center;" vertex="1" parent="1">
          <mxGeometry x="800.99" y="303.88" width="90" height="29.5" as="geometry" />
        </mxCell>
        <mxCell id="j3OCCeVIRaMCaLWhUBV3-116" value="&lt;font style=&quot;font-size: 10px;&quot;&gt;Client send a&amp;nbsp;&lt;/font&gt;&lt;div&gt;&lt;font style=&quot;font-size: 10px;&quot;&gt;location update&lt;/font&gt;&lt;/div&gt;" style="text;html=1;align=center;verticalAlign=middle;whiteSpace=wrap;rounded=0;fillColor=default;" vertex="1" parent="1">
          <mxGeometry x="806.49" y="216" width="80" height="30" as="geometry" />
        </mxCell>
        <mxCell id="f-dwd3AxqJhTK_1-yqeD-44" style="edgeStyle=orthogonalEdgeStyle;rounded=0;orthogonalLoop=1;jettySize=auto;html=1;exitX=0.5;exitY=1;exitDx=0;exitDy=0;entryX=0.5;entryY=0;entryDx=0;entryDy=0;" edge="1" parent="1" source="f-dwd3AxqJhTK_1-yqeD-1" target="f-dwd3AxqJhTK_1-yqeD-4">
          <mxGeometry relative="1" as="geometry" />
        </mxCell>
        <mxCell id="f-dwd3AxqJhTK_1-yqeD-1" value="&lt;div style=&quot;line-height: 90%; font-size: 9px;&quot;&gt;RealTimeTracking Service&lt;/div&gt;&lt;div style=&quot;line-height: 90%; font-size: 9px;&quot;&gt;&lt;i style=&quot;background-color: initial; font-size: 12px;&quot;&gt;&lt;font style=&quot;font-size: 7px;&quot;&gt;&amp;lt;&amp;lt;In port&amp;gt;&amp;gt;&lt;/font&gt;&lt;/i&gt;&lt;/div&gt;" style="rounded=0;whiteSpace=wrap;html=1;align=center;" vertex="1" parent="1">
          <mxGeometry x="906.31" y="366" width="79" height="30" as="geometry" />
        </mxCell>
        <mxCell id="f-dwd3AxqJhTK_1-yqeD-43" value="" style="group" vertex="1" connectable="0" parent="1">
          <mxGeometry x="849.88" y="454" width="164.5" height="136" as="geometry" />
        </mxCell>
        <mxCell id="f-dwd3AxqJhTK_1-yqeD-15" style="rounded=0;orthogonalLoop=1;jettySize=auto;html=1;exitX=0.5;exitY=0;exitDx=0;exitDy=0;entryX=0;entryY=1;entryDx=0;entryDy=0;endArrow=none;endFill=0;" edge="1" parent="f-dwd3AxqJhTK_1-yqeD-43" source="f-dwd3AxqJhTK_1-yqeD-9" target="f-dwd3AxqJhTK_1-yqeD-4">
          <mxGeometry relative="1" as="geometry" />
        </mxCell>
        <mxCell id="f-dwd3AxqJhTK_1-yqeD-13" style="edgeStyle=orthogonalEdgeStyle;rounded=0;orthogonalLoop=1;jettySize=auto;html=1;exitX=0;exitY=0.5;exitDx=0;exitDy=0;entryX=1;entryY=0.5;entryDx=0;entryDy=0;endArrow=none;endFill=0;" edge="1" parent="f-dwd3AxqJhTK_1-yqeD-43" source="f-dwd3AxqJhTK_1-yqeD-11" target="f-dwd3AxqJhTK_1-yqeD-9">
          <mxGeometry relative="1" as="geometry" />
        </mxCell>
        <mxCell id="f-dwd3AxqJhTK_1-yqeD-14" style="rounded=0;orthogonalLoop=1;jettySize=auto;html=1;exitX=0.5;exitY=0;exitDx=0;exitDy=0;entryX=1;entryY=1;entryDx=0;entryDy=0;endArrow=none;endFill=0;" edge="1" parent="f-dwd3AxqJhTK_1-yqeD-43" source="f-dwd3AxqJhTK_1-yqeD-11" target="f-dwd3AxqJhTK_1-yqeD-4">
          <mxGeometry relative="1" as="geometry" />
        </mxCell>
        <mxCell id="f-dwd3AxqJhTK_1-yqeD-16" value="" style="group" vertex="1" connectable="0" parent="f-dwd3AxqJhTK_1-yqeD-43">
          <mxGeometry x="108.5886731923994" y="53.376344086021504" width="20.29694826026157" height="21.935483870967744" as="geometry" />
        </mxCell>
        <mxCell id="f-dwd3AxqJhTK_1-yqeD-11" value="" style="ellipse;whiteSpace=wrap;html=1;aspect=fixed;" vertex="1" parent="f-dwd3AxqJhTK_1-yqeD-16">
          <mxGeometry width="18.770445643851904" height="18.770445643851904" as="geometry" />
        </mxCell>
        <mxCell id="f-dwd3AxqJhTK_1-yqeD-12" value="" style="shape=image;aspect=fixed;image=data:image/png,iVBORw0KGgoAAAANSUhEUgAAAQYAAADBCAMAAAAace62AAAAwFBMVEX///8Vqc4LVWcAo8sApcwAp80KT2AVrdMAosoAR1wAUGMASl4WrtQAUWQLUmMATGAARFmu3Ovy+vzt+PsSkK8Tl7j09/hhvtqR0OQ3stO/4+92xt6m2elQudfS7PTh8vgMXHAMYncPfJeAyuDM6fITncANbYQRiacPeZOOz+OAnqc9cH5xk52ywcbn7u/e5+mSq7NXgIwpZHQAXXagyNTC0NShtbuQp69+m6S8ys7P3N9WfYlpipUAb4pBj6YjYXEv2fv/AAAIiElEQVR4nO2dDVPiOhiFLaSEFkpBqXwqiIKIAuq94grs9f//q5vCtqI0bdJ8lu0zszuzzg62h5OTN83b9uwsJycnJycnJycnJ+fkGXTbvV6r1XtoDFQfiioG/SsDFE1g+gBgtBqqj0g+F+1qEQlgfIGkMNuqD0sugx4AhxIESgDjTvWhyeOiVwTHGuyFKP81hmhjRfAp3qo+PikMOnEi+Dr0VR+iBLrFeBF8Ha5VH6Rw2uVEFQyjo/ooRdNK9gICdFUfp1DOk2Lhr7DDwIgoFf46O3QJrXDaduiThOPJ26FHFI4nbofzK4oRcbJ2GEDScDxlO3SpRUCl5MnZoR+1pv7r7NCjjIWTtAN1OJ6kHQYwrQpG8XQuRN2lSYWAK9VHz4t+mUWGU7FDj6Z+Plk7pA7HgPIJ2OEifTgGmNm3A1M4nowdGkzhGJB1O9wyhmNAtu3AHI4BWbbDRYfHgNhTzuyexZ3JT4Xs2qGRalmNJaN2uKW75phINu3Q4hWOIRm0A89wDMieHa6Jt6VoyNoGN+dwDMiYHR44h2NIpuzAPxwDMmSHcwHhGJIZOwx4Vo5HZMUOXS7LajwgE3YgamhiwWypPkUCxIVjiP52IG5oYkF7O5A3NDGhuR1oGppY0NsObVGV4xE62yHlnn0a9LVD+j37NABN70JK0dDEgqZ2SNPQxISWdmgXZcugox0khmOIdnaQG44ButlBUuV4hF52uFNhBR+zp/rUD6BqhedLUR87ULbCc0UfOygJxxBN7MDQ7ckFoIUduDQ0MaGDHfrSK8cjNLAD7z37VBQv1IpwfqWDCqrtMBC5LUWDUjtwbWhiQqUd0t0nJAZ1dtAiHAOU2UHCthQNZSV2ENHQxIQSO1xrE44hCuzQUF85HiHfDrxa4fkie7LQLBwD5F53ENrQxIRMO2gYjgGmvGdkdTUMxxAgyw7Cuj25IMsOmoZjiBQ7SGloYkKGHcS0wvPFFG4HWQ1NTAi3g7yGJiYEp4OKPfs0CLWDDuEIyf6bwHRQtWcPIawaxng89prN5j3643njMfB/jNfEfBClAsGzPXmDzt8cN0fTybBQqJUOqdUKw5vJqDk2qtFimOdiVJAcjuirRgJMhjX/lGuFKNDPS6XCzfR+HOELIMYOMvfs0RjwRhP0/WPO/4caSIuJL8X3DxFhB3nhiM7GG92UyBQ4MEapMPW+KSHADrLCEUXB/YTQBBGuKEzH1a8P424HOeGIwuDet0EaCUIlJl4oBG87CL9PaKcBGA2ZJAiEuPGCocHXDhLCERrNCQcNAiHGeyEAx0fWi+/2RINhWuMlwl6I0f6T+dlBeEMTNFAgcNRgR2m4Gxnc7CC6oWlnBM4a7IUY+TpwsoPghibocUuEYx1uAC87CN2zh9DjPxoOqA1RUnKwg9BwhLApVISdEE3IbodBVZwKaILkUSQkUWpCk1EFga3waHIYCsnFCB0Y338kMBxhU5IIvg4ekx3EhWMVBaMsEXY6MLztRli3Z3UsborEANKKcCEqHKExlS1CofZPSjsIqxzhfboLCWyURqlUEBWOVU9eMn7D+jeFCoLCEZoTNSIgHHoVBFWO8F56KHzhPlOKIKjbE46lTpJHWJdUKohqaJI/P3zHndGoIObxddAbqhUBUaGwg6CGpqnS8bCHIh2ENDTpYIUdhCIICseRBlbwsd6IVBASjqoniAPsFxIVhISjmtoZg0sQkiL27FWWjRFYH4kqiKifoVfQxwoI+0mJF3TJxgBnmJQL/DdqIdAmG0OsZawKA/5e0G1A7KjMY2UgbLCjUUG3AbHD/hWnwi3/2lGrGSLEeYxR4Zr3kIBjTarnI5yYyuGKc9lUbWppBR9rgTcD5yFR1TIW9sQsK3qczaBnLOzBTxXnXFXQNxZ2uCucDA2eYwJ6Gq2kInDfZQQk1Dcc92ALB55jQs+a6RDs4orjPAF1uOIYj70VHw06TxF/wLrhltuguNE6HPdgs6HFRwbNJ8oA7ExxxUcFHZfVEWDrhg4XFcgnSse2XbdSsRD1A9A/KxXXtW3HESkDtorkIQO8T1TBsd0KOm/n83H7NFvNP97W6+VyuVhc+ku+y8Vy/fb2MV89z7abVxtp4rpi5MCuKThUT9U4Ffan/7l5ev5Y45d337hcv62eNsO6VbF5a4FdYbJHJG5FiQSo11+373PS0z9SYz7buPWKzVEG7PUG5juNo1SwXatuv7x/xF8BJWI5fyrwk+IV92v6jDJUf5SODvKA+/L8ls4B0SzmW7vuchgg2CKS9RkE31RAJrAe37kqELJcPbKbAr/OvmDKhmpYQNsVq7BdcRgFeC7nL1aFyRMx+xQsMyb8vVPBcS1nOxcqQaDE6tFyGXTAf/JDejtA3wu2ZW9WawkS/GE5c6yUlsBHA8tKG05d1xrO3uhazDgwf7RSpUTsjnbaUQF/1x+fJdrgkPW2kmJs2HFfWCPVbo0J/hMbiAksZi6tEHFjApHmFnQAlb9Na/HLpRsaVrx1U1yAAleCnpNBxeKJJiMcbAn5B+oGuKKwh6ZQstzUyc0Qv6t/djagtAPoSjlHIj6GpBHxmfhZbRodzKoG7z44YFYnKiMI+r9olttAs7cmoZHxWklWIba1IYQ4Hsq6xMIhz8mGqBPN7ueEr+nTKRYOWH4mJISFXVt+h+jpuGZH8Tsw8Gxjpwx7Q/xByd3zRe1i4YB5jA528izxRdJTbMoM97ZKYFnA1VL2kGr1d13F33dogo5e82QEL9GGcF9p18B9E9NGD4yGkCPnyzxquWXFr6ii6UPwUwkTOUHv8RByOfu5AHfdpBoaw13PKALTRGe/+wsAeKt8NUnO4t35Wm85Ffud4aLQoPHQ6viXYzqtdkP7SPjJx9On7e+RVgqbufQrY1pxuVyvl0I2CnJycnJycnJycnJyzs7+B6K26I2hgLEuAAAAAElFTkSuQmCC;" vertex="1" parent="f-dwd3AxqJhTK_1-yqeD-16">
          <mxGeometry x="3.261043020482137" y="5.483870967741936" width="12.738875776960825" height="9.385222821925952" as="geometry" />
        </mxCell>
        <mxCell id="f-dwd3AxqJhTK_1-yqeD-17" value="" style="group" vertex="1" connectable="0" parent="f-dwd3AxqJhTK_1-yqeD-43">
          <mxGeometry x="66.85814756930165" y="53.376344086021504" width="20.29694826026157" height="21.935483870967744" as="geometry" />
        </mxCell>
        <mxCell id="f-dwd3AxqJhTK_1-yqeD-9" value="" style="ellipse;whiteSpace=wrap;html=1;aspect=fixed;" vertex="1" parent="f-dwd3AxqJhTK_1-yqeD-17">
          <mxGeometry width="18.770445643851904" height="18.770445643851904" as="geometry" />
        </mxCell>
        <mxCell id="f-dwd3AxqJhTK_1-yqeD-10" value="" style="shape=image;aspect=fixed;image=data:image/png,iVBORw0KGgoAAAANSUhEUgAAAQYAAADBCAMAAAAace62AAAAwFBMVEX///8Vqc4LVWcAo8sApcwAp80KT2AVrdMAosoAR1wAUGMASl4WrtQAUWQLUmMATGAARFmu3Ovy+vzt+PsSkK8Tl7j09/hhvtqR0OQ3stO/4+92xt6m2elQudfS7PTh8vgMXHAMYncPfJeAyuDM6fITncANbYQRiacPeZOOz+OAnqc9cH5xk52ywcbn7u/e5+mSq7NXgIwpZHQAXXagyNTC0NShtbuQp69+m6S8ys7P3N9WfYlpipUAb4pBj6YjYXEv2fv/AAAIiElEQVR4nO2dDVPiOhiFLaSEFkpBqXwqiIKIAuq94grs9f//q5vCtqI0bdJ8lu0zszuzzg62h5OTN83b9uwsJycnJycnJycnJ+fkGXTbvV6r1XtoDFQfiioG/SsDFE1g+gBgtBqqj0g+F+1qEQlgfIGkMNuqD0sugx4AhxIESgDjTvWhyeOiVwTHGuyFKP81hmhjRfAp3qo+PikMOnEi+Dr0VR+iBLrFeBF8Ha5VH6Rw2uVEFQyjo/ooRdNK9gICdFUfp1DOk2Lhr7DDwIgoFf46O3QJrXDaduiThOPJ26FHFI4nbofzK4oRcbJ2GEDScDxlO3SpRUCl5MnZoR+1pv7r7NCjjIWTtAN1OJ6kHQYwrQpG8XQuRN2lSYWAK9VHz4t+mUWGU7FDj6Z+Plk7pA7HgPIJ2OEifTgGmNm3A1M4nowdGkzhGJB1O9wyhmNAtu3AHI4BWbbDRYfHgNhTzuyexZ3JT4Xs2qGRalmNJaN2uKW75phINu3Q4hWOIRm0A89wDMieHa6Jt6VoyNoGN+dwDMiYHR44h2NIpuzAPxwDMmSHcwHhGJIZOwx4Vo5HZMUOXS7LajwgE3YgamhiwWypPkUCxIVjiP52IG5oYkF7O5A3NDGhuR1oGppY0NsObVGV4xE62yHlnn0a9LVD+j37NABN70JK0dDEgqZ2SNPQxISWdmgXZcugox0khmOIdnaQG44ButlBUuV4hF52uFNhBR+zp/rUD6BqhedLUR87ULbCc0UfOygJxxBN7MDQ7ckFoIUduDQ0MaGDHfrSK8cjNLAD7z37VBQv1IpwfqWDCqrtMBC5LUWDUjtwbWhiQqUd0t0nJAZ1dtAiHAOU2UHCthQNZSV2ENHQxIQSO1xrE44hCuzQUF85HiHfDrxa4fkie7LQLBwD5F53ENrQxIRMO2gYjgGmvGdkdTUMxxAgyw7Cuj25IMsOmoZjiBQ7SGloYkKGHcS0wvPFFG4HWQ1NTAi3g7yGJiYEp4OKPfs0CLWDDuEIyf6bwHRQtWcPIawaxng89prN5j3643njMfB/jNfEfBClAsGzPXmDzt8cN0fTybBQqJUOqdUKw5vJqDk2qtFimOdiVJAcjuirRgJMhjX/lGuFKNDPS6XCzfR+HOELIMYOMvfs0RjwRhP0/WPO/4caSIuJL8X3DxFhB3nhiM7GG92UyBQ4MEapMPW+KSHADrLCEUXB/YTQBBGuKEzH1a8P424HOeGIwuDet0EaCUIlJl4oBG87CL9PaKcBGA2ZJAiEuPGCocHXDhLCERrNCQcNAiHGeyEAx0fWi+/2RINhWuMlwl6I0f6T+dlBeEMTNFAgcNRgR2m4Gxnc7CC6oWlnBM4a7IUY+TpwsoPghibocUuEYx1uAC87CN2zh9DjPxoOqA1RUnKwg9BwhLApVISdEE3IbodBVZwKaILkUSQkUWpCk1EFga3waHIYCsnFCB0Y338kMBxhU5IIvg4ekx3EhWMVBaMsEXY6MLztRli3Z3UsborEANKKcCEqHKExlS1CofZPSjsIqxzhfboLCWyURqlUEBWOVU9eMn7D+jeFCoLCEZoTNSIgHHoVBFWO8F56KHzhPlOKIKjbE46lTpJHWJdUKohqaJI/P3zHndGoIObxddAbqhUBUaGwg6CGpqnS8bCHIh2ENDTpYIUdhCIICseRBlbwsd6IVBASjqoniAPsFxIVhISjmtoZg0sQkiL27FWWjRFYH4kqiKifoVfQxwoI+0mJF3TJxgBnmJQL/DdqIdAmG0OsZawKA/5e0G1A7KjMY2UgbLCjUUG3AbHD/hWnwi3/2lGrGSLEeYxR4Zr3kIBjTarnI5yYyuGKc9lUbWppBR9rgTcD5yFR1TIW9sQsK3qczaBnLOzBTxXnXFXQNxZ2uCucDA2eYwJ6Gq2kInDfZQQk1Dcc92ALB55jQs+a6RDs4orjPAF1uOIYj70VHw06TxF/wLrhltuguNE6HPdgs6HFRwbNJ8oA7ExxxUcFHZfVEWDrhg4XFcgnSse2XbdSsRD1A9A/KxXXtW3HESkDtorkIQO8T1TBsd0KOm/n83H7NFvNP97W6+VyuVhc+ku+y8Vy/fb2MV89z7abVxtp4rpi5MCuKThUT9U4Ffan/7l5ev5Y45d337hcv62eNsO6VbF5a4FdYbJHJG5FiQSo11+373PS0z9SYz7buPWKzVEG7PUG5juNo1SwXatuv7x/xF8BJWI5fyrwk+IV92v6jDJUf5SODvKA+/L8ls4B0SzmW7vuchgg2CKS9RkE31RAJrAe37kqELJcPbKbAr/OvmDKhmpYQNsVq7BdcRgFeC7nL1aFyRMx+xQsMyb8vVPBcS1nOxcqQaDE6tFyGXTAf/JDejtA3wu2ZW9WawkS/GE5c6yUlsBHA8tKG05d1xrO3uhazDgwf7RSpUTsjnbaUQF/1x+fJdrgkPW2kmJs2HFfWCPVbo0J/hMbiAksZi6tEHFjApHmFnQAlb9Na/HLpRsaVrx1U1yAAleCnpNBxeKJJiMcbAn5B+oGuKKwh6ZQstzUyc0Qv6t/djagtAPoSjlHIj6GpBHxmfhZbRodzKoG7z44YFYnKiMI+r9olttAs7cmoZHxWklWIba1IYQ4Hsq6xMIhz8mGqBPN7ueEr+nTKRYOWH4mJISFXVt+h+jpuGZH8Tsw8Gxjpwx7Q/xByd3zRe1i4YB5jA528izxRdJTbMoM97ZKYFnA1VL2kGr1d13F33dogo5e82QEL9GGcF9p18B9E9NGD4yGkCPnyzxquWXFr6ii6UPwUwkTOUHv8RByOfu5AHfdpBoaw13PKALTRGe/+wsAeKt8NUnO4t35Wm85Ffud4aLQoPHQ6viXYzqtdkP7SPjJx9On7e+RVgqbufQrY1pxuVyvl0I2CnJycnJycnJycnJyzs7+B6K26I2hgLEuAAAAAElFTkSuQmCC;" vertex="1" parent="f-dwd3AxqJhTK_1-yqeD-17">
          <mxGeometry x="3.2610430204820595" y="5.483870967741936" width="12.738875776960825" height="9.385222821925952" as="geometry" />
        </mxCell>
        <mxCell id="f-dwd3AxqJhTK_1-yqeD-18" value="" style="group" vertex="1" connectable="0" parent="f-dwd3AxqJhTK_1-yqeD-43">
          <mxGeometry x="87.15509582956321" y="16.81720430107527" width="20.29694826026157" height="21.935483870967744" as="geometry" />
        </mxCell>
        <mxCell id="f-dwd3AxqJhTK_1-yqeD-4" value="" style="ellipse;whiteSpace=wrap;html=1;aspect=fixed;" vertex="1" parent="f-dwd3AxqJhTK_1-yqeD-18">
          <mxGeometry width="18.770445643851904" height="18.770445643851904" as="geometry" />
        </mxCell>
        <mxCell id="f-dwd3AxqJhTK_1-yqeD-8" value="" style="shape=image;aspect=fixed;image=data:image/png,iVBORw0KGgoAAAANSUhEUgAAAQYAAADBCAMAAAAace62AAAAwFBMVEX///8Vqc4LVWcAo8sApcwAp80KT2AVrdMAosoAR1wAUGMASl4WrtQAUWQLUmMATGAARFmu3Ovy+vzt+PsSkK8Tl7j09/hhvtqR0OQ3stO/4+92xt6m2elQudfS7PTh8vgMXHAMYncPfJeAyuDM6fITncANbYQRiacPeZOOz+OAnqc9cH5xk52ywcbn7u/e5+mSq7NXgIwpZHQAXXagyNTC0NShtbuQp69+m6S8ys7P3N9WfYlpipUAb4pBj6YjYXEv2fv/AAAIiElEQVR4nO2dDVPiOhiFLaSEFkpBqXwqiIKIAuq94grs9f//q5vCtqI0bdJ8lu0zszuzzg62h5OTN83b9uwsJycnJycnJycnJ+fkGXTbvV6r1XtoDFQfiioG/SsDFE1g+gBgtBqqj0g+F+1qEQlgfIGkMNuqD0sugx4AhxIESgDjTvWhyeOiVwTHGuyFKP81hmhjRfAp3qo+PikMOnEi+Dr0VR+iBLrFeBF8Ha5VH6Rw2uVEFQyjo/ooRdNK9gICdFUfp1DOk2Lhr7DDwIgoFf46O3QJrXDaduiThOPJ26FHFI4nbofzK4oRcbJ2GEDScDxlO3SpRUCl5MnZoR+1pv7r7NCjjIWTtAN1OJ6kHQYwrQpG8XQuRN2lSYWAK9VHz4t+mUWGU7FDj6Z+Plk7pA7HgPIJ2OEifTgGmNm3A1M4nowdGkzhGJB1O9wyhmNAtu3AHI4BWbbDRYfHgNhTzuyexZ3JT4Xs2qGRalmNJaN2uKW75phINu3Q4hWOIRm0A89wDMieHa6Jt6VoyNoGN+dwDMiYHR44h2NIpuzAPxwDMmSHcwHhGJIZOwx4Vo5HZMUOXS7LajwgE3YgamhiwWypPkUCxIVjiP52IG5oYkF7O5A3NDGhuR1oGppY0NsObVGV4xE62yHlnn0a9LVD+j37NABN70JK0dDEgqZ2SNPQxISWdmgXZcugox0khmOIdnaQG44ButlBUuV4hF52uFNhBR+zp/rUD6BqhedLUR87ULbCc0UfOygJxxBN7MDQ7ckFoIUduDQ0MaGDHfrSK8cjNLAD7z37VBQv1IpwfqWDCqrtMBC5LUWDUjtwbWhiQqUd0t0nJAZ1dtAiHAOU2UHCthQNZSV2ENHQxIQSO1xrE44hCuzQUF85HiHfDrxa4fkie7LQLBwD5F53ENrQxIRMO2gYjgGmvGdkdTUMxxAgyw7Cuj25IMsOmoZjiBQ7SGloYkKGHcS0wvPFFG4HWQ1NTAi3g7yGJiYEp4OKPfs0CLWDDuEIyf6bwHRQtWcPIawaxng89prN5j3643njMfB/jNfEfBClAsGzPXmDzt8cN0fTybBQqJUOqdUKw5vJqDk2qtFimOdiVJAcjuirRgJMhjX/lGuFKNDPS6XCzfR+HOELIMYOMvfs0RjwRhP0/WPO/4caSIuJL8X3DxFhB3nhiM7GG92UyBQ4MEapMPW+KSHADrLCEUXB/YTQBBGuKEzH1a8P424HOeGIwuDet0EaCUIlJl4oBG87CL9PaKcBGA2ZJAiEuPGCocHXDhLCERrNCQcNAiHGeyEAx0fWi+/2RINhWuMlwl6I0f6T+dlBeEMTNFAgcNRgR2m4Gxnc7CC6oWlnBM4a7IUY+TpwsoPghibocUuEYx1uAC87CN2zh9DjPxoOqA1RUnKwg9BwhLApVISdEE3IbodBVZwKaILkUSQkUWpCk1EFga3waHIYCsnFCB0Y338kMBxhU5IIvg4ekx3EhWMVBaMsEXY6MLztRli3Z3UsborEANKKcCEqHKExlS1CofZPSjsIqxzhfboLCWyURqlUEBWOVU9eMn7D+jeFCoLCEZoTNSIgHHoVBFWO8F56KHzhPlOKIKjbE46lTpJHWJdUKohqaJI/P3zHndGoIObxddAbqhUBUaGwg6CGpqnS8bCHIh2ENDTpYIUdhCIICseRBlbwsd6IVBASjqoniAPsFxIVhISjmtoZg0sQkiL27FWWjRFYH4kqiKifoVfQxwoI+0mJF3TJxgBnmJQL/DdqIdAmG0OsZawKA/5e0G1A7KjMY2UgbLCjUUG3AbHD/hWnwi3/2lGrGSLEeYxR4Zr3kIBjTarnI5yYyuGKc9lUbWppBR9rgTcD5yFR1TIW9sQsK3qczaBnLOzBTxXnXFXQNxZ2uCucDA2eYwJ6Gq2kInDfZQQk1Dcc92ALB55jQs+a6RDs4orjPAF1uOIYj70VHw06TxF/wLrhltuguNE6HPdgs6HFRwbNJ8oA7ExxxUcFHZfVEWDrhg4XFcgnSse2XbdSsRD1A9A/KxXXtW3HESkDtorkIQO8T1TBsd0KOm/n83H7NFvNP97W6+VyuVhc+ku+y8Vy/fb2MV89z7abVxtp4rpi5MCuKThUT9U4Ffan/7l5ev5Y45d337hcv62eNsO6VbF5a4FdYbJHJG5FiQSo11+373PS0z9SYz7buPWKzVEG7PUG5juNo1SwXatuv7x/xF8BJWI5fyrwk+IV92v6jDJUf5SODvKA+/L8ls4B0SzmW7vuchgg2CKS9RkE31RAJrAe37kqELJcPbKbAr/OvmDKhmpYQNsVq7BdcRgFeC7nL1aFyRMx+xQsMyb8vVPBcS1nOxcqQaDE6tFyGXTAf/JDejtA3wu2ZW9WawkS/GE5c6yUlsBHA8tKG05d1xrO3uhazDgwf7RSpUTsjnbaUQF/1x+fJdrgkPW2kmJs2HFfWCPVbo0J/hMbiAksZi6tEHFjApHmFnQAlb9Na/HLpRsaVrx1U1yAAleCnpNBxeKJJiMcbAn5B+oGuKKwh6ZQstzUyc0Qv6t/djagtAPoSjlHIj6GpBHxmfhZbRodzKoG7z44YFYnKiMI+r9olttAs7cmoZHxWklWIba1IYQ4Hsq6xMIhz8mGqBPN7ueEr+nTKRYOWH4mJISFXVt+h+jpuGZH8Tsw8Gxjpwx7Q/xByd3zRe1i4YB5jA528izxRdJTbMoM97ZKYFnA1VL2kGr1d13F33dogo5e82QEL9GGcF9p18B9E9NGD4yGkCPnyzxquWXFr6ii6UPwUwkTOUHv8RByOfu5AHfdpBoaw13PKALTRGe/+wsAeKt8NUnO4t35Wm85Ffud4aLQoPHQ6viXYzqtdkP7SPjJx9On7e+RVgqbufQrY1pxuVyvl0I2CnJycnJycnJycnJyzs7+B6K26I2hgLEuAAAAAElFTkSuQmCC;" vertex="1" parent="f-dwd3AxqJhTK_1-yqeD-18">
          <mxGeometry x="3.2610430204820595" y="5.483870967741936" width="12.738875776960825" height="9.385222821925952" as="geometry" />
        </mxCell>
        <mxCell id="f-dwd3AxqJhTK_1-yqeD-22" style="edgeStyle=orthogonalEdgeStyle;rounded=0;orthogonalLoop=1;jettySize=auto;html=1;exitX=0.5;exitY=1;exitDx=0;exitDy=0;entryX=0.5;entryY=0;entryDx=0;entryDy=0;endArrow=none;endFill=0;strokeColor=#666666;" edge="1" parent="f-dwd3AxqJhTK_1-yqeD-43" source="f-dwd3AxqJhTK_1-yqeD-19" target="f-dwd3AxqJhTK_1-yqeD-21">
          <mxGeometry relative="1" as="geometry" />
        </mxCell>
        <mxCell id="f-dwd3AxqJhTK_1-yqeD-19" value="" style="ellipse;whiteSpace=wrap;html=1;aspect=fixed;fillColor=#1ba1e2;fontColor=#ffffff;strokeColor=none;" vertex="1" parent="f-dwd3AxqJhTK_1-yqeD-43">
          <mxGeometry x="43.63843875956237" y="77.50537634408606" width="12.513630429234603" height="12.513630429234603" as="geometry" />
        </mxCell>
        <mxCell id="f-dwd3AxqJhTK_1-yqeD-20" style="rounded=0;orthogonalLoop=1;jettySize=auto;html=1;exitX=0;exitY=1;exitDx=0;exitDy=0;entryX=0.5;entryY=0;entryDx=0;entryDy=0;startArrow=none;startFill=0;endArrow=none;endFill=0;strokeWidth=1;fillColor=#eeeeee;strokeColor=#666666;" edge="1" parent="f-dwd3AxqJhTK_1-yqeD-43" source="f-dwd3AxqJhTK_1-yqeD-9" target="f-dwd3AxqJhTK_1-yqeD-19">
          <mxGeometry relative="1" as="geometry" />
        </mxCell>
        <mxCell id="f-dwd3AxqJhTK_1-yqeD-21" value="" style="ellipse;whiteSpace=wrap;html=1;aspect=fixed;fillColor=#1ba1e2;fontColor=#ffffff;strokeColor=none;" vertex="1" parent="f-dwd3AxqJhTK_1-yqeD-43">
          <mxGeometry x="43.63843875956237" y="99.44086021505376" width="12.513630429234603" height="12.513630429234603" as="geometry" />
        </mxCell>
        <mxCell id="f-dwd3AxqJhTK_1-yqeD-23" value="" style="ellipse;whiteSpace=wrap;html=1;aspect=fixed;fillColor=#cdeb8b;strokeColor=none;" vertex="1" parent="f-dwd3AxqJhTK_1-yqeD-43">
          <mxGeometry x="43.63843875956237" y="121.3763440860215" width="12.513630429234603" height="12.513630429234603" as="geometry" />
        </mxCell>
        <mxCell id="f-dwd3AxqJhTK_1-yqeD-24" style="edgeStyle=orthogonalEdgeStyle;rounded=0;orthogonalLoop=1;jettySize=auto;html=1;exitX=0.5;exitY=1;exitDx=0;exitDy=0;entryX=0.5;entryY=0;entryDx=0;entryDy=0;endArrow=none;endFill=0;strokeColor=#666666;" edge="1" parent="f-dwd3AxqJhTK_1-yqeD-43" source="f-dwd3AxqJhTK_1-yqeD-21" target="f-dwd3AxqJhTK_1-yqeD-23">
          <mxGeometry relative="1" as="geometry">
            <mxPoint x="57.16973759973675" y="99.44086021505376" as="sourcePoint" />
            <mxPoint x="57.16973759973675" y="114.06451612903227" as="targetPoint" />
          </mxGeometry>
        </mxCell>
        <mxCell id="f-dwd3AxqJhTK_1-yqeD-25" value="" style="ellipse;whiteSpace=wrap;html=1;aspect=fixed;fillColor=#cdeb8b;strokeColor=none;" vertex="1" parent="f-dwd3AxqJhTK_1-yqeD-43">
          <mxGeometry x="24.018055441309524" y="114.06451612903227" width="12.513630429234603" height="12.513630429234603" as="geometry" />
        </mxCell>
        <mxCell id="f-dwd3AxqJhTK_1-yqeD-27" style="rounded=0;orthogonalLoop=1;jettySize=auto;html=1;exitX=0;exitY=0.5;exitDx=0;exitDy=0;entryX=0.694;entryY=0.128;entryDx=0;entryDy=0;endArrow=none;endFill=0;strokeColor=#666666;entryPerimeter=0;" edge="1" parent="f-dwd3AxqJhTK_1-yqeD-43" source="f-dwd3AxqJhTK_1-yqeD-21" target="f-dwd3AxqJhTK_1-yqeD-25">
          <mxGeometry relative="1" as="geometry">
            <mxPoint x="57.16973759973675" y="128.68817204301075" as="sourcePoint" />
            <mxPoint x="57.16973759973675" y="139.65591397849462" as="targetPoint" />
          </mxGeometry>
        </mxCell>
        <mxCell id="f-dwd3AxqJhTK_1-yqeD-28" style="edgeStyle=orthogonalEdgeStyle;rounded=0;orthogonalLoop=1;jettySize=auto;html=1;exitX=0.5;exitY=1;exitDx=0;exitDy=0;entryX=0.5;entryY=0;entryDx=0;entryDy=0;endArrow=none;endFill=0;strokeColor=#666666;" edge="1" parent="f-dwd3AxqJhTK_1-yqeD-43" source="f-dwd3AxqJhTK_1-yqeD-29" target="f-dwd3AxqJhTK_1-yqeD-31">
          <mxGeometry relative="1" as="geometry" />
        </mxCell>
        <mxCell id="f-dwd3AxqJhTK_1-yqeD-29" value="" style="ellipse;whiteSpace=wrap;html=1;aspect=fixed;fillColor=#1ba1e2;fontColor=#ffffff;strokeColor=none;" vertex="1" parent="f-dwd3AxqJhTK_1-yqeD-43">
          <mxGeometry y="77.50537634408603" width="12.513630429234603" height="12.513630429234603" as="geometry" />
        </mxCell>
        <mxCell id="f-dwd3AxqJhTK_1-yqeD-30" style="rounded=0;orthogonalLoop=1;jettySize=auto;html=1;exitX=0;exitY=0.5;exitDx=0;exitDy=0;entryX=1;entryY=0.5;entryDx=0;entryDy=0;startArrow=none;startFill=0;endArrow=none;endFill=0;strokeWidth=1;fillColor=#eeeeee;strokeColor=#666666;" edge="1" parent="f-dwd3AxqJhTK_1-yqeD-43" target="f-dwd3AxqJhTK_1-yqeD-29" source="f-dwd3AxqJhTK_1-yqeD-19">
          <mxGeometry relative="1" as="geometry">
            <mxPoint x="22.664925557292083" y="39.8494623655914" as="sourcePoint" />
          </mxGeometry>
        </mxCell>
        <mxCell id="f-dwd3AxqJhTK_1-yqeD-31" value="" style="ellipse;whiteSpace=wrap;html=1;aspect=fixed;fillColor=#cdeb8b;strokeColor=none;" vertex="1" parent="f-dwd3AxqJhTK_1-yqeD-43">
          <mxGeometry y="99.44086021505376" width="12.513630429234603" height="12.513630429234603" as="geometry" />
        </mxCell>
        <mxCell id="f-dwd3AxqJhTK_1-yqeD-35" style="rounded=0;orthogonalLoop=1;jettySize=auto;html=1;exitX=0.5;exitY=1;exitDx=0;exitDy=0;entryX=0.5;entryY=0;entryDx=0;entryDy=0;endArrow=none;endFill=0;strokeColor=#666666;" edge="1" parent="f-dwd3AxqJhTK_1-yqeD-43" source="f-dwd3AxqJhTK_1-yqeD-32" target="f-dwd3AxqJhTK_1-yqeD-33">
          <mxGeometry relative="1" as="geometry" />
        </mxCell>
        <mxCell id="f-dwd3AxqJhTK_1-yqeD-32" value="" style="ellipse;whiteSpace=wrap;html=1;aspect=fixed;fillColor=#1ba1e2;fontColor=#ffffff;strokeColor=none;" vertex="1" parent="f-dwd3AxqJhTK_1-yqeD-43">
          <mxGeometry x="145.1231800608702" y="57.03225806451617" width="12.513630429234603" height="12.513630429234603" as="geometry" />
        </mxCell>
        <mxCell id="f-dwd3AxqJhTK_1-yqeD-33" value="" style="ellipse;whiteSpace=wrap;html=1;aspect=fixed;fillColor=#1ba1e2;fontColor=#ffffff;strokeColor=none;" vertex="1" parent="f-dwd3AxqJhTK_1-yqeD-43">
          <mxGeometry x="150.96870115982563" y="77.50537634408606" width="12.513630429234603" height="12.513630429234603" as="geometry" />
        </mxCell>
        <mxCell id="f-dwd3AxqJhTK_1-yqeD-34" style="edgeStyle=orthogonalEdgeStyle;rounded=0;orthogonalLoop=1;jettySize=auto;html=1;exitX=1;exitY=0.5;exitDx=0;exitDy=0;entryX=0;entryY=0.5;entryDx=0;entryDy=0;strokeColor=#666666;endArrow=none;endFill=0;" edge="1" parent="f-dwd3AxqJhTK_1-yqeD-43" source="f-dwd3AxqJhTK_1-yqeD-11" target="f-dwd3AxqJhTK_1-yqeD-32">
          <mxGeometry relative="1" as="geometry" />
        </mxCell>
        <mxCell id="f-dwd3AxqJhTK_1-yqeD-36" value="" style="ellipse;whiteSpace=wrap;html=1;aspect=fixed;fillColor=#cdeb8b;strokeColor=none;" vertex="1" parent="f-dwd3AxqJhTK_1-yqeD-43">
          <mxGeometry x="150.96870115982546" y="99.44086021505376" width="12.513630429234603" height="12.513630429234603" as="geometry" />
        </mxCell>
        <mxCell id="f-dwd3AxqJhTK_1-yqeD-38" style="rounded=0;orthogonalLoop=1;jettySize=auto;html=1;exitX=0.5;exitY=1;exitDx=0;exitDy=0;entryX=0.5;entryY=0;entryDx=0;entryDy=0;endArrow=none;endFill=0;strokeColor=#666666;" edge="1" parent="f-dwd3AxqJhTK_1-yqeD-43" source="f-dwd3AxqJhTK_1-yqeD-33" target="f-dwd3AxqJhTK_1-yqeD-36">
          <mxGeometry relative="1" as="geometry">
            <mxPoint x="158.6544789010446" y="78.96774193548387" as="sourcePoint" />
            <mxPoint x="164.74356337912306" y="84.81720430107528" as="targetPoint" />
          </mxGeometry>
        </mxCell>
        <mxCell id="f-dwd3AxqJhTK_1-yqeD-39" value="" style="ellipse;whiteSpace=wrap;html=1;aspect=fixed;fillColor=#1ba1e2;fontColor=#ffffff;strokeColor=none;" vertex="1" parent="f-dwd3AxqJhTK_1-yqeD-43">
          <mxGeometry x="120.98334292999914" y="20.47311827956994" width="12.513630429234603" height="12.513630429234603" as="geometry" />
        </mxCell>
        <mxCell id="f-dwd3AxqJhTK_1-yqeD-40" value="" style="ellipse;whiteSpace=wrap;html=1;aspect=fixed;fillColor=#1ba1e2;fontColor=#ffffff;strokeColor=none;" vertex="1" parent="f-dwd3AxqJhTK_1-yqeD-43">
          <mxGeometry x="120.98334292999922" width="12.513630429234603" height="12.513630429234603" as="geometry" />
        </mxCell>
        <mxCell id="f-dwd3AxqJhTK_1-yqeD-41" style="rounded=0;orthogonalLoop=1;jettySize=auto;html=1;exitX=0;exitY=0.5;exitDx=0;exitDy=0;entryX=1;entryY=0;entryDx=0;entryDy=0;endArrow=none;endFill=0;strokeColor=#666666;" edge="1" parent="f-dwd3AxqJhTK_1-yqeD-43" source="f-dwd3AxqJhTK_1-yqeD-40" target="f-dwd3AxqJhTK_1-yqeD-4">
          <mxGeometry relative="1" as="geometry">
            <mxPoint x="164.74356337912306" y="99.44086021505376" as="sourcePoint" />
            <mxPoint x="164.74356337912306" y="106.75268817204301" as="targetPoint" />
          </mxGeometry>
        </mxCell>
        <mxCell id="f-dwd3AxqJhTK_1-yqeD-42" style="rounded=0;orthogonalLoop=1;jettySize=auto;html=1;exitX=0;exitY=0.5;exitDx=0;exitDy=0;entryX=1;entryY=0.5;entryDx=0;entryDy=0;endArrow=none;endFill=0;strokeColor=#666666;" edge="1" parent="f-dwd3AxqJhTK_1-yqeD-43" source="f-dwd3AxqJhTK_1-yqeD-39" target="f-dwd3AxqJhTK_1-yqeD-4">
          <mxGeometry relative="1" as="geometry">
            <mxPoint x="171.50921279921025" y="106.75268817204301" as="sourcePoint" />
            <mxPoint x="171.50921279921025" y="114.06451612903227" as="targetPoint" />
          </mxGeometry>
        </mxCell>
        <mxCell id="f-dwd3AxqJhTK_1-yqeD-46" value="&lt;b&gt;PROs&lt;/b&gt;&lt;div&gt;- Scalability and resileincy&lt;br&gt;&lt;div&gt;- Managing the state of the users is much simpler&lt;/div&gt;&lt;div&gt;- No mixtures of different technologies (only akka)&lt;/div&gt;&lt;div&gt;&lt;b&gt;CONs&lt;/b&gt;&lt;/div&gt;&lt;div&gt;- no broker architecture: if in the future some other microservice will be interested in receiving these events the architecture must be changed (but... who may needs locations data? For sure not a current requirement)&lt;/div&gt;&lt;/div&gt;" style="text;html=1;align=center;verticalAlign=middle;whiteSpace=wrap;rounded=0;fillColor=#FFFAE8;strokeColor=#d6b656;" vertex="1" parent="1">
          <mxGeometry x="710.99" y="674" width="420" height="120" as="geometry" />
        </mxCell>
        <mxCell id="f-dwd3AxqJhTK_1-yqeD-47" value="&lt;div&gt;&lt;br&gt;&lt;/div&gt;&lt;div&gt;&lt;br&gt;&lt;/div&gt;&lt;div&gt;&lt;br&gt;&lt;/div&gt;&lt;div&gt;&lt;br&gt;&lt;/div&gt;&lt;div style=&quot;font-size: 8px;&quot;&gt;&lt;font style=&quot;font-size: 8px;&quot;&gt;&lt;br&gt;&lt;/font&gt;&lt;/div&gt;&lt;div style=&quot;font-size: 8px;&quot;&gt;&lt;font style=&quot;font-size: 8px;&quot;&gt;&lt;br&gt;&lt;/font&gt;&lt;/div&gt;&lt;div style=&quot;font-size: 8px;&quot;&gt;&lt;font style=&quot;font-size: 8px;&quot;&gt;Event Sourcing&lt;/font&gt;&lt;/div&gt;&lt;div style=&quot;font-size: 8px;&quot;&gt;&lt;font style=&quot;font-size: 8px;&quot;&gt;DB&lt;/font&gt;&lt;/div&gt;" style="strokeWidth=1;html=1;shape=mxgraph.flowchart.database;whiteSpace=wrap;" vertex="1" parent="1">
          <mxGeometry x="740.99" y="527" width="35.79" height="44" as="geometry" />
        </mxCell>
        <mxCell id="f-dwd3AxqJhTK_1-yqeD-48" style="edgeStyle=orthogonalEdgeStyle;rounded=0;orthogonalLoop=1;jettySize=auto;html=1;entryX=1;entryY=0.5;entryDx=0;entryDy=0;entryPerimeter=0;" edge="1" parent="1" source="f-dwd3AxqJhTK_1-yqeD-45" target="f-dwd3AxqJhTK_1-yqeD-47">
          <mxGeometry relative="1" as="geometry" />
        </mxCell>
        <mxCell id="f-dwd3AxqJhTK_1-yqeD-49" value="UNKNOWN (TO ME) which one is better in terms of performance!" style="rounded=1;whiteSpace=wrap;html=1;strokeColor=none;fillColor=#ffff88;" vertex="1" parent="1">
          <mxGeometry x="561.95" y="754" width="159.04" height="70" as="geometry" />
        </mxCell>
      </root>
    </mxGraphModel>
  </diagram>
  <diagram id="R8bgQv_p0yBAU962EBJR" name="bounded-contexts">
    <mxGraphModel dx="513" dy="372" grid="1" gridSize="10" guides="1" tooltips="1" connect="1" arrows="1" fold="1" page="1" pageScale="1" pageWidth="1169" pageHeight="827" math="0" shadow="0">
      <root>
        <mxCell id="0" />
        <mxCell id="1" parent="0" />
        <mxCell id="vu7BS2DAdBNHLzadgnK4-1" style="rounded=0;orthogonalLoop=1;jettySize=auto;html=1;exitX=0.5;exitY=1;exitDx=0;exitDy=0;entryX=0.5;entryY=0;entryDx=0;entryDy=0;endArrow=none;startFill=0;" parent="1" source="vu7BS2DAdBNHLzadgnK4-15" target="vu7BS2DAdBNHLzadgnK4-12" edge="1">
          <mxGeometry relative="1" as="geometry">
            <mxPoint x="440" y="270" as="sourcePoint" />
          </mxGeometry>
        </mxCell>
        <mxCell id="vu7BS2DAdBNHLzadgnK4-5" style="rounded=0;orthogonalLoop=1;jettySize=auto;html=1;entryX=0.5;entryY=1;entryDx=0;entryDy=0;startArrow=none;startFill=0;endArrow=none;endFill=0;exitX=0.5;exitY=0;exitDx=0;exitDy=0;" parent="1" source="vu7BS2DAdBNHLzadgnK4-19" target="vu7BS2DAdBNHLzadgnK4-12" edge="1">
          <mxGeometry relative="1" as="geometry">
            <mxPoint x="490.5" y="420" as="sourcePoint" />
          </mxGeometry>
        </mxCell>
        <mxCell id="vu7BS2DAdBNHLzadgnK4-8" style="rounded=0;orthogonalLoop=1;jettySize=auto;html=1;exitX=0;exitY=1;exitDx=0;exitDy=0;entryX=0.75;entryY=0;entryDx=0;entryDy=0;startArrow=none;startFill=0;endArrow=none;" parent="1" source="vu7BS2DAdBNHLzadgnK4-16" target="vu7BS2DAdBNHLzadgnK4-12" edge="1">
          <mxGeometry relative="1" as="geometry">
            <mxPoint x="547.7157287525381" y="258.2842712474619" as="sourcePoint" />
          </mxGeometry>
        </mxCell>
        <mxCell id="vu7BS2DAdBNHLzadgnK4-35" style="rounded=0;orthogonalLoop=1;jettySize=auto;html=1;exitX=1;exitY=0.5;exitDx=0;exitDy=0;entryX=0.046;entryY=0.315;entryDx=0;entryDy=0;startArrow=none;startFill=0;endArrow=none;endFill=0;entryPerimeter=0;" parent="1" source="vu7BS2DAdBNHLzadgnK4-12" target="vu7BS2DAdBNHLzadgnK4-20" edge="1">
          <mxGeometry relative="1" as="geometry" />
        </mxCell>
        <mxCell id="vu7BS2DAdBNHLzadgnK4-12" value="&lt;p style=&quot;line-height: 130%;&quot;&gt;&lt;br&gt;&lt;/p&gt;" style="rounded=1;whiteSpace=wrap;html=1;fillColor=#fff2cc;strokeColor=#000000;shadow=0;" parent="1" vertex="1">
          <mxGeometry x="439.5" y="327.5" width="110" height="35" as="geometry" />
        </mxCell>
        <mxCell id="vu7BS2DAdBNHLzadgnK4-15" value="&lt;b&gt;Notifications&lt;/b&gt;&lt;div&gt;&lt;b&gt;Context&lt;/b&gt;&lt;/div&gt;" style="ellipse;whiteSpace=wrap;html=1;fillColor=#dae8fc;strokeColor=#000000;shadow=1;" parent="1" vertex="1">
          <mxGeometry x="390" y="220" width="100" height="60" as="geometry" />
        </mxCell>
        <mxCell id="vu7BS2DAdBNHLzadgnK4-16" value="&lt;b&gt;Chat&lt;/b&gt;&lt;div&gt;&lt;b&gt;Context&lt;/b&gt;&lt;/div&gt;" style="ellipse;whiteSpace=wrap;html=1;fillColor=#dae8fc;strokeColor=#000000;shadow=1;" parent="1" vertex="1">
          <mxGeometry x="549.5" y="240" width="100" height="60" as="geometry" />
        </mxCell>
        <mxCell id="vu7BS2DAdBNHLzadgnK4-18" style="rounded=0;orthogonalLoop=1;jettySize=auto;html=1;exitX=1;exitY=0.5;exitDx=0;exitDy=0;entryX=0;entryY=0.5;entryDx=0;entryDy=0;startArrow=none;startFill=0;endArrow=none;endFill=0;" parent="1" source="vu7BS2DAdBNHLzadgnK4-17" target="vu7BS2DAdBNHLzadgnK4-12" edge="1">
          <mxGeometry relative="1" as="geometry" />
        </mxCell>
        <mxCell id="vu7BS2DAdBNHLzadgnK4-17" value="&lt;b&gt;Location&lt;/b&gt;&lt;div&gt;&lt;b&gt;Context&lt;/b&gt;&lt;/div&gt;" style="ellipse;whiteSpace=wrap;html=1;fillColor=#dae8fc;strokeColor=#000000;shadow=1;" parent="1" vertex="1">
          <mxGeometry x="320" y="315" width="100" height="60" as="geometry" />
        </mxCell>
        <mxCell id="vu7BS2DAdBNHLzadgnK4-37" style="rounded=0;orthogonalLoop=1;jettySize=auto;html=1;entryX=0;entryY=1;entryDx=0;entryDy=0;" parent="1" source="vu7BS2DAdBNHLzadgnK4-19" target="vu7BS2DAdBNHLzadgnK4-20" edge="1">
          <mxGeometry relative="1" as="geometry" />
        </mxCell>
        <mxCell id="vu7BS2DAdBNHLzadgnK4-19" value="&lt;b&gt;Groups&lt;/b&gt;&lt;div&gt;&lt;b&gt;Management&lt;/b&gt;&lt;/div&gt;&lt;div&gt;&lt;b&gt;Context&lt;/b&gt;&lt;/div&gt;" style="ellipse;whiteSpace=wrap;html=1;fillColor=#dae8fc;strokeColor=#000000;shadow=1;" parent="1" vertex="1">
          <mxGeometry x="430" y="410" width="100" height="60" as="geometry" />
        </mxCell>
        <mxCell id="vu7BS2DAdBNHLzadgnK4-20" value="&lt;b&gt;Users&lt;br&gt;Management&lt;/b&gt;&lt;div&gt;&lt;b&gt;Context&lt;/b&gt;&lt;/div&gt;" style="ellipse;whiteSpace=wrap;html=1;fillColor=#dae8fc;strokeColor=#000000;shadow=1;" parent="1" vertex="1">
          <mxGeometry x="585" y="354" width="100" height="60" as="geometry" />
        </mxCell>
        <mxCell id="vu7BS2DAdBNHLzadgnK4-38" value="&lt;font face=&quot;Georgia&quot;&gt;U&lt;/font&gt;" style="text;html=1;align=center;verticalAlign=middle;whiteSpace=wrap;rounded=0;" parent="1" vertex="1">
          <mxGeometry x="570" y="382" width="20" height="34" as="geometry" />
        </mxCell>
        <mxCell id="vu7BS2DAdBNHLzadgnK4-39" value="&lt;font face=&quot;Georgia&quot;&gt;D&lt;/font&gt;" style="text;html=1;align=center;verticalAlign=middle;whiteSpace=wrap;rounded=0;" parent="1" vertex="1">
          <mxGeometry x="520" y="396" width="20" height="34" as="geometry" />
        </mxCell>
        <mxCell id="vu7BS2DAdBNHLzadgnK4-40" value="&lt;i&gt;&lt;font style=&quot;font-size: 12px;&quot; face=&quot;Georgia&quot;&gt;Conforms&lt;/font&gt;&lt;/i&gt;" style="text;html=1;align=center;verticalAlign=middle;whiteSpace=wrap;rounded=0;" parent="1" vertex="1">
          <mxGeometry x="564" y="411" width="20" height="34" as="geometry" />
        </mxCell>
        <mxCell id="78YHEQyOWSIhtWjyDFQG-1" value="&lt;i style=&quot;font-family: Georgia;&quot;&gt;&lt;b&gt;Shared Kernel&lt;/b&gt;&lt;/i&gt;" style="text;html=1;align=center;verticalAlign=middle;whiteSpace=wrap;rounded=0;" vertex="1" parent="1">
          <mxGeometry x="439.5" y="330" width="110.5" height="30" as="geometry" />
        </mxCell>
      </root>
    </mxGraphModel>
  </diagram>
  <diagram id="yqyhhjlYmO4Jq_8afMvZ" name="LS-sharding">
    <mxGraphModel dx="-192" dy="-119" grid="1" gridSize="10" guides="1" tooltips="1" connect="1" arrows="1" fold="1" page="1" pageScale="1" pageWidth="1169" pageHeight="827" math="0" shadow="0">
      <root>
        <mxCell id="0" />
        <mxCell id="1" parent="0" />
        <mxCell id="tAmOZ4RS7E-WKfpixOWz-2" value=":location-service-&lt;div&gt;instance-1&lt;div&gt;&lt;br&gt;&lt;/div&gt;&lt;/div&gt;" style="verticalAlign=top;align=left;spacingTop=8;spacingLeft=2;spacingRight=12;shape=cube;size=10;direction=south;fontStyle=4;html=1;whiteSpace=wrap;" parent="1" vertex="1">
          <mxGeometry x="1363.25" y="1040" width="420" height="340" as="geometry" />
        </mxCell>
        <mxCell id="tAmOZ4RS7E-WKfpixOWz-3" value=":location-service-&lt;div&gt;instance-2&lt;div&gt;&lt;br&gt;&lt;/div&gt;&lt;/div&gt;" style="verticalAlign=top;align=left;spacingTop=8;spacingLeft=2;spacingRight=12;shape=cube;size=10;direction=south;fontStyle=4;html=1;whiteSpace=wrap;" parent="1" vertex="1">
          <mxGeometry x="1827.75" y="1040" width="420" height="340" as="geometry" />
        </mxCell>
        <mxCell id="qFUMAHFpyLW99q9EBqqx-67" style="edgeStyle=orthogonalEdgeStyle;rounded=0;orthogonalLoop=1;jettySize=auto;html=1;entryX=0.5;entryY=0;entryDx=0;entryDy=0;endArrow=open;endFill=0;dashed=1;" parent="1" source="qFUMAHFpyLW99q9EBqqx-63" target="qFUMAHFpyLW99q9EBqqx-65" edge="1">
          <mxGeometry relative="1" as="geometry" />
        </mxCell>
        <mxCell id="qFUMAHFpyLW99q9EBqqx-63" value="User: John&lt;div&gt;Group: &#39;Pizza Pals&#39;&lt;/div&gt;" style="shape=umlActor;verticalLabelPosition=bottom;verticalAlign=top;html=1;outlineConnect=0;" parent="1" vertex="1">
          <mxGeometry x="1554.5" y="930" width="30" height="60" as="geometry" />
        </mxCell>
        <mxCell id="qFUMAHFpyLW99q9EBqqx-125" style="edgeStyle=orthogonalEdgeStyle;rounded=0;orthogonalLoop=1;jettySize=auto;html=1;entryX=0.5;entryY=1;entryDx=0;entryDy=0;dashed=1;endArrow=none;endFill=0;exitX=1;exitY=0.5;exitDx=0;exitDy=0;" parent="1" source="qFUMAHFpyLW99q9EBqqx-97" target="qFUMAHFpyLW99q9EBqqx-122" edge="1">
          <mxGeometry relative="1" as="geometry">
            <Array as="points">
              <mxPoint x="1939" y="1410" />
            </Array>
          </mxGeometry>
        </mxCell>
        <mxCell id="qFUMAHFpyLW99q9EBqqx-64" value="&lt;div style=&quot;font-size: 10px;&quot;&gt;&lt;font style=&quot;font-size: 10px;&quot;&gt;&lt;br&gt;John -&amp;nbsp;&lt;/font&gt;&lt;span style=&quot;background-color: initial;&quot;&gt;Pizza Pals&lt;/span&gt;&lt;/div&gt;&lt;font style=&quot;font-size: 10px;&quot;&gt;Websocket&amp;nbsp;&lt;/font&gt;&lt;div&gt;&lt;span style=&quot;font-size: 10px; background-color: initial;&quot;&gt;handler&lt;/span&gt;&lt;/div&gt;" style="ellipse;shape=umlControl;whiteSpace=wrap;html=1;fillColor=#f8cecc;strokeColor=#b85450;" parent="1" vertex="1">
          <mxGeometry x="1526.25" y="1106" width="85" height="94" as="geometry" />
        </mxCell>
        <mxCell id="qFUMAHFpyLW99q9EBqqx-65" value="&lt;i&gt;web socket service&lt;/i&gt;" style="html=1;align=center;verticalAlign=middle;dashed=0;whiteSpace=wrap;fillColor=#fff2cc;strokeColor=#d6b656;" parent="1" vertex="1">
          <mxGeometry x="1493" y="1060" width="151" height="30" as="geometry" />
        </mxCell>
        <mxCell id="qFUMAHFpyLW99q9EBqqx-66" value="&lt;div&gt;User: Sara&lt;/div&gt;&lt;div&gt;Group: &#39;Pizza Pals&#39;&lt;/div&gt;" style="shape=umlActor;verticalLabelPosition=bottom;verticalAlign=top;html=1;outlineConnect=0;" parent="1" vertex="1">
          <mxGeometry x="2022.75" y="930" width="30" height="60" as="geometry" />
        </mxCell>
        <mxCell id="qFUMAHFpyLW99q9EBqqx-68" value="&lt;i&gt;web socket service&lt;/i&gt;" style="html=1;align=center;verticalAlign=middle;dashed=0;whiteSpace=wrap;fillColor=#fff2cc;strokeColor=#d6b656;" parent="1" vertex="1">
          <mxGeometry x="1962.25" y="1060" width="151" height="30" as="geometry" />
        </mxCell>
        <mxCell id="qFUMAHFpyLW99q9EBqqx-72" style="edgeStyle=elbowEdgeStyle;rounded=1;orthogonalLoop=1;jettySize=auto;html=1;entryX=0;entryY=1;entryDx=0;entryDy=0;entryPerimeter=0;exitX=-0.008;exitY=0.546;exitDx=0;exitDy=0;exitPerimeter=0;strokeColor=default;curved=0;endArrow=open;endFill=0;dashed=1;" parent="1" source="qFUMAHFpyLW99q9EBqqx-64" target="qFUMAHFpyLW99q9EBqqx-63" edge="1">
          <mxGeometry relative="1" as="geometry">
            <mxPoint x="1507.885" y="1157.6060000000002" as="sourcePoint" />
            <mxPoint x="1579.5" y="1153" as="targetPoint" />
            <Array as="points">
              <mxPoint x="1503.25" y="1080" />
            </Array>
          </mxGeometry>
        </mxCell>
        <mxCell id="qFUMAHFpyLW99q9EBqqx-77" style="edgeStyle=orthogonalEdgeStyle;rounded=0;orthogonalLoop=1;jettySize=auto;html=1;entryX=0.5;entryY=0;entryDx=0;entryDy=0;endArrow=open;endFill=0;dashed=1;" parent="1" edge="1">
          <mxGeometry relative="1" as="geometry">
            <mxPoint x="2036.25" y="990" as="sourcePoint" />
            <mxPoint x="2036.25" y="1060" as="targetPoint" />
          </mxGeometry>
        </mxCell>
        <mxCell id="qFUMAHFpyLW99q9EBqqx-78" style="edgeStyle=orthogonalEdgeStyle;rounded=0;orthogonalLoop=1;jettySize=auto;html=1;entryX=0.519;entryY=0.139;entryDx=0;entryDy=0;entryPerimeter=0;endArrow=open;endFill=0;dashed=1;exitX=0.5;exitY=1;exitDx=0;exitDy=0;" parent="1" edge="1">
          <mxGeometry relative="1" as="geometry">
            <mxPoint x="2036.9300000000003" y="1090" as="sourcePoint" />
            <mxPoint x="2038.545" y="1119.066" as="targetPoint" />
            <Array as="points">
              <mxPoint x="2038.18" y="1090" />
            </Array>
          </mxGeometry>
        </mxCell>
        <mxCell id="qFUMAHFpyLW99q9EBqqx-79" style="edgeStyle=elbowEdgeStyle;rounded=1;orthogonalLoop=1;jettySize=auto;html=1;entryX=1;entryY=1;entryDx=0;entryDy=0;entryPerimeter=0;exitX=1.035;exitY=0.515;exitDx=0;exitDy=0;exitPerimeter=0;strokeColor=default;curved=0;endArrow=open;endFill=0;dashed=1;" parent="1" source="qFUMAHFpyLW99q9EBqqx-94" edge="1">
          <mxGeometry relative="1" as="geometry">
            <mxPoint x="1994.1299999999997" y="1154.3740000000003" as="sourcePoint" />
            <mxPoint x="2051.12" y="980" as="targetPoint" />
            <Array as="points">
              <mxPoint x="2128.37" y="1070" />
            </Array>
          </mxGeometry>
        </mxCell>
        <mxCell id="qFUMAHFpyLW99q9EBqqx-84" value="" style="ellipse;shape=umlControl;whiteSpace=wrap;html=1;fillColor=#d5e8d4;strokeColor=#82b366;shadow=1;" parent="1" vertex="1">
          <mxGeometry x="1864.25" y="1206" width="110" height="120" as="geometry" />
        </mxCell>
        <mxCell id="qFUMAHFpyLW99q9EBqqx-85" value="" style="ellipse;shape=umlControl;whiteSpace=wrap;html=1;fillColor=#d5e8d4;strokeColor=#82b366;shadow=1;" parent="1" vertex="1">
          <mxGeometry x="1874.25" y="1216" width="110" height="120" as="geometry" />
        </mxCell>
        <mxCell id="qFUMAHFpyLW99q9EBqqx-86" value="&lt;div style=&quot;text-align: start; font-size: 10px;&quot;&gt;&lt;font style=&quot;font-size: 10px;&quot;&gt;&lt;i&gt;&amp;lt;&amp;lt;&lt;font style=&quot;font-size: 10px;&quot;&gt;Group Manager&amp;gt;&amp;gt;&lt;/font&gt;&lt;/i&gt;&lt;/font&gt;&lt;/div&gt;&lt;div style=&quot;font-size: 10px;&quot;&gt;&lt;font style=&quot;font-size: 10px;&quot;&gt;Pizza Pals&lt;/font&gt;&lt;/div&gt;" style="ellipse;shape=umlControl;whiteSpace=wrap;html=1;fillColor=#d5e8d4;strokeColor=#82b366;shadow=1;" parent="1" vertex="1">
          <mxGeometry x="1884.25" y="1226" width="110" height="120" as="geometry" />
        </mxCell>
        <mxCell id="qFUMAHFpyLW99q9EBqqx-90" value="&lt;div style=&quot;font-size: 10px;&quot;&gt;&lt;br&gt;&lt;/div&gt;" style="ellipse;shape=umlControl;whiteSpace=wrap;html=1;fillColor=#dae8fc;strokeColor=#6c8ebf;shadow=1;" parent="1" vertex="1">
          <mxGeometry x="2113.25" y="1231" width="110" height="120" as="geometry" />
        </mxCell>
        <mxCell id="qFUMAHFpyLW99q9EBqqx-91" value="&lt;div style=&quot;font-size: 10px;&quot;&gt;&lt;font style=&quot;font-size: 10px;&quot;&gt;&amp;lt;&amp;lt;RealTime&lt;br&gt;&lt;/font&gt;&lt;span style=&quot;background-color: initial;&quot;&gt;UserTracker&amp;gt;&amp;gt;&lt;/span&gt;&lt;/div&gt;&lt;div style=&quot;font-size: 10px;&quot;&gt;&lt;font style=&quot;font-size: 10px;&quot;&gt;John - Pizza Pals&lt;/font&gt;&lt;/div&gt;" style="ellipse;shape=umlControl;whiteSpace=wrap;html=1;fillColor=#dae8fc;strokeColor=#6c8ebf;shadow=1;" parent="1" vertex="1">
          <mxGeometry x="2103.25" y="1237" width="110" height="120" as="geometry" />
        </mxCell>
        <mxCell id="qFUMAHFpyLW99q9EBqqx-92" value="&lt;div style=&quot;font-size: 10px;&quot;&gt;&lt;br&gt;&lt;/div&gt;" style="ellipse;shape=umlControl;whiteSpace=wrap;html=1;fillColor=#dae8fc;strokeColor=#6c8ebf;shadow=1;" parent="1" vertex="1">
          <mxGeometry x="1650" y="1097" width="110" height="120" as="geometry" />
        </mxCell>
        <mxCell id="qFUMAHFpyLW99q9EBqqx-93" value="&lt;div style=&quot;font-size: 10px;&quot;&gt;&lt;font style=&quot;font-size: 10px;&quot;&gt;&amp;lt;&amp;lt;RealTime&lt;br&gt;&lt;/font&gt;&lt;span style=&quot;background-color: initial;&quot;&gt;UserTracker&amp;gt;&amp;gt;&lt;/span&gt;&lt;/div&gt;&lt;div style=&quot;font-size: 10px;&quot;&gt;&lt;font style=&quot;font-size: 10px;&quot;&gt;Sara - Pizza Pals&lt;/font&gt;&lt;/div&gt;" style="ellipse;shape=umlControl;whiteSpace=wrap;html=1;fillColor=#dae8fc;strokeColor=#6c8ebf;shadow=1;" parent="1" vertex="1">
          <mxGeometry x="1640.25" y="1103" width="110" height="120" as="geometry" />
        </mxCell>
        <mxCell id="qFUMAHFpyLW99q9EBqqx-94" value="&lt;div style=&quot;font-size: 10px;&quot;&gt;&lt;font style=&quot;font-size: 10px;&quot;&gt;&lt;br&gt;Sara -&amp;nbsp;&lt;/font&gt;&lt;span style=&quot;background-color: initial;&quot;&gt;Pizza Pals&lt;/span&gt;&lt;/div&gt;&lt;font style=&quot;font-size: 10px;&quot;&gt;Websocket&amp;nbsp;&lt;/font&gt;&lt;div&gt;&lt;span style=&quot;font-size: 10px; background-color: initial;&quot;&gt;handler&lt;/span&gt;&lt;/div&gt;" style="ellipse;shape=umlControl;whiteSpace=wrap;html=1;fillColor=#f8cecc;strokeColor=#b85450;" parent="1" vertex="1">
          <mxGeometry x="1995.25" y="1106" width="85" height="94" as="geometry" />
        </mxCell>
        <mxCell id="qFUMAHFpyLW99q9EBqqx-96" value="&lt;font color=&quot;#ffffff&quot;&gt;&lt;b&gt;1a&lt;/b&gt;&lt;/font&gt;" style="ellipse;whiteSpace=wrap;html=1;fillColor=#000000;" parent="1" vertex="1">
          <mxGeometry x="1579.5" y="1086" width="25" height="20" as="geometry" />
        </mxCell>
        <mxCell id="qFUMAHFpyLW99q9EBqqx-99" value="" style="edgeStyle=orthogonalEdgeStyle;rounded=0;orthogonalLoop=1;jettySize=auto;html=1;entryX=0.522;entryY=1.001;entryDx=0;entryDy=0;entryPerimeter=0;dashed=1;endArrow=open;endFill=0;exitX=0.476;exitY=1.006;exitDx=0;exitDy=0;exitPerimeter=0;" parent="1" source="qFUMAHFpyLW99q9EBqqx-64" target="qFUMAHFpyLW99q9EBqqx-97" edge="1">
          <mxGeometry relative="1" as="geometry">
            <mxPoint x="1587.25" y="1200" as="sourcePoint" />
            <mxPoint x="2160.25" y="1336" as="targetPoint" />
            <Array as="points">
              <mxPoint x="1567" y="1410" />
              <mxPoint x="1877" y="1410" />
            </Array>
          </mxGeometry>
        </mxCell>
        <mxCell id="qFUMAHFpyLW99q9EBqqx-144" value="new update" style="edgeLabel;html=1;align=center;verticalAlign=middle;resizable=0;points=[];" parent="qFUMAHFpyLW99q9EBqqx-99" vertex="1" connectable="0">
          <mxGeometry x="0.7193" y="-2" relative="1" as="geometry">
            <mxPoint x="11" y="-2" as="offset" />
          </mxGeometry>
        </mxCell>
        <mxCell id="qFUMAHFpyLW99q9EBqqx-97" value="&lt;font color=&quot;#ffffff&quot;&gt;&lt;b&gt;3a&lt;/b&gt;&lt;/font&gt;" style="ellipse;whiteSpace=wrap;html=1;fillColor=#000000;" parent="1" vertex="1">
          <mxGeometry x="1864.25" y="1400" width="25" height="20" as="geometry" />
        </mxCell>
        <mxCell id="qFUMAHFpyLW99q9EBqqx-100" style="edgeStyle=orthogonalEdgeStyle;rounded=0;orthogonalLoop=1;jettySize=auto;html=1;entryX=0.516;entryY=1.007;entryDx=0;entryDy=0;entryPerimeter=0;dashed=1;endArrow=open;endFill=0;" parent="1" source="qFUMAHFpyLW99q9EBqqx-97" target="qFUMAHFpyLW99q9EBqqx-91" edge="1">
          <mxGeometry relative="1" as="geometry" />
        </mxCell>
        <mxCell id="qFUMAHFpyLW99q9EBqqx-101" value="" style="ellipse;shape=umlControl;whiteSpace=wrap;html=1;fillColor=#d5e8d4;strokeColor=#82b366;shadow=1;" parent="1" vertex="1">
          <mxGeometry x="1410" y="1206" width="110" height="120" as="geometry" />
        </mxCell>
        <mxCell id="qFUMAHFpyLW99q9EBqqx-102" value="" style="ellipse;shape=umlControl;whiteSpace=wrap;html=1;fillColor=#d5e8d4;strokeColor=#82b366;shadow=1;" parent="1" vertex="1">
          <mxGeometry x="1420" y="1216" width="110" height="120" as="geometry" />
        </mxCell>
        <mxCell id="qFUMAHFpyLW99q9EBqqx-103" value="&lt;div style=&quot;text-align: start; font-size: 10px;&quot;&gt;&lt;font style=&quot;font-size: 10px;&quot;&gt;&lt;i&gt;&amp;lt;&amp;lt;&lt;font style=&quot;font-size: 10px;&quot;&gt;Group Manager&amp;gt;&amp;gt;&lt;/font&gt;&lt;/i&gt;&lt;/font&gt;&lt;/div&gt;" style="ellipse;shape=umlControl;whiteSpace=wrap;html=1;fillColor=#d5e8d4;strokeColor=#82b366;shadow=1;" parent="1" vertex="1">
          <mxGeometry x="1430" y="1226" width="110" height="120" as="geometry" />
        </mxCell>
        <mxCell id="qFUMAHFpyLW99q9EBqqx-106" style="edgeStyle=orthogonalEdgeStyle;rounded=0;orthogonalLoop=1;jettySize=auto;html=1;entryX=1.004;entryY=0.587;entryDx=0;entryDy=0;entryPerimeter=0;dashed=1;endArrow=open;endFill=0;exitX=0;exitY=0.5;exitDx=0;exitDy=0;" parent="1" source="qFUMAHFpyLW99q9EBqqx-108" target="qFUMAHFpyLW99q9EBqqx-93" edge="1">
          <mxGeometry relative="1" as="geometry">
            <mxPoint x="1783.2500000000002" y="1173" as="sourcePoint" />
          </mxGeometry>
        </mxCell>
        <mxCell id="qFUMAHFpyLW99q9EBqqx-107" value="&lt;font color=&quot;#ffffff&quot;&gt;&lt;b&gt;1b&lt;/b&gt;&lt;/font&gt;" style="ellipse;whiteSpace=wrap;html=1;fillColor=#000000;" parent="1" vertex="1">
          <mxGeometry x="2048.75" y="1083" width="25" height="20" as="geometry" />
        </mxCell>
        <mxCell id="qFUMAHFpyLW99q9EBqqx-110" style="edgeStyle=orthogonalEdgeStyle;rounded=0;orthogonalLoop=1;jettySize=auto;html=1;entryX=0.521;entryY=0.13;entryDx=0;entryDy=0;entryPerimeter=0;endArrow=open;endFill=0;dashed=1;" parent="1" source="qFUMAHFpyLW99q9EBqqx-111" target="qFUMAHFpyLW99q9EBqqx-86" edge="1">
          <mxGeometry relative="1" as="geometry" />
        </mxCell>
        <mxCell id="qFUMAHFpyLW99q9EBqqx-112" value="" style="edgeStyle=orthogonalEdgeStyle;rounded=0;orthogonalLoop=1;jettySize=auto;html=1;entryX=0.521;entryY=0.13;entryDx=0;entryDy=0;entryPerimeter=0;endArrow=none;endFill=0;dashed=1;" parent="1" source="qFUMAHFpyLW99q9EBqqx-94" target="qFUMAHFpyLW99q9EBqqx-111" edge="1">
          <mxGeometry relative="1" as="geometry">
            <mxPoint x="1995" y="1153" as="sourcePoint" />
            <mxPoint x="1942" y="1242" as="targetPoint" />
            <Array as="points">
              <mxPoint x="1943" y="1153" />
            </Array>
          </mxGeometry>
        </mxCell>
        <mxCell id="qFUMAHFpyLW99q9EBqqx-129" value="subscribe&amp;nbsp;" style="edgeLabel;html=1;align=center;verticalAlign=middle;resizable=0;points=[];" parent="qFUMAHFpyLW99q9EBqqx-112" vertex="1" connectable="0">
          <mxGeometry x="0.2518" relative="1" as="geometry">
            <mxPoint as="offset" />
          </mxGeometry>
        </mxCell>
        <mxCell id="qFUMAHFpyLW99q9EBqqx-111" value="&lt;font color=&quot;#ffffff&quot;&gt;&lt;b&gt;2b&lt;/b&gt;&lt;/font&gt;" style="ellipse;whiteSpace=wrap;html=1;fillColor=#000000;" parent="1" vertex="1">
          <mxGeometry x="1930" y="1183" width="25" height="20" as="geometry" />
        </mxCell>
        <mxCell id="qFUMAHFpyLW99q9EBqqx-117" value="" style="edgeStyle=orthogonalEdgeStyle;rounded=0;orthogonalLoop=1;jettySize=auto;html=1;entryX=0.529;entryY=0.012;entryDx=0;entryDy=0;entryPerimeter=0;dashed=1;endArrow=none;endFill=0;" parent="1" target="qFUMAHFpyLW99q9EBqqx-108" edge="1">
          <mxGeometry relative="1" as="geometry">
            <mxPoint x="1994.03" y="1172.76" as="sourcePoint" />
            <mxPoint x="1805.005" y="1163" as="targetPoint" />
            <Array as="points">
              <mxPoint x="1804.78" y="1172.76" />
            </Array>
          </mxGeometry>
        </mxCell>
        <mxCell id="qFUMAHFpyLW99q9EBqqx-141" value="new update" style="edgeLabel;html=1;align=center;verticalAlign=middle;resizable=0;points=[];" parent="qFUMAHFpyLW99q9EBqqx-117" vertex="1" connectable="0">
          <mxGeometry x="0.4803" y="1" relative="1" as="geometry">
            <mxPoint x="21" y="-1" as="offset" />
          </mxGeometry>
        </mxCell>
        <mxCell id="qFUMAHFpyLW99q9EBqqx-108" value="&lt;font color=&quot;#ffffff&quot;&gt;&lt;b&gt;3b&lt;/b&gt;&lt;/font&gt;" style="ellipse;whiteSpace=wrap;html=1;fillColor=#000000;" parent="1" vertex="1">
          <mxGeometry x="1800" y="1163" width="25" height="20" as="geometry" />
        </mxCell>
        <mxCell id="qFUMAHFpyLW99q9EBqqx-118" style="edgeStyle=orthogonalEdgeStyle;rounded=0;orthogonalLoop=1;jettySize=auto;html=1;exitX=0.5;exitY=1;exitDx=0;exitDy=0;entryX=0.496;entryY=0.125;entryDx=0;entryDy=0;entryPerimeter=0;endArrow=open;endFill=0;dashed=1;" parent="1" source="qFUMAHFpyLW99q9EBqqx-65" target="qFUMAHFpyLW99q9EBqqx-64" edge="1">
          <mxGeometry relative="1" as="geometry" />
        </mxCell>
        <mxCell id="qFUMAHFpyLW99q9EBqqx-120" value="" style="edgeStyle=orthogonalEdgeStyle;rounded=0;orthogonalLoop=1;jettySize=auto;html=1;entryX=0.53;entryY=1.023;entryDx=0;entryDy=0;entryPerimeter=0;endArrow=none;endFill=0;dashed=1;" parent="1" source="qFUMAHFpyLW99q9EBqqx-86" target="qFUMAHFpyLW99q9EBqqx-119" edge="1">
          <mxGeometry relative="1" as="geometry">
            <mxPoint x="1994" y="1286" as="sourcePoint" />
            <mxPoint x="2040" y="1202" as="targetPoint" />
          </mxGeometry>
        </mxCell>
        <mxCell id="qFUMAHFpyLW99q9EBqqx-143" value="broadcast&amp;nbsp;&lt;div&gt;groups events&lt;/div&gt;" style="edgeLabel;html=1;align=center;verticalAlign=middle;resizable=0;points=[];" parent="qFUMAHFpyLW99q9EBqqx-120" vertex="1" connectable="0">
          <mxGeometry x="0.4699" y="-2" relative="1" as="geometry">
            <mxPoint y="-8" as="offset" />
          </mxGeometry>
        </mxCell>
        <mxCell id="qFUMAHFpyLW99q9EBqqx-119" value="&lt;font color=&quot;#ffffff&quot;&gt;&lt;b&gt;5&lt;/b&gt;&lt;/font&gt;" style="ellipse;whiteSpace=wrap;html=1;fillColor=#000000;" parent="1" vertex="1">
          <mxGeometry x="2027.75" y="1226" width="25" height="20" as="geometry" />
        </mxCell>
        <mxCell id="qFUMAHFpyLW99q9EBqqx-121" style="edgeStyle=orthogonalEdgeStyle;rounded=0;orthogonalLoop=1;jettySize=auto;html=1;startArrow=none;startFill=0;dashed=1;endArrow=open;endFill=0;" parent="1" source="qFUMAHFpyLW99q9EBqqx-122" target="qFUMAHFpyLW99q9EBqqx-86" edge="1">
          <mxGeometry relative="1" as="geometry">
            <Array as="points">
              <mxPoint x="1940" y="1340" />
              <mxPoint x="1940" y="1340" />
            </Array>
          </mxGeometry>
        </mxCell>
        <mxCell id="qFUMAHFpyLW99q9EBqqx-130" value="subscribe" style="edgeLabel;html=1;align=center;verticalAlign=middle;resizable=0;points=[];" parent="qFUMAHFpyLW99q9EBqqx-121" vertex="1" connectable="0">
          <mxGeometry x="-0.1029" y="1" relative="1" as="geometry">
            <mxPoint y="3" as="offset" />
          </mxGeometry>
        </mxCell>
        <mxCell id="qFUMAHFpyLW99q9EBqqx-122" value="&lt;font color=&quot;#ffffff&quot;&gt;&lt;b&gt;2a&lt;/b&gt;&lt;/font&gt;" style="ellipse;whiteSpace=wrap;html=1;fillColor=#000000;" parent="1" vertex="1">
          <mxGeometry x="1926.75" y="1380" width="25" height="20" as="geometry" />
        </mxCell>
        <mxCell id="qFUMAHFpyLW99q9EBqqx-127" style="edgeStyle=orthogonalEdgeStyle;rounded=0;orthogonalLoop=1;jettySize=auto;html=1;entryX=0.526;entryY=1.01;entryDx=0;entryDy=0;entryPerimeter=0;endArrow=open;endFill=0;dashed=1;" parent="1" source="qFUMAHFpyLW99q9EBqqx-119" target="qFUMAHFpyLW99q9EBqqx-94" edge="1">
          <mxGeometry relative="1" as="geometry" />
        </mxCell>
        <mxCell id="qFUMAHFpyLW99q9EBqqx-131" style="edgeStyle=orthogonalEdgeStyle;rounded=0;orthogonalLoop=1;jettySize=auto;html=1;entryX=1;entryY=0.594;entryDx=0;entryDy=0;entryPerimeter=0;startArrow=none;startFill=0;dashed=1;endArrow=open;endFill=0;" parent="1" source="qFUMAHFpyLW99q9EBqqx-136" target="qFUMAHFpyLW99q9EBqqx-86" edge="1">
          <mxGeometry relative="1" as="geometry" />
        </mxCell>
        <mxCell id="qFUMAHFpyLW99q9EBqqx-133" style="rounded=0;orthogonalLoop=1;jettySize=auto;html=1;entryX=-0.005;entryY=0.502;entryDx=0;entryDy=0;entryPerimeter=0;exitX=1;exitY=0.5;exitDx=0;exitDy=0;dashed=1;endArrow=open;endFill=0;" parent="1" source="qFUMAHFpyLW99q9EBqqx-134" target="qFUMAHFpyLW99q9EBqqx-86" edge="1">
          <mxGeometry relative="1" as="geometry" />
        </mxCell>
        <mxCell id="qFUMAHFpyLW99q9EBqqx-135" value="" style="edgeStyle=orthogonalEdgeStyle;rounded=0;orthogonalLoop=1;jettySize=auto;html=1;entryX=-0.005;entryY=0.502;entryDx=0;entryDy=0;entryPerimeter=0;exitX=0.494;exitY=1;exitDx=0;exitDy=0;exitPerimeter=0;dashed=1;endArrow=none;endFill=0;" parent="1" source="qFUMAHFpyLW99q9EBqqx-93" target="qFUMAHFpyLW99q9EBqqx-134" edge="1">
          <mxGeometry relative="1" as="geometry">
            <mxPoint x="1695" y="1223" as="sourcePoint" />
            <mxPoint x="1884" y="1286" as="targetPoint" />
          </mxGeometry>
        </mxCell>
        <mxCell id="qFUMAHFpyLW99q9EBqqx-134" value="&lt;font color=&quot;#ffffff&quot;&gt;&lt;b&gt;4b&lt;/b&gt;&lt;/font&gt;" style="ellipse;whiteSpace=wrap;html=1;fillColor=#000000;" parent="1" vertex="1">
          <mxGeometry x="1768" y="1276" width="25" height="20" as="geometry" />
        </mxCell>
        <mxCell id="qFUMAHFpyLW99q9EBqqx-137" value="" style="rounded=0;orthogonalLoop=1;jettySize=auto;html=1;entryX=1;entryY=0.5;entryDx=0;entryDy=0;startArrow=none;startFill=0;dashed=1;endArrow=none;endFill=0;" parent="1" source="qFUMAHFpyLW99q9EBqqx-91" target="qFUMAHFpyLW99q9EBqqx-136" edge="1">
          <mxGeometry relative="1" as="geometry">
            <mxPoint x="2103" y="1299" as="sourcePoint" />
            <mxPoint x="1997" y="1300" as="targetPoint" />
          </mxGeometry>
        </mxCell>
        <mxCell id="qFUMAHFpyLW99q9EBqqx-136" value="&lt;font color=&quot;#ffffff&quot;&gt;&lt;b&gt;4a&lt;/b&gt;&lt;/font&gt;" style="ellipse;whiteSpace=wrap;html=1;fillColor=#000000;" parent="1" vertex="1">
          <mxGeometry x="2048.75" y="1287" width="25" height="20" as="geometry" />
        </mxCell>
        <mxCell id="qFUMAHFpyLW99q9EBqqx-139" value="" style="edgeStyle=orthogonalEdgeStyle;rounded=0;orthogonalLoop=1;jettySize=auto;html=1;dashed=1;endArrow=open;endFill=0;exitX=0.007;exitY=0.607;exitDx=0;exitDy=0;exitPerimeter=0;" parent="1" edge="1">
          <mxGeometry relative="1" as="geometry">
            <mxPoint x="1884.25" y="1304.84" as="sourcePoint" />
            <mxPoint x="1577" y="1200" as="targetPoint" />
            <Array as="points">
              <mxPoint x="1884" y="1306" />
              <mxPoint x="1577" y="1306" />
            </Array>
          </mxGeometry>
        </mxCell>
        <mxCell id="qFUMAHFpyLW99q9EBqqx-142" value="broadcast&amp;nbsp;&lt;div&gt;groups events&lt;/div&gt;" style="edgeLabel;html=1;align=center;verticalAlign=middle;resizable=0;points=[];" parent="qFUMAHFpyLW99q9EBqqx-139" vertex="1" connectable="0">
          <mxGeometry x="0.3595" y="1" relative="1" as="geometry">
            <mxPoint x="39" as="offset" />
          </mxGeometry>
        </mxCell>
        <mxCell id="qFUMAHFpyLW99q9EBqqx-128" value="&lt;font color=&quot;#ffffff&quot;&gt;&lt;b&gt;5&lt;/b&gt;&lt;/font&gt;" style="ellipse;whiteSpace=wrap;html=1;fillColor=#000000;" parent="1" vertex="1">
          <mxGeometry x="1694.5" y="1295" width="25" height="20" as="geometry" />
        </mxCell>
      </root>
    </mxGraphModel>
  </diagram>
  <diagram id="xUkGKmARckxd2wDTeazU" name="LS-actors">
    <mxGraphModel dx="541" dy="1238" grid="1" gridSize="10" guides="1" tooltips="1" connect="1" arrows="1" fold="1" page="1" pageScale="1" pageWidth="1169" pageHeight="827" math="0" shadow="0">
      <root>
        <mxCell id="0" />
        <mxCell id="1" parent="0" />
        <mxCell id="zead7y5RnH4xkmc0nsIp-1" style="edgeStyle=none;rounded=0;orthogonalLoop=1;jettySize=auto;html=1;exitX=0.369;exitY=0.98;exitDx=0;exitDy=0;fontSize=15;fontColor=#000000;endArrow=oval;endFill=0;strokeColor=#000000;exitPerimeter=0;entryX=0.5;entryY=0;entryDx=0;entryDy=0;" edge="1" parent="1" target="zead7y5RnH4xkmc0nsIp-18">
          <mxGeometry relative="1" as="geometry">
            <mxPoint x="1595" y="392" as="targetPoint" />
            <mxPoint x="1594.8" y="358" as="sourcePoint" />
          </mxGeometry>
        </mxCell>
        <mxCell id="zead7y5RnH4xkmc0nsIp-2" value="" style="ellipse;whiteSpace=wrap;html=1;aspect=fixed;shadow=1;sketch=0;" vertex="1" parent="1">
          <mxGeometry x="1493" y="162" width="200" height="200" as="geometry" />
        </mxCell>
        <mxCell id="zead7y5RnH4xkmc0nsIp-3" value="" style="curved=1;endArrow=classic;html=1;rounded=0;fontColor=#808080;strokeColor=#808080;" edge="1" parent="1">
          <mxGeometry width="50" height="50" relative="1" as="geometry">
            <mxPoint x="1554" y="227" as="sourcePoint" />
            <mxPoint x="1554" y="337" as="targetPoint" />
            <Array as="points">
              <mxPoint x="1554" y="227" />
              <mxPoint x="1524" y="237" />
              <mxPoint x="1584" y="247" />
              <mxPoint x="1524" y="257" />
              <mxPoint x="1584" y="267" />
              <mxPoint x="1524" y="277" />
              <mxPoint x="1584" y="287" />
              <mxPoint x="1524" y="297" />
              <mxPoint x="1584" y="307" />
              <mxPoint x="1534" y="317" />
              <mxPoint x="1554" y="327" />
            </Array>
          </mxGeometry>
        </mxCell>
        <mxCell id="zead7y5RnH4xkmc0nsIp-4" value="&lt;font style=&quot;font-size: 11px;&quot;&gt;Thread&lt;/font&gt;" style="text;html=1;strokeColor=none;fillColor=none;align=center;verticalAlign=middle;whiteSpace=wrap;rounded=0;shadow=1;fontColor=#808080;" vertex="1" parent="1">
          <mxGeometry x="1530" y="207" width="50" height="20" as="geometry" />
        </mxCell>
        <mxCell id="zead7y5RnH4xkmc0nsIp-5" value="&lt;font style=&quot;font-size: 11px;&quot;&gt;State&lt;/font&gt;" style="ellipse;whiteSpace=wrap;html=1;shadow=0;fontColor=#808080;strokeColor=#808080;" vertex="1" parent="1">
          <mxGeometry x="1593" y="222" width="70" height="30" as="geometry" />
        </mxCell>
        <mxCell id="zead7y5RnH4xkmc0nsIp-6" value="&lt;font style=&quot;font-size: 11px;&quot;&gt;Mailbox&lt;/font&gt;" style="text;html=1;strokeColor=none;fillColor=none;align=center;verticalAlign=middle;whiteSpace=wrap;rounded=0;shadow=0;fontColor=#808080;" vertex="1" parent="1">
          <mxGeometry x="1583" y="302" width="91" height="20" as="geometry" />
        </mxCell>
        <mxCell id="zead7y5RnH4xkmc0nsIp-7" value="" style="group" vertex="1" connectable="0" parent="1">
          <mxGeometry x="1582" y="282" width="91" height="20" as="geometry" />
        </mxCell>
        <mxCell id="zead7y5RnH4xkmc0nsIp-8" value="" style="rounded=0;whiteSpace=wrap;html=1;shadow=0;fontColor=#808080;strokeColor=#808080;" vertex="1" parent="zead7y5RnH4xkmc0nsIp-7">
          <mxGeometry width="12" height="20" as="geometry" />
        </mxCell>
        <mxCell id="zead7y5RnH4xkmc0nsIp-9" value="" style="rounded=0;whiteSpace=wrap;html=1;shadow=0;fontColor=#808080;strokeColor=#808080;" vertex="1" parent="zead7y5RnH4xkmc0nsIp-7">
          <mxGeometry x="11" width="10" height="20" as="geometry" />
        </mxCell>
        <mxCell id="zead7y5RnH4xkmc0nsIp-10" value="" style="rounded=0;whiteSpace=wrap;html=1;shadow=0;fontColor=#808080;strokeColor=#808080;" vertex="1" parent="zead7y5RnH4xkmc0nsIp-7">
          <mxGeometry x="20" width="12" height="20" as="geometry" />
        </mxCell>
        <mxCell id="zead7y5RnH4xkmc0nsIp-11" value="" style="rounded=0;whiteSpace=wrap;html=1;shadow=0;fontColor=#808080;strokeColor=#808080;" vertex="1" parent="zead7y5RnH4xkmc0nsIp-7">
          <mxGeometry x="31" width="10" height="20" as="geometry" />
        </mxCell>
        <mxCell id="zead7y5RnH4xkmc0nsIp-12" value="" style="rounded=0;whiteSpace=wrap;html=1;shadow=0;fontColor=#808080;strokeColor=#808080;" vertex="1" parent="zead7y5RnH4xkmc0nsIp-7">
          <mxGeometry x="41" width="10" height="20" as="geometry" />
        </mxCell>
        <mxCell id="zead7y5RnH4xkmc0nsIp-13" value="" style="rounded=0;whiteSpace=wrap;html=1;shadow=0;fontColor=#808080;strokeColor=#808080;" vertex="1" parent="zead7y5RnH4xkmc0nsIp-7">
          <mxGeometry x="50" width="12" height="20" as="geometry" />
        </mxCell>
        <mxCell id="zead7y5RnH4xkmc0nsIp-14" value="" style="rounded=0;whiteSpace=wrap;html=1;shadow=0;strokeColor=#808080;" vertex="1" parent="zead7y5RnH4xkmc0nsIp-7">
          <mxGeometry x="61" width="10" height="20" as="geometry" />
        </mxCell>
        <mxCell id="zead7y5RnH4xkmc0nsIp-15" value="" style="rounded=0;whiteSpace=wrap;html=1;shadow=0;fontColor=#808080;strokeColor=#808080;" vertex="1" parent="zead7y5RnH4xkmc0nsIp-7">
          <mxGeometry x="71" width="10" height="20" as="geometry" />
        </mxCell>
        <mxCell id="zead7y5RnH4xkmc0nsIp-16" value="" style="rounded=0;whiteSpace=wrap;html=1;shadow=0;fontColor=#808080;strokeColor=#808080;" vertex="1" parent="zead7y5RnH4xkmc0nsIp-7">
          <mxGeometry x="81" width="10" height="20" as="geometry" />
        </mxCell>
        <mxCell id="zead7y5RnH4xkmc0nsIp-17" value="&lt;font style=&quot;font-size: 14px;&quot; color=&quot;#000000&quot;&gt;&lt;b style=&quot;&quot;&gt;RealTime&lt;/b&gt;&lt;/font&gt;&lt;div style=&quot;font-size: 14px;&quot;&gt;&lt;font style=&quot;font-size: 14px;&quot; color=&quot;#000000&quot;&gt;&lt;b style=&quot;&quot;&gt;UserTracker&lt;/b&gt;&lt;/font&gt;&lt;/div&gt;" style="text;html=1;strokeColor=none;fillColor=none;align=center;verticalAlign=middle;whiteSpace=wrap;rounded=0;shadow=0;fontColor=#808080;" vertex="1" parent="1">
          <mxGeometry x="1564" y="172" width="60" height="30" as="geometry" />
        </mxCell>
        <mxCell id="zead7y5RnH4xkmc0nsIp-18" value="&lt;font style=&quot;font-size: 14px;&quot;&gt;DrivingEvent&lt;br&gt;&lt;/font&gt;" style="text;html=1;strokeColor=none;fillColor=none;align=center;verticalAlign=middle;whiteSpace=wrap;rounded=0;shadow=0;" vertex="1" parent="1">
          <mxGeometry x="1549" y="388" width="90" height="26" as="geometry" />
        </mxCell>
        <mxCell id="zead7y5RnH4xkmc0nsIp-19" style="edgeStyle=none;rounded=0;orthogonalLoop=1;jettySize=auto;html=1;exitX=0;exitY=1;exitDx=0;exitDy=0;fontSize=15;fontColor=#000000;endArrow=oval;endFill=0;strokeColor=#000000;entryX=0.546;entryY=0.029;entryDx=0;entryDy=0;entryPerimeter=0;" edge="1" parent="1" source="zead7y5RnH4xkmc0nsIp-20" target="zead7y5RnH4xkmc0nsIp-39">
          <mxGeometry relative="1" as="geometry">
            <mxPoint x="1795" y="395" as="targetPoint" />
            <mxPoint x="1794.8" y="361" as="sourcePoint" />
          </mxGeometry>
        </mxCell>
        <mxCell id="zead7y5RnH4xkmc0nsIp-20" value="" style="ellipse;whiteSpace=wrap;html=1;aspect=fixed;shadow=1;sketch=0;" vertex="1" parent="1">
          <mxGeometry x="1750" y="165" width="200" height="200" as="geometry" />
        </mxCell>
        <mxCell id="zead7y5RnH4xkmc0nsIp-21" value="" style="curved=1;endArrow=classic;html=1;rounded=0;fontColor=#808080;strokeColor=#808080;" edge="1" parent="1">
          <mxGeometry width="50" height="50" relative="1" as="geometry">
            <mxPoint x="1811" y="230" as="sourcePoint" />
            <mxPoint x="1811" y="340" as="targetPoint" />
            <Array as="points">
              <mxPoint x="1811" y="230" />
              <mxPoint x="1781" y="240" />
              <mxPoint x="1841" y="250" />
              <mxPoint x="1781" y="260" />
              <mxPoint x="1841" y="270" />
              <mxPoint x="1781" y="280" />
              <mxPoint x="1841" y="290" />
              <mxPoint x="1781" y="300" />
              <mxPoint x="1841" y="310" />
              <mxPoint x="1791" y="320" />
              <mxPoint x="1811" y="330" />
            </Array>
          </mxGeometry>
        </mxCell>
        <mxCell id="zead7y5RnH4xkmc0nsIp-22" value="&lt;font style=&quot;font-size: 11px;&quot;&gt;Thread&lt;/font&gt;" style="text;html=1;strokeColor=none;fillColor=none;align=center;verticalAlign=middle;whiteSpace=wrap;rounded=0;shadow=1;fontColor=#808080;" vertex="1" parent="1">
          <mxGeometry x="1787" y="210" width="50" height="20" as="geometry" />
        </mxCell>
        <mxCell id="zead7y5RnH4xkmc0nsIp-23" value="&lt;font style=&quot;font-size: 11px;&quot;&gt;State&lt;/font&gt;" style="ellipse;whiteSpace=wrap;html=1;shadow=0;fontColor=#808080;strokeColor=#808080;" vertex="1" parent="1">
          <mxGeometry x="1850" y="225" width="70" height="30" as="geometry" />
        </mxCell>
        <mxCell id="zead7y5RnH4xkmc0nsIp-24" value="&lt;font style=&quot;font-size: 11px;&quot;&gt;Mailbox&lt;/font&gt;" style="text;html=1;strokeColor=none;fillColor=none;align=center;verticalAlign=middle;whiteSpace=wrap;rounded=0;shadow=0;fontColor=#808080;" vertex="1" parent="1">
          <mxGeometry x="1840" y="305" width="91" height="20" as="geometry" />
        </mxCell>
        <mxCell id="zead7y5RnH4xkmc0nsIp-25" value="" style="group" vertex="1" connectable="0" parent="1">
          <mxGeometry x="1839" y="285" width="91" height="20" as="geometry" />
        </mxCell>
        <mxCell id="zead7y5RnH4xkmc0nsIp-26" value="" style="rounded=0;whiteSpace=wrap;html=1;shadow=0;fontColor=#808080;strokeColor=#808080;" vertex="1" parent="zead7y5RnH4xkmc0nsIp-25">
          <mxGeometry width="12" height="20" as="geometry" />
        </mxCell>
        <mxCell id="zead7y5RnH4xkmc0nsIp-27" value="" style="rounded=0;whiteSpace=wrap;html=1;shadow=0;fontColor=#808080;strokeColor=#808080;" vertex="1" parent="zead7y5RnH4xkmc0nsIp-25">
          <mxGeometry x="11" width="10" height="20" as="geometry" />
        </mxCell>
        <mxCell id="zead7y5RnH4xkmc0nsIp-28" value="" style="rounded=0;whiteSpace=wrap;html=1;shadow=0;fontColor=#808080;strokeColor=#808080;" vertex="1" parent="zead7y5RnH4xkmc0nsIp-25">
          <mxGeometry x="20" width="12" height="20" as="geometry" />
        </mxCell>
        <mxCell id="zead7y5RnH4xkmc0nsIp-29" value="" style="rounded=0;whiteSpace=wrap;html=1;shadow=0;fontColor=#808080;strokeColor=#808080;" vertex="1" parent="zead7y5RnH4xkmc0nsIp-25">
          <mxGeometry x="31" width="10" height="20" as="geometry" />
        </mxCell>
        <mxCell id="zead7y5RnH4xkmc0nsIp-30" value="" style="rounded=0;whiteSpace=wrap;html=1;shadow=0;fontColor=#808080;strokeColor=#808080;" vertex="1" parent="zead7y5RnH4xkmc0nsIp-25">
          <mxGeometry x="41" width="10" height="20" as="geometry" />
        </mxCell>
        <mxCell id="zead7y5RnH4xkmc0nsIp-31" value="" style="rounded=0;whiteSpace=wrap;html=1;shadow=0;fontColor=#808080;strokeColor=#808080;" vertex="1" parent="zead7y5RnH4xkmc0nsIp-25">
          <mxGeometry x="50" width="12" height="20" as="geometry" />
        </mxCell>
        <mxCell id="zead7y5RnH4xkmc0nsIp-32" value="" style="rounded=0;whiteSpace=wrap;html=1;shadow=0;strokeColor=#808080;" vertex="1" parent="zead7y5RnH4xkmc0nsIp-25">
          <mxGeometry x="61" width="10" height="20" as="geometry" />
        </mxCell>
        <mxCell id="zead7y5RnH4xkmc0nsIp-33" value="" style="rounded=0;whiteSpace=wrap;html=1;shadow=0;fontColor=#808080;strokeColor=#808080;" vertex="1" parent="zead7y5RnH4xkmc0nsIp-25">
          <mxGeometry x="71" width="10" height="20" as="geometry" />
        </mxCell>
        <mxCell id="zead7y5RnH4xkmc0nsIp-34" value="" style="rounded=0;whiteSpace=wrap;html=1;shadow=0;fontColor=#808080;strokeColor=#808080;" vertex="1" parent="zead7y5RnH4xkmc0nsIp-25">
          <mxGeometry x="81" width="10" height="20" as="geometry" />
        </mxCell>
        <mxCell id="zead7y5RnH4xkmc0nsIp-35" value="&lt;font color=&quot;#000000&quot;&gt;&lt;span style=&quot;font-size: 14px;&quot;&gt;&lt;b&gt;Group&lt;/b&gt;&lt;/span&gt;&lt;/font&gt;&lt;div&gt;&lt;font color=&quot;#000000&quot;&gt;&lt;span style=&quot;font-size: 14px;&quot;&gt;&lt;b&gt;Manager&lt;/b&gt;&lt;/span&gt;&lt;/font&gt;&lt;/div&gt;" style="text;html=1;strokeColor=none;fillColor=none;align=center;verticalAlign=middle;whiteSpace=wrap;rounded=0;shadow=0;fontColor=#808080;" vertex="1" parent="1">
          <mxGeometry x="1821" y="175" width="60" height="30" as="geometry" />
        </mxCell>
        <mxCell id="zead7y5RnH4xkmc0nsIp-36" style="edgeStyle=none;rounded=0;orthogonalLoop=1;jettySize=auto;html=1;fontSize=15;fontColor=#000000;endArrow=oval;endFill=0;strokeColor=#000000;exitX=0.5;exitY=1;exitDx=0;exitDy=0;entryX=0.5;entryY=0;entryDx=0;entryDy=0;" edge="1" parent="1" source="zead7y5RnH4xkmc0nsIp-20" target="zead7y5RnH4xkmc0nsIp-40">
          <mxGeometry relative="1" as="geometry">
            <mxPoint x="1852.2" y="396" as="targetPoint" />
            <mxPoint x="1852.3999999999999" y="360.19999999999993" as="sourcePoint" />
          </mxGeometry>
        </mxCell>
        <mxCell id="zead7y5RnH4xkmc0nsIp-37" style="edgeStyle=orthogonalEdgeStyle;rounded=0;orthogonalLoop=1;jettySize=auto;html=1;entryX=0;entryY=0.5;entryDx=0;entryDy=0;fillColor=#fff2cc;strokeColor=#d6b656;dashed=1;strokeWidth=2;endArrow=none;endFill=0;dashPattern=1 2;" edge="1" parent="1" source="zead7y5RnH4xkmc0nsIp-38" target="zead7y5RnH4xkmc0nsIp-2">
          <mxGeometry relative="1" as="geometry" />
        </mxCell>
        <mxCell id="zead7y5RnH4xkmc0nsIp-38" value="The actor in charge of tracking the real time location of one user in a specific group" style="shape=note;strokeWidth=2;fontSize=14;size=20;whiteSpace=wrap;html=1;fillColor=#fff2cc;strokeColor=#d6b656;" vertex="1" parent="1">
          <mxGeometry x="1290" y="212" width="180" height="100" as="geometry" />
        </mxCell>
        <mxCell id="zead7y5RnH4xkmc0nsIp-39" value="&lt;font style=&quot;font-size: 14px;&quot;&gt;Wire(listener actorRef)&lt;br&gt;&lt;/font&gt;" style="text;html=1;strokeColor=none;fillColor=none;align=center;verticalAlign=middle;whiteSpace=wrap;rounded=0;shadow=0;" vertex="1" parent="1">
          <mxGeometry x="1709" y="378" width="90" height="46" as="geometry" />
        </mxCell>
        <mxCell id="zead7y5RnH4xkmc0nsIp-40" value="&lt;font style=&quot;font-size: 14px;&quot;&gt;Wire(listener actorRef)&lt;br&gt;&lt;/font&gt;" style="text;html=1;strokeColor=none;fillColor=none;align=center;verticalAlign=middle;whiteSpace=wrap;rounded=0;shadow=0;" vertex="1" parent="1">
          <mxGeometry x="1805" y="389" width="90" height="50" as="geometry" />
        </mxCell>
        <mxCell id="zead7y5RnH4xkmc0nsIp-41" style="edgeStyle=none;rounded=0;orthogonalLoop=1;jettySize=auto;html=1;fontSize=15;fontColor=#000000;endArrow=oval;endFill=0;strokeColor=#000000;exitX=1;exitY=1;exitDx=0;exitDy=0;entryX=0.5;entryY=0;entryDx=0;entryDy=0;" edge="1" parent="1" source="zead7y5RnH4xkmc0nsIp-20" target="zead7y5RnH4xkmc0nsIp-42">
          <mxGeometry relative="1" as="geometry">
            <mxPoint x="1921" y="372" as="targetPoint" />
            <mxPoint x="1891.7106781186546" y="335.71067811865476" as="sourcePoint" />
          </mxGeometry>
        </mxCell>
        <mxCell id="zead7y5RnH4xkmc0nsIp-42" value="&lt;font style=&quot;font-size: 14px;&quot;&gt;DrivenEvent&lt;br&gt;&lt;/font&gt;" style="text;html=1;strokeColor=none;fillColor=none;align=center;verticalAlign=middle;whiteSpace=wrap;rounded=0;shadow=0;" vertex="1" parent="1">
          <mxGeometry x="1905.5" y="388" width="90" height="26" as="geometry" />
        </mxCell>
        <mxCell id="zead7y5RnH4xkmc0nsIp-43" style="edgeStyle=orthogonalEdgeStyle;rounded=0;orthogonalLoop=1;jettySize=auto;html=1;entryX=1;entryY=0.5;entryDx=0;entryDy=0;endArrow=none;endFill=0;dashed=1;fillColor=#fff2cc;strokeColor=#d6b656;strokeWidth=2;dashPattern=1 2;" edge="1" parent="1" source="zead7y5RnH4xkmc0nsIp-44" target="zead7y5RnH4xkmc0nsIp-20">
          <mxGeometry relative="1" as="geometry" />
        </mxCell>
        <mxCell id="zead7y5RnH4xkmc0nsIp-44" value="Keeps track of all active connections for a group acting as an intermediary between the clients and the group members RealTimeUserTracker actors." style="shape=note;strokeWidth=2;fontSize=14;size=20;whiteSpace=wrap;html=1;fillColor=#fff2cc;strokeColor=#d6b656;fontColor=#666600;" vertex="1" parent="1">
          <mxGeometry x="1974.25" y="207" width="220" height="117" as="geometry" />
        </mxCell>
      </root>
    </mxGraphModel>
  </diagram>
  <diagram id="TKssXF1KHbW2uiDtyP-C" name="LS-projection">
    <mxGraphModel dx="297" dy="1061" grid="1" gridSize="10" guides="1" tooltips="1" connect="1" arrows="1" fold="1" page="1" pageScale="1" pageWidth="1169" pageHeight="827" math="0" shadow="0">
      <root>
        <mxCell id="0" />
        <mxCell id="1" parent="0" />
        <mxCell id="AeLx6Cu9RUWBwHSiBPVw-1" style="edgeStyle=orthogonalEdgeStyle;rounded=0;orthogonalLoop=1;jettySize=auto;html=1;exitX=1;exitY=0.5;exitDx=0;exitDy=0;exitPerimeter=0;entryX=0;entryY=0.5;entryDx=0;entryDy=0;" edge="1" parent="1" source="AeLx6Cu9RUWBwHSiBPVw-2" target="AeLx6Cu9RUWBwHSiBPVw-3">
          <mxGeometry relative="1" as="geometry">
            <mxPoint x="1441" y="663.0000000000001" as="targetPoint" />
          </mxGeometry>
        </mxCell>
        <mxCell id="AeLx6Cu9RUWBwHSiBPVw-2" value="&lt;div&gt;&lt;br&gt;&lt;/div&gt;Event&lt;div&gt;Journal&lt;/div&gt;" style="strokeWidth=1;html=1;shape=mxgraph.flowchart.database;whiteSpace=wrap;" vertex="1" parent="1">
          <mxGeometry x="1701" y="368" width="60" height="60" as="geometry" />
        </mxCell>
        <mxCell id="AeLx6Cu9RUWBwHSiBPVw-3" value="Tracking&lt;div&gt;Projection&lt;/div&gt;" style="rounded=1;whiteSpace=wrap;html=1;" vertex="1" parent="1">
          <mxGeometry x="1801" y="373" width="90" height="49" as="geometry" />
        </mxCell>
        <mxCell id="AeLx6Cu9RUWBwHSiBPVw-4" style="edgeStyle=orthogonalEdgeStyle;rounded=0;orthogonalLoop=1;jettySize=auto;html=1;exitX=-0.007;exitY=0.564;exitDx=0;exitDy=0;endArrow=none;endFill=0;exitPerimeter=0;entryX=0.992;entryY=0.632;entryDx=0;entryDy=0;startArrow=async;startFill=1;entryPerimeter=0;" edge="1" parent="1" source="AeLx6Cu9RUWBwHSiBPVw-2" target="AeLx6Cu9RUWBwHSiBPVw-7">
          <mxGeometry relative="1" as="geometry">
            <mxPoint x="1641" y="499" as="sourcePoint" />
            <mxPoint x="1641" y="456" as="targetPoint" />
          </mxGeometry>
        </mxCell>
        <mxCell id="AeLx6Cu9RUWBwHSiBPVw-5" style="edgeStyle=orthogonalEdgeStyle;rounded=0;orthogonalLoop=1;jettySize=auto;html=1;exitX=0.992;exitY=0.538;exitDx=0;exitDy=0;endArrow=none;endFill=0;exitPerimeter=0;entryX=0.01;entryY=0.43;entryDx=0;entryDy=0;entryPerimeter=0;startArrow=async;startFill=1;" edge="1" parent="1" source="AeLx6Cu9RUWBwHSiBPVw-7" target="AeLx6Cu9RUWBwHSiBPVw-2">
          <mxGeometry relative="1" as="geometry">
            <mxPoint x="1681" y="373" as="sourcePoint" />
            <mxPoint x="1681" y="416" as="targetPoint" />
          </mxGeometry>
        </mxCell>
        <mxCell id="AeLx6Cu9RUWBwHSiBPVw-6" value="WebSocket&lt;div&gt;Service&lt;/div&gt;" style="rounded=0;whiteSpace=wrap;html=1;" vertex="1" parent="1">
          <mxGeometry x="1430" y="373" width="80" height="50" as="geometry" />
        </mxCell>
        <mxCell id="AeLx6Cu9RUWBwHSiBPVw-7" value="RealTime&lt;div&gt;UserTracker&lt;/div&gt;&lt;div&gt;Actor&lt;/div&gt;" style="ellipse;shape=umlControl;whiteSpace=wrap;html=1;shadow=1;" vertex="1" parent="1">
          <mxGeometry x="1561" y="350" width="80" height="82" as="geometry" />
        </mxCell>
        <mxCell id="AeLx6Cu9RUWBwHSiBPVw-8" value="Tracking&lt;div&gt;Service&lt;/div&gt;&lt;div&gt;(gRPC)&lt;/div&gt;" style="rounded=0;whiteSpace=wrap;html=1;" vertex="1" parent="1">
          <mxGeometry x="1430" y="458" width="80" height="50" as="geometry" />
        </mxCell>
        <mxCell id="AeLx6Cu9RUWBwHSiBPVw-9" value="&lt;div&gt;&lt;br&gt;&lt;/div&gt;Query&lt;div&gt;DB&lt;/div&gt;" style="strokeWidth=1;html=1;shape=mxgraph.flowchart.database;whiteSpace=wrap;" vertex="1" parent="1">
          <mxGeometry x="1701" y="453" width="60" height="60" as="geometry" />
        </mxCell>
        <mxCell id="AeLx6Cu9RUWBwHSiBPVw-10" style="edgeStyle=orthogonalEdgeStyle;rounded=0;orthogonalLoop=1;jettySize=auto;html=1;exitX=0.5;exitY=1;exitDx=0;exitDy=0;entryX=1;entryY=0.5;entryDx=0;entryDy=0;entryPerimeter=0;" edge="1" parent="1" source="AeLx6Cu9RUWBwHSiBPVw-3" target="AeLx6Cu9RUWBwHSiBPVw-9">
          <mxGeometry relative="1" as="geometry">
            <mxPoint x="1871" y="576.9999999999999" as="sourcePoint" />
            <mxPoint x="1661" y="691.5" as="targetPoint" />
          </mxGeometry>
        </mxCell>
        <mxCell id="AeLx6Cu9RUWBwHSiBPVw-11" style="edgeStyle=orthogonalEdgeStyle;rounded=0;orthogonalLoop=1;jettySize=auto;html=1;exitX=1;exitY=0.5;exitDx=0;exitDy=0;entryX=-0.017;entryY=0.584;entryDx=0;entryDy=0;entryPerimeter=0;" edge="1" parent="1" source="AeLx6Cu9RUWBwHSiBPVw-6" target="AeLx6Cu9RUWBwHSiBPVw-7">
          <mxGeometry relative="1" as="geometry" />
        </mxCell>
        <mxCell id="AeLx6Cu9RUWBwHSiBPVw-12" style="edgeStyle=orthogonalEdgeStyle;rounded=0;orthogonalLoop=1;jettySize=auto;html=1;exitX=1;exitY=0.5;exitDx=0;exitDy=0;entryX=0;entryY=0.5;entryDx=0;entryDy=0;entryPerimeter=0;" edge="1" parent="1" source="AeLx6Cu9RUWBwHSiBPVw-8" target="AeLx6Cu9RUWBwHSiBPVw-9">
          <mxGeometry relative="1" as="geometry" />
        </mxCell>
      </root>
    </mxGraphModel>
  </diagram>
</mxfile>
